<svg xmlns="http://www.w3.org/2000/svg" viewBox="0 0 750 500"><g id="freepik--background-complete--inject-54"><path d="M655.61,245.45s-7.53-3.12-12.57,14.42-6.35,27.34-6.35,27.34-1.51,3.76-4.23,2-7.06-7.33-10.75-5.46-4.29,6.72-2.23,13.21,6,20.88,6.4,22.19,0,3.33-2.07,2.44-14.66-10.44-18.83-4.18,4.53,23.4,5.45,25.29.69,2.82-.17,3.5-4.79-2.93-8.48-5.5-8.44-4.9-10.55-1.09-.34,17.6,16.9,37.22l8.58,8.56,11.81-3c24.89-7.9,33.52-18.81,33.68-23.16s-5.1-4.8-9.59-4.51-9.73,1.36-10.11.34-.1-1.94,1.66-3.08,18.07-11.35,17.72-18.86-16.07-5.84-18.28-6.13-1.47-2.25-.51-3.17,11.82-11.2,16.93-15.7,7.19-8.83,4.91-12.46-8.8-1-12-.88-2.58-3.91-2.58-3.91,3.95-9.06,8.67-26.69-3.54-18.83-3.54-18.83" style="fill:#ebebeb"></path><path d="M651.06,261.15s0,.13-.08.38-.15.62-.27,1.09c-.25,1-.61,2.38-1.08,4.17-.94,3.63-2.35,8.87-4.11,15.34-3.52,12.93-8.54,30.75-14.14,50.42S620.72,370,617.12,382.94c-1.78,6.45-3.23,11.67-4.24,15.3-.49,1.79-.88,3.18-1.15,4.15-.14.46-.24.82-.32,1.08l-.11.37s0-.13.07-.38.16-.62.28-1.09c.25-1,.61-2.38,1.08-4.18.94-3.62,2.35-8.86,4.11-15.33,3.52-12.93,8.54-30.75,14.14-50.43s10.66-37.47,14.26-50.38c1.78-6.45,3.23-11.67,4.23-15.3l1.16-4.15c.14-.47.24-.82.31-1.08Z" style="fill:#e0e0e0"></path><path d="M627.47,291.84a3.17,3.17,0,0,1,.47.74c.27.5.65,1.22,1.11,2.12.91,1.79,2.1,4.31,3.36,7.11l3.2,7.18,1,2.18a3.77,3.77,0,0,1,.33.81,3.17,3.17,0,0,1-.47-.74c-.28-.49-.65-1.22-1.1-2.12-.9-1.81-2.05-4.34-3.32-7.14l-3.25-7.16-1-2.16A4.19,4.19,0,0,1,627.47,291.84Z" style="fill:#e0e0e0"></path><path d="M638.05,312c0-.1,5-2.79,11.34-6s11.47-5.73,11.53-5.63-5,2.79-11.34,6S638.1,312.08,638.05,312Z" style="fill:#e0e0e0"></path><path d="M628.08,341.8a3.52,3.52,0,0,1,.87-.22l2.39-.46c2-.39,4.8-.94,7.85-1.65s5.79-1.44,7.77-2l2.35-.64a4.18,4.18,0,0,1,.88-.19,4,4,0,0,1-.83.35c-.54.19-1.33.46-2.31.77-2,.61-4.7,1.4-7.76,2.11s-5.86,1.21-7.9,1.53c-1,.15-1.84.27-2.41.33A3.4,3.4,0,0,1,628.08,341.8Z" style="fill:#e0e0e0"></path><path d="M614.5,325.68a3.54,3.54,0,0,1,.6.58c.37.38.89.95,1.52,1.65,1.28,1.42,3,3.38,4.91,5.58s3.59,4.19,4.8,5.65c.61.73,1.1,1.33,1.43,1.74s.5.66.47.68a3.12,3.12,0,0,1-.6-.57c-.36-.38-.88-.95-1.52-1.66-1.27-1.41-3-3.38-4.9-5.57s-3.59-4.19-4.81-5.65c-.6-.74-1.09-1.33-1.42-1.75A3.25,3.25,0,0,1,614.5,325.68Z" style="fill:#e0e0e0"></path><path d="M602.36,350.89a4.91,4.91,0,0,1,.76.74l2,2.12c1.64,1.8,3.88,4.31,6.34,7.09s4.66,5.33,6.25,7.18l1.85,2.2a5.54,5.54,0,0,1,.64.85,5.63,5.63,0,0,1-.76-.74l-2-2.12c-1.63-1.8-3.87-4.31-6.33-7.09s-4.66-5.33-6.25-7.18l-1.85-2.2A4.79,4.79,0,0,1,602.36,350.89Z" style="fill:#e0e0e0"></path><path d="M619.86,370.47a5.5,5.5,0,0,1,1.1-.3l3-.7c2.54-.58,6-1.4,9.9-2.41s7.3-2,9.8-2.74l3-.87a5.79,5.79,0,0,1,1.1-.27,7,7,0,0,1-1.05.42c-.68.25-1.68.6-2.92,1-2.48.81-5.94,1.86-9.79,2.86s-7.38,1.79-9.93,2.3c-1.28.25-2.32.45-3,.56A6.08,6.08,0,0,1,619.86,370.47Z" style="fill:#e0e0e0"></path><path d="M625.31,412.83a9.93,9.93,0,0,1,9.45-3.11,13.16,13.16,0,0,1,8.27,5.92c.87,1.36,1.54,3,1,4.56a4.24,4.24,0,0,1-3.39,2.64,8.62,8.62,0,0,1-4.41-.66c-4.82-1.84-9.16-4.5-11-9.35" style="fill:#e0e0e0"></path><path d="M617.12,408.06a23.17,23.17,0,0,0,6-20.31c-.36-1.83-1.26-3.91-3.1-4.27s-3.45,1.24-4.44,2.83a19.79,19.79,0,0,0,1.08,21.95" style="fill:#e0e0e0"></path><path d="M656.5,383.14a11.6,11.6,0,0,1-1.82,8.91,20.62,20.62,0,0,1-6.89,6.2c-5.2,3.07-12.08,4-18.11,3.94.48-6.68,5.91-12.23,8.85-14.88,4.64-4.17,15.56-8.91,18-4.17" style="fill:#e0e0e0"></path><path d="M607.71,417.9a23.7,23.7,0,0,1,2.57-1.59,42.67,42.67,0,0,1,10.86-3.44,21.38,21.38,0,0,1,11.31,1.19,13.88,13.88,0,0,1,3,1.72,4.12,4.12,0,0,1,.94.85,31.07,31.07,0,0,0-4.14-2.12,22.32,22.32,0,0,0-11-1,49.33,49.33,0,0,0-10.77,3.21" style="fill:#fafafa"></path><path d="M607.62,418l4.61-3.34c3.89-2.82,9.25-6.72,15.13-11.1s11.12-8.43,14.93-11.37l4.51-3.46a12.49,12.49,0,0,1,1.7-1.21,11.58,11.58,0,0,1-1.54,1.41c-1,.88-2.51,2.12-4.38,3.64-3.73,3-9,7.14-14.82,11.53S616.47,412.29,612.5,415c-2,1.35-3.6,2.44-4.73,3.17" style="fill:#fafafa"></path><path d="M619,391.8a4.08,4.08,0,0,1,.32,1.18,8.78,8.78,0,0,1,.22,1.4,14.64,14.64,0,0,1,.15,1.89,25.26,25.26,0,0,1-.34,4.91,29.17,29.17,0,0,1-1.7,5.78,28.65,28.65,0,0,1-3,5.24,24.37,24.37,0,0,1-3.3,3.65,15.49,15.49,0,0,1-1.46,1.21,9.31,9.31,0,0,1-1.17.81c-.66.42-1,.34-1,.31a38.33,38.33,0,0,0,3.29-2.67,27.21,27.21,0,0,0,3.12-3.67,27.68,27.68,0,0,0,4.59-10.78,27.56,27.56,0,0,0,.47-4.79C619.26,393.52,618.9,391.83,619,391.8Z" style="fill:#fafafa"></path><path d="M159.75,403.92c12.22-15.23,9.88-36.17,4-53.9-1-3-1.57-6.21-3.76-8.42s-6-3-8.34-1c-1.91,1.7-2.12,4.56-2.74,7.06a18.19,18.19,0,0,1-5.06,8.75c-1.61,1.54-3.79,2.84-6,2.35-3-.67-4.34-4.14-5.19-7.12Q130.34,343.31,128,335a28.83,28.83,0,0,0-3.48-8.57c-1.75-2.55-4.56-4.58-7.62-4.54s-6.08,2.69-5.83,5.77a28.94,28.94,0,0,0,1,3.73c.28,1.26.1,2.79-1,3.48s-2.52.2-3.66-.41c-4-2.11-7.16-5.37-10.23-8.64s-6.11-6.67-9.86-9.13-8.35-3.93-12.68-2.92-8.1,5-8,9.45,3.83,8.05,7.49,10.66A69.29,69.29,0,0,0,91.85,343a5.67,5.67,0,0,1,3,1.81c1.22,1.79-.08,4.31-1.85,5.53-2,1.39-4.47,1.86-6.71,2.81s-4.45,2.71-4.69,5.16c-.33,3.39,3.15,5.83,6.26,7.19a59.29,59.29,0,0,0,19.66,4.79c2.43.17,4.93.2,7.15,1.22s4.06,3.38,3.6,5.78-3,3.88-5.41,4.13-4.83-.4-7.25-.59c-4.54-.35-9.73,1.48-11.32,5.78a9.8,9.8,0,0,0,1.43,8.61,22.62,22.62,0,0,0,6.66,6,59.53,59.53,0,0,0,29.43,10c10.44.52,19.48-1.16,27.9-7.36" style="fill:#ebebeb"></path><path d="M69.79,317.88l.37.19,1.12.53c1,.46,2.42,1.14,4.26,2.07a116.33,116.33,0,0,1,14.94,8.94c3,2.11,6.23,4.56,9.63,7.25s7,5.6,10.69,8.8a140.49,140.49,0,0,1,11,10.56c1.81,1.94,3.53,4,5.28,6.14l5.31,6.45a285.17,285.17,0,0,1,19,25.52,138.66,138.66,0,0,1,12.09,22.95A101.51,101.51,0,0,1,168.68,434c.42,2,.72,3.61.88,4.69.09.51.16.92.21,1.22a2.39,2.39,0,0,0,.09.42,2.28,2.28,0,0,0,0-.43q-.06-.45-.15-1.23c-.13-1.08-.39-2.67-.78-4.71a97.69,97.69,0,0,0-5-16.82,136.42,136.42,0,0,0-12-23.09,279.6,279.6,0,0,0-19-25.59L127.56,362c-1.75-2.12-3.48-4.22-5.3-6.16a137.84,137.84,0,0,0-11.12-10.58c-3.7-3.2-7.33-6.09-10.74-8.78s-6.65-5.11-9.69-7.21a109.73,109.73,0,0,0-15.07-8.8c-1.86-.9-3.32-1.55-4.32-2L70.19,318A2.17,2.17,0,0,0,69.79,317.88Z" style="fill:#e0e0e0"></path><path d="M122.09,355.86a6,6,0,0,0-.08-1.35c-.08-.87-.24-2.12-.47-3.66-.44-3.08-1.2-7.32-2.06-12s-1.55-8.91-2-12c-.2-1.54-.35-2.79-.45-3.65a6.28,6.28,0,0,0-.21-1.34,6.12,6.12,0,0,0,0,1.35c0,.88.12,2.13.27,3.69.3,3.1.93,7.36,1.79,12s1.63,8.77,2.22,12c.26,1.44.48,2.66.65,3.63A6.19,6.19,0,0,0,122.09,355.86Z" style="fill:#e0e0e0"></path><path d="M81.77,359.89a7.71,7.71,0,0,0,1.58-.26c1-.2,2.46-.5,4.27-.8,3.61-.65,8.64-1.37,14.21-1.92s10.64-.81,14.31-.9c1.84-.06,3.33-.07,4.35-.08a7.76,7.76,0,0,0,1.6-.07,8.51,8.51,0,0,0-1.59-.15c-1-.06-2.52-.11-4.36-.11-3.69,0-8.78.2-14.37.74a137.19,137.19,0,0,0-14.22,2.09c-1.81.36-3.26.71-4.25,1A9.4,9.4,0,0,0,81.77,359.89Z" style="fill:#e0e0e0"></path><path d="M151.16,393.48a1.87,1.87,0,0,0,.13-.54c.07-.43.15-.95.25-1.58.21-1.37.46-3.35.74-5.81.57-4.92,1.13-11.74,1.66-19.27s1-14.36,1.48-19.28c.23-2.39.42-4.36.56-5.83l.15-1.59a1.88,1.88,0,0,0,0-.56,2.41,2.41,0,0,0-.13.55c-.06.42-.15.94-.25,1.57-.21,1.37-.46,3.36-.74,5.82-.56,4.91-1.13,11.73-1.65,19.27s-1,14.35-1.49,19.27l-.56,5.83c-.06.64-.1,1.16-.14,1.59A3,3,0,0,0,151.16,393.48Z" style="fill:#e0e0e0"></path><path d="M95.58,392a1.78,1.78,0,0,0,.56.07l1.62.06,6,.17c5,.15,12,.43,19.64.75s14.63.55,19.66.59c2.52,0,4.55,0,6,0l1.62-.05a1.81,1.81,0,0,0,.56,0,2.05,2.05,0,0,0-.56-.06l-1.62-.07-5.95-.17c-5-.14-12-.43-19.65-.75s-14.62-.54-19.66-.59c-2.51,0-4.55,0-6,0l-1.62,0A2.44,2.44,0,0,0,95.58,392Z" style="fill:#e0e0e0"></path><polygon points="278.84 194.78 281.64 223.82 295.79 223.82 299.18 194.78 278.84 194.78" style="fill:#f5f5f5"></polygon><path d="M278.84,191a6.06,6.06,0,0,0-1.33,3.83h23a4.28,4.28,0,0,0-1.33-3.83Z" style="fill:#e0e0e0"></path><polygon points="281.46 188.37 280.68 191.24 298.04 191.37 296.89 188.34 281.46 188.37" style="fill:#e0e0e0"></polygon><path d="M278.55,202.05c0,.27,1.68,14.62,1.68,14.62h17.3l1.65-14.62Z" style="fill:#ebebeb"></path></g><g id="freepik--Floor--inject-54"><path d="M691.48,444.28c0,.15-141.7.26-316.46.26s-316.5-.11-316.5-.26S200.19,444,375,444,691.48,444.14,691.48,444.28Z" style="fill:#263238"></path></g><g id="freepik--Clock--inject-54"><circle cx="582.53" cy="116.98" r="40.24" transform="translate(87.9 446.17) rotate(-45)" style="fill:#0086FF"></circle><path d="M600.8,118.21a7,7,0,0,1-1.42.1l-3.91.08c-3.32,0-8,.08-13.17.08h-.25v-.26c0-.83,0-1.71,0-2.6,0-5.83,0-11.11.08-14.93,0-1.84.06-3.37.08-4.52a11,11,0,0,1,.1-1.66,10,10,0,0,1,.11,1.66c0,1.15.05,2.68.08,4.52,0,3.82.08,9.1.08,14.93,0,.89,0,1.77,0,2.6l-.26-.25c5.22,0,9.85,0,13.17.08l3.91.08A8.9,8.9,0,0,1,600.8,118.21Z" style="fill:#fafafa"></path><path d="M582.43,83.34a11.39,11.39,0,0,1,.26,3.38,11.33,11.33,0,0,1-.26,3.38,11,11,0,0,1-.26-3.38A11,11,0,0,1,582.43,83.34Z" style="fill:#fafafa"></path><path d="M600.76,88.77a10.65,10.65,0,0,1-2.17,2.54,11.15,11.15,0,0,1-2.54,2.18,10.87,10.87,0,0,1,2.17-2.55A11.18,11.18,0,0,1,600.76,88.77Z" style="fill:#fafafa"></path><path d="M611.49,100.49a14.67,14.67,0,0,1-2.78,1.85,14.85,14.85,0,0,1-2.92,1.61,14.6,14.6,0,0,1,5.7-3.46Z" style="fill:#fafafa"></path><path d="M617.77,117.87a41,41,0,0,1-9.22,0,41,41,0,0,1,9.22,0Z" style="fill:#fafafa"></path><path d="M553.85,117.25a36.6,36.6,0,0,1-8.71,0,36.6,36.6,0,0,1,8.71,0Z" style="fill:#fafafa"></path><path d="M558.37,130.19a18.88,18.88,0,0,1-3.29,3,18.57,18.57,0,0,1-3.62,2.58,19.83,19.83,0,0,1,3.29-3A19.31,19.31,0,0,1,558.37,130.19Z" style="fill:#fafafa"></path><path d="M569.52,140.2a30.26,30.26,0,0,1-2.24,3.88,30.78,30.78,0,0,1-2.37,3.8,23,23,0,0,1,4.61-7.68Z" style="fill:#fafafa"></path><path d="M582.43,153.1a20.19,20.19,0,0,1-.26-4.61,20.26,20.26,0,0,1,.26-4.61,21,21,0,0,1,.26,4.61A20.89,20.89,0,0,1,582.43,153.1Z" style="fill:#fafafa"></path><path d="M602.3,147a19.82,19.82,0,0,1-6.9-6,43.36,43.36,0,0,1,3.44,3A44.55,44.55,0,0,1,602.3,147Z" style="fill:#fafafa"></path><path d="M611.62,136.92a16,16,0,0,1-3-2.69,15.68,15.68,0,0,1-2.68-3,16.31,16.31,0,0,1,3.05,2.69A16.1,16.1,0,0,1,611.62,136.92Z" style="fill:#fafafa"></path><path d="M558,104.86a12.18,12.18,0,0,1-2.7-2.33,12.3,12.3,0,0,1-2.32-2.69,12.3,12.3,0,0,1,2.69,2.32A12.18,12.18,0,0,1,558,104.86Z" style="fill:#fafafa"></path><path d="M569.45,92.73a11.84,11.84,0,0,1-2.64-2.27,11.57,11.57,0,0,1-2.28-2.63,11.52,11.52,0,0,1,2.64,2.27A11.57,11.57,0,0,1,569.45,92.73Z" style="fill:#fafafa"></path></g><g id="freepik--Mobile--inject-54"><path d="M598.43,444.3,525.17,444a15.93,15.93,0,0,1-15.88-16l.77-183.14a15.94,15.94,0,0,1,16-15.84l73.26.34a15.93,15.93,0,0,1,15.88,16l-.77,183.13A15.94,15.94,0,0,1,598.43,444.3Z" style="fill:#263238"></path><path d="M599.24,235.66l-14.2-.07a3.53,3.53,0,0,0-3.46,3.58v2.57a3.53,3.53,0,0,1-3.47,3.58l-27.68-.13a3.53,3.53,0,0,1-3.44-3.61l0-2.57a3.53,3.53,0,0,0-3.44-3.61l-5,0-12.43-.06a11.16,11.16,0,0,0-11.23,11.1l-.76,178.75a11.17,11.17,0,0,0,11.13,11.19l73.1.34a11.16,11.16,0,0,0,11.23-11.1l.76-178.75A11.16,11.16,0,0,0,599.24,235.66Z" style="fill:#fff"></path><path d="M549,383.25l.72,13.28a.89.89,0,0,0,.89.85l23.9.17a.88.88,0,0,0,.9-.89l.08-10.34a.9.9,0,0,0-.9-.9h-14.7a.9.9,0,0,1-.63-.27l-2.54-2.53a.85.85,0,0,0-.62-.26l-6.2-.05A.9.9,0,0,0,549,383.25Z" style="fill:#0086FF"></path><rect x="549.35" y="383.76" width="26.12" height="15.61" transform="translate(2.88 -4.11) rotate(0.42)" style="fill:#f5f5f5"></rect><path d="M547.32,385.05l1.88,16.29a.57.57,0,0,0,.57.51l25.45.19a.59.59,0,0,0,.58-.53l1.4-16.26a.58.58,0,0,0-.57-.63l-28.73-.21A.58.58,0,0,0,547.32,385.05Z" style="fill:#0086FF"></path><path d="M590.53,333.21a9.81,9.81,0,0,1-.45-2.81c-.19-.89-.35-2-.66-3.23l-.57-2c-.21-.7-.53-1.4-.81-2.15a28.22,28.22,0,0,0-31.45-17,28.73,28.73,0,0,0-10.35,4.23,30.86,30.86,0,0,0-5.78,5c-.63.66-1.08,1.2-1.4,1.56s-.51.54-.56.51.06-.26.31-.69a14.36,14.36,0,0,1,1.18-1.77,26.42,26.42,0,0,1,5.62-5.49,28.29,28.29,0,0,1,10.7-4.73,28.7,28.7,0,0,1,26.54,8.12,28.6,28.6,0,0,1,6.21,9.9c.26.79.56,1.53.74,2.26s.32,1.42.47,2.07c.24,1.3.32,2.44.42,3.36A10.44,10.44,0,0,1,590.53,333.21Z" style="fill:#0086FF"></path><path d="M577,323.12c.26-.34,6.46,3.93,13.84,9.54l.41.32-1.21.36c3-8.53,5.7-15.24,6.1-15.1s-1.66,7.08-4.63,15.62l-.35,1-.86-.65-.41-.31C582.46,328.3,576.69,323.47,577,323.12Z" style="fill:#0086FF"></path><path d="M537,328.49a9.63,9.63,0,0,1,.11,2.77c.05.88.11,2,.23,3.19a32.05,32.05,0,0,0,.82,4.14,29,29,0,0,0,4.74,9.77A27.89,27.89,0,0,0,553,356.78l.79.41.81.32,1.62.64c.55.17,1.1.31,1.64.47a12,12,0,0,0,1.64.42,28.43,28.43,0,0,0,17-1.6,31.36,31.36,0,0,0,6.44-3.67c.71-.52,1.25-.94,1.62-1.24s.59-.41.63-.37-.11.24-.42.6a14.51,14.51,0,0,1-1.45,1.48,26,26,0,0,1-6.37,4.21,27.84,27.84,0,0,1-11,2.66,29.11,29.11,0,0,1-6.74-.57,15.44,15.44,0,0,1-1.72-.43c-.58-.16-1.16-.31-1.74-.49L554,359l-.87-.34-.83-.42-1.65-.85c-.53-.32-1-.66-1.55-1a28.23,28.23,0,0,1-2.87-2.15c-.46-.36-.85-.8-1.27-1.19s-.85-.78-1.21-1.22l-1.08-1.28-.53-.63-.47-.67A28.41,28.41,0,0,1,537,338.85a28,28,0,0,1-.62-4.32c0-1.28,0-2.39,0-3.29A9.43,9.43,0,0,1,537,328.49Z" style="fill:#0086FF"></path><path d="M549.19,340.17c-.3.3-5.93-4.69-12.56-11.16l-.37-.37,1.24-.21c-4,8.1-7.52,14.43-7.9,14.24s2.51-6.82,6.5-14.93l.48-1,.77.75.37.36C544.35,334.36,549.49,339.86,549.19,340.17Z" style="fill:#0086FF"></path></g><g id="freepik--Computer--inject-54"><path d="M151.11,224.24H464.93a6.74,6.74,0,0,1,6.74,6.74v195.8a14.57,14.57,0,0,1-14.57,14.57H157.93a14.57,14.57,0,0,1-14.57-14.57V232A7.75,7.75,0,0,1,151.11,224.24Z" style="fill:#263238"></path><path d="M129.63,425.29H485.33a0,0,0,0,1,0,0v5.27a13.72,13.72,0,0,1-13.72,13.72H143.36a13.72,13.72,0,0,1-13.72-13.72v-5.27A0,0,0,0,1,129.63,425.29Z" style="fill:#263238"></path><rect x="152.18" y="232.87" width="309.76" height="183.34" style="fill:#455a64"></rect><polygon points="275.15 425.29 279.56 432.31 341.67 432.31 345.77 425.29 275.15 425.29" style="fill:#455a64"></polygon><rect x="162.51" y="245.08" width="285.19" height="171.06" style="fill:#fff"></rect><path d="M174.68,253.51a2.4,2.4,0,1,1-2.39-2.39A2.4,2.4,0,0,1,174.68,253.51Z" style="fill:#263238"></path><path d="M184.44,253.51a2.39,2.39,0,1,1-2.39-2.39A2.4,2.4,0,0,1,184.44,253.51Z" style="fill:#263238"></path><path d="M194.21,253.51a2.4,2.4,0,1,1-2.39-2.39A2.4,2.4,0,0,1,194.21,253.51Z" style="fill:#263238"></path><path d="M447.7,264c0,.15-63.85.27-142.59.27s-142.6-.12-142.6-.27,63.83-.27,142.6-.27S447.7,263.83,447.7,264Z" style="fill:#263238"></path><rect x="143.36" y="425.43" width="328.3" height="1.05" style="fill:#455a64"></rect><path d="M257.81,302.18,260.68,355a3.57,3.57,0,0,0,3.53,3.37l95,.69a3.57,3.57,0,0,0,3.59-3.54l.3-41.1a3.57,3.57,0,0,0-3.56-3.59l-58.44-.05a3.61,3.61,0,0,1-2.52-1l-10.08-10.08a3.54,3.54,0,0,0-2.49-1l-24.64-.18A3.56,3.56,0,0,0,257.81,302.18Z" style="fill:#0086FF"></path><rect x="259.15" y="304.23" width="103.82" height="62.04" transform="translate(2.46 -2.27) rotate(0.42)" style="fill:#f5f5f5"></rect><path d="M251.08,309.36l7.45,64.75a2.29,2.29,0,0,0,2.26,2l101.17.74a2.29,2.29,0,0,0,2.3-2.1l5.57-64.65a2.29,2.29,0,0,0-2.27-2.49l-114.19-.84A2.29,2.29,0,0,0,251.08,309.36Z" style="fill:#0086FF"></path><path d="M332.58,342.26c-.32,0-.15-2.83-1.87-6.86a19.85,19.85,0,0,0-4.23-6.23,19.57,19.57,0,0,0-7.84-4.69,19.89,19.89,0,0,0-9.13-.5,19.42,19.42,0,0,0-7,2.8c-3.65,2.4-5.15,4.83-5.37,4.65-.07-.05.19-.71.93-1.74a17.53,17.53,0,0,1,3.81-3.82,19.1,19.1,0,0,1,7.34-3.3,19.65,19.65,0,0,1,18.29,5.59,19.57,19.57,0,0,1,4.23,6.84,18,18,0,0,1,1,5.29C332.75,341.57,332.68,342.26,332.58,342.26Z" style="fill:#e0e0e0"></path><path d="M323.33,335.39c.26-.34,4.55,2.48,9.57,6.3l.28.21-1.21.37c2-5.81,4-10.35,4.39-10.21s-.89,4.9-2.91,10.72l-.35,1-.86-.65-.28-.22C326.93,339.11,323.07,335.73,323.33,335.39Z" style="fill:#e0e0e0"></path><path d="M296.08,339.05c.32,0-.19,2.75,1,6.83a19.72,19.72,0,0,0,3.25,6.56,18.88,18.88,0,0,0,6.84,5.66,22.49,22.49,0,0,0,2.16.91c.74.21,1.47.46,2.2.6a19.59,19.59,0,0,0,4.3.45A19.32,19.32,0,0,0,323,358.6a22.36,22.36,0,0,0,4.4-2.41c1-.68,1.5-1.11,1.59-1s-.31.64-1.21,1.49a17,17,0,0,1-4.33,2.95,18.92,18.92,0,0,1-7.58,1.89,19.66,19.66,0,0,1-4.65-.39c-.79-.14-1.58-.4-2.39-.63a19.8,19.8,0,0,1-2.35-1A19.45,19.45,0,0,1,296,346.15a18.65,18.65,0,0,1-.39-3c0-.88,0-1.64.06-2.25C295.82,339.69,296,339,296.08,339.05Z" style="fill:#e0e0e0"></path><path d="M304.42,347c-.31.31-4.21-3-8.74-7.43l-.25-.24,1.25-.22c-2.74,5.52-5.23,9.78-5.61,9.6s1.49-4.76,4.21-10.29l.47-1,.77.75.26.25C301.3,342.86,304.72,346.69,304.42,347Z" style="fill:#e0e0e0"></path></g><g id="freepik--Character--inject-54"><path d="M218.17,156.85,213.32,172a17.53,17.53,0,0,1-13.61,12.19l-32.38,6.08-8.81-.28,8.81-10.91,24.34-8.3a6.52,6.52,0,0,0,4.91-4.66l9.7-21.09,12.27,7.53Z" style="fill:#b78876"></path><path d="M265.92,142c-.45,2.35-7.3,19.44-7.3,19.44s-26.66-9-26.31-10.36c.29-1.07,5.41-18.19,11.55-27.67A13.87,13.87,0,0,1,254.53,117c1.21-.08,3.81,1.17,4.52,1.57C264.66,121.72,269.43,123.84,265.92,142Z" style="fill:#455a64"></path><path d="M228.3,108.87c-12.06,1.35-14,9.54-19.64,17.61l-8.13,15,14.95,9.17-.52,23-7.12,22,56.25-5.29-5.2-18.84,7.5-29.58c.57-4,2.12-11.53,1.07-15.49-3.28-12.4-16.16-16-25-18.32-1.83-.48-10.65-.45-12.18-.07" style="fill:#0086FF"></path><path d="M265.43,141.76a2.48,2.48,0,0,0-.12.32c-.08.23-.18.55-.31.95l-1.16,3.63c-1,3.16-2.39,7.67-4.09,13.14l.19-.09-25-9.24-.62-.26.1.21A111.2,111.2,0,0,1,240.24,134a46.59,46.59,0,0,1,7.45-12.07,16.4,16.4,0,0,1,4.21-3.41,8.72,8.72,0,0,1,3.89-1.15,5.31,5.31,0,0,1,.79,0l.7.07c.21,0,.41,0,.59.07l.48.13.66.17.23,0a.61.61,0,0,0-.22-.08l-.65-.21-.48-.14a4.77,4.77,0,0,0-.6-.09l-.7-.09a5.47,5.47,0,0,0-.81,0,8.82,8.82,0,0,0-4,1.12,16.5,16.5,0,0,0-4.3,3.41,46.11,46.11,0,0,0-7.55,12.1A108.12,108.12,0,0,0,234,150.33l0,.15.14.06.63.26c9.38,3.51,18.08,6.63,25.07,9.18l.14.05,0-.14,4-13.19c.46-1.56.83-2.79,1.08-3.65q.18-.6.27-1A1.76,1.76,0,0,0,265.43,141.76Z" style="fill:#263238"></path><path d="M235.34,147c0,.09,5.75,2.09,12.92,4.46s13,4.22,13,4.12-5.75-2.09-12.91-4.46S235.37,146.92,235.34,147Z" style="fill:#263238"></path><polygon points="232.31 194.97 234.47 142.96 216.12 142.96 210.95 197.76 232.31 194.97" style="fill:#263238"></polygon><g style="opacity:0.30000000000000004"><path d="M258.53,159.39a114.38,114.38,0,0,1-4.16,14.43,31.51,31.51,0,0,1-4.54,8.34,21.08,21.08,0,0,1-10.91,6.65,34.49,34.49,0,0,1-12.89.63l21.42-12.1,5.7-19.79Z"></path></g><path d="M256.07,158.28l-5.28,17.28a17.64,17.64,0,0,1-13.61,12.35l-32.39,6.15-8.81-.29,8.81-11,24.35-8.4a6.58,6.58,0,0,0,4.91-4.73l4.51-17.39Z" style="fill:#b78876"></path><path d="M215,173.05a9.49,9.49,0,0,0,.16-1.63c.05-1.15.12-2.65.21-4.47.16-3.77.35-9,.53-14.73s.3-11,.37-14.74c0-1.82,0-3.32,0-4.47a11.05,11.05,0,0,0,0-1.64,9,9,0,0,0-.15,1.63c-.06,1.15-.13,2.65-.22,4.46-.16,3.77-.35,9-.53,14.74s-.3,11-.37,14.74c0,1.82,0,3.33-.05,4.47A11.05,11.05,0,0,0,215,173.05Z" style="fill:#263238"></path><path d="M202.72,137.49a54.41,54.41,0,0,0,6.31,4,53.07,53.07,0,0,0,6.58,3.56,54.41,54.41,0,0,0-6.31-4A53.07,53.07,0,0,0,202.72,137.49Z" style="fill:#263238"></path><path d="M128.61,307.61l-.2-9.9,19-6.74.78,13.78-1.06.51c-4.77,2.25-24.39,11.12-28.05,11.45C115,317.09,128.61,307.61,128.61,307.61Z" style="fill:#0086FF"></path><g style="opacity:0.4"><path d="M122.05,312.5s-4.64,3.66-3.63,4.26,21.17-7.61,29.75-12l-.19-.39-23.44,9.78S123.1,312.13,122.05,312.5Z" style="fill:#fff"></path></g><path d="M148.26,304.24l-.29.16-.85.4L144,306.25c-2.67,1.2-6.38,2.81-10.52,4.5s-7.92,3.14-10.67,4.15l-3.27,1.17-.89.3a1.37,1.37,0,0,1-.32.09l.3-.13.88-.35,3.24-1.24c2.73-1.05,6.5-2.52,10.64-4.2s7.86-3.28,10.55-4.44l3.18-1.38.87-.37A1.32,1.32,0,0,1,148.26,304.24Z" style="fill:#263238"></path><path d="M124.66,314.41a8.26,8.26,0,0,0-1.23-1.29,7.43,7.43,0,0,0-1.59-.78,2.57,2.57,0,0,1,1.73.6A2.53,2.53,0,0,1,124.66,314.41Z" style="fill:#263238"></path><path d="M128.79,309.65c0,.05-.41-.15-.83-.45s-.74-.59-.7-.64.41.15.83.45S128.83,309.59,128.79,309.65Z" style="fill:#263238"></path><path d="M129.92,308.31c0,.06-.38,0-.8-.16s-.73-.32-.71-.38.38,0,.79.16S129.94,308.25,129.92,308.31Z" style="fill:#263238"></path><path d="M130.14,306.27c0,.06-.36.28-.87.5a2.2,2.2,0,0,1-1,.27,2.61,2.61,0,0,1,.88-.49A2.31,2.31,0,0,1,130.14,306.27Z" style="fill:#263238"></path><path d="M130,305s-.32.43-.9.72A1.94,1.94,0,0,1,128,306c0-.07.46-.22,1-.5A7,7,0,0,1,130,305Z" style="fill:#263238"></path><path d="M127.57,308.35a3.81,3.81,0,0,1-1.14.45,7.18,7.18,0,0,1-1.32.23,3.65,3.65,0,0,1-.81,0,.68.68,0,0,1-.42-.24.49.49,0,0,1,0-.53,2.24,2.24,0,0,1,2.82-.43,2.19,2.19,0,0,1,.68.6.74.74,0,0,1,.15.3,3.32,3.32,0,0,0-.91-.76,2.25,2.25,0,0,0-1.23-.24,1.93,1.93,0,0,0-1.31.65c-.13.2,0,.39.28.42a3.76,3.76,0,0,0,.75,0,9.92,9.92,0,0,0,1.29-.17C127.12,308.49,127.55,308.31,127.57,308.35Z" style="fill:#263238"></path><path d="M127.3,308.53a1.25,1.25,0,0,1-.46-.74,2,2,0,0,1,0-1,1.21,1.21,0,0,1,.71-1,.5.5,0,0,1,.56.38,1.31,1.31,0,0,1,0,.59,3.74,3.74,0,0,1-.25.9,1.74,1.74,0,0,1-.47.73s.15-.3.31-.78a4,4,0,0,0,.2-.88c.06-.3,0-.78-.31-.71s-.47.49-.56.78a2.15,2.15,0,0,0,0,.87A4,4,0,0,0,127.3,308.53Z" style="fill:#263238"></path><path d="M145.93,299.55s-.53.16-1.29.58a6.21,6.21,0,0,0-2.37,2.33,6.13,6.13,0,0,0-.75,3.24c0,.87.22,1.39.18,1.4s-.07-.12-.15-.36a5.31,5.31,0,0,1-.19-1,5.76,5.76,0,0,1,3.21-5.72,5,5,0,0,1,1-.38A1.2,1.2,0,0,1,145.93,299.55Z" style="fill:#263238"></path><path d="M141.11,293a63.57,63.57,0,0,1,3,7.22,35.38,35.38,0,0,1-1.63-3.57A32.64,32.64,0,0,1,141.11,293Z" style="fill:#263238"></path><path d="M138.79,306.39a10.7,10.7,0,0,1-2.48,1.31,10.54,10.54,0,0,1-2.67.84c0-.06,1.17-.46,2.58-1.05S138.75,306.33,138.79,306.39Z" style="fill:#263238"></path><path d="M142.25,305c.06,0,0,.28,0,.59s0,.58,0,.6-.2-.24-.19-.6S142.19,305,142.25,305Z" style="fill:#263238"></path><path d="M142.89,302.82c.06,0,0,.26-.09.52s-.24.45-.3.42,0-.25.09-.51S142.83,302.8,142.89,302.82Z" style="fill:#263238"></path><path d="M144.46,301.32c0,.07-.23.16-.45.36s-.35.41-.42.39,0-.33.27-.57S144.45,301.26,144.46,301.32Z" style="fill:#263238"></path><path d="M145.64,300.43c.05.05,0,.18-.14.3s-.26.17-.31.12,0-.18.15-.29S145.6,300.38,145.64,300.43Z" style="fill:#263238"></path><path d="M204.79,196.51l-55.73,1a17.89,17.89,0,0,0-17.42,15.71l-11,89.8h30.26l9.24-77.57H204Z" style="fill:#263238"></path><path d="M121,297.35c0,.14,6.63.3,14.81.35s14.67-.15,14.81-.17c.94-.09-6.63-.3-14.81-.35S121,297.21,121,297.35Z" style="fill:#455a64"></path><path d="M257.1,225.49c22.24-7.36,7-36.78,7-36.78l-97.22,9.14a14.07,14.07,0,0,0-14.16,14.07h0A14.06,14.06,0,0,0,166.78,226l90.32-.49" style="fill:#263238"></path><polygon points="227.38 194.29 227.1 192.19 202.22 191.21 190.01 160.42 143.49 163.58 159.19 197.76 227.38 194.29" style="fill:#455a64"></polygon><path d="M171.7,180.39a2.44,2.44,0,1,0,.76-3.36A2.44,2.44,0,0,0,171.7,180.39Z" style="fill:#fff"></path><path d="M235.44,193.68a.9.9,0,0,0-.28,0l-.82,0-3.13.13-11.52.54-38,2c-1.85.08-3.69.24-5.49.26s-3.6.1-5.35.2-3.47.22-5.15.39a19.53,19.53,0,0,0-4.9,1,11.62,11.62,0,0,0-4.07,2.47,10.13,10.13,0,0,0-2.47,3.75,18.27,18.27,0,0,0-1,4.06,27,27,0,0,0-.27,3.84,15.51,15.51,0,0,0,1.3,6.45,10.52,10.52,0,0,0,3,3.93,8.38,8.38,0,0,0,2.77,1.49c.7.2.71.14,0-.1a8.78,8.78,0,0,1-2.68-1.54,10.7,10.7,0,0,1-2.91-3.89,15.41,15.41,0,0,1-1.19-6.35,26.54,26.54,0,0,1,.3-3.78,17.7,17.7,0,0,1,1-4,9.93,9.93,0,0,1,2.39-3.58,11.46,11.46,0,0,1,3.93-2.36,18.92,18.92,0,0,1,4.78-.91c1.68-.16,3.39-.28,5.14-.38s3.52-.17,5.33-.19,3.64-.18,5.5-.26l38-2.12,11.52-.7,3.13-.22.81-.06Z" style="fill:#455a64"></path><path d="M231.69,143s2.48-24,23.92-30.25a13,13,0,0,1,4.29,2.68s-20.2-.84-25.43,27.57Z" style="fill:#263238"></path><path d="M216.29,144.16s-4.93-22.19,13-35.56a12.9,12.9,0,0,1,5,1S214,115.85,219,144.29Z" style="fill:#263238"></path><path d="M253,65.59A7.46,7.46,0,0,1,266.25,64a22.55,22.55,0,0,1,2,4.87A7.42,7.42,0,0,0,271.3,73c1.81,1,4.18.64,5.83,1.88,1.83,1.37,1.88,4.39.34,6.09a5.8,5.8,0,0,1-6.33,1.21,12.7,12.7,0,0,1,.87,4.19,4.39,4.39,0,0,1-1.83,3.7A4.28,4.28,0,0,1,266,90a10.07,10.07,0,0,1-3.14-3,10.44,10.44,0,0,1-1.06,2.89,3.6,3.6,0,0,1-2.4,1.79,3.47,3.47,0,0,1-3.22-1.59A7.93,7.93,0,0,1,255,86.55a25.58,25.58,0,0,1,.6-9.3c.47-1.94,1.14-3.93.77-5.9s-2.31-3.81-4.22-3.22" style="fill:#263238"></path><path d="M278.08,79s-.1.07-.32.15a6.64,6.64,0,0,1-1,.29,10,10,0,0,1-3.77,0,9.83,9.83,0,0,1-5-2.56,10.09,10.09,0,0,1-2-2.68,13.22,13.22,0,0,1-1.11-3.39,19.42,19.42,0,0,0-.94-3.34,5.63,5.63,0,0,0-1.9-2.45,6.21,6.21,0,0,0-5.1-1,7.47,7.47,0,0,0-3.19,1.73c-.65.58-.93,1-1,1a1.09,1.09,0,0,1,.18-.31,5.42,5.42,0,0,1,.65-.8,7.28,7.28,0,0,1,3.24-1.93,6.49,6.49,0,0,1,5.47.95,6,6,0,0,1,2.09,2.64,18.74,18.74,0,0,1,1,3.43A13.35,13.35,0,0,0,266.48,74a9.63,9.63,0,0,0,1.88,2.57,9.5,9.5,0,0,0,4.71,2.53,10.38,10.38,0,0,0,3.67.12C277.6,79.12,278.07,79,278.08,79Z" style="fill:#455a64"></path><path d="M261.3,90.76s-.1,0-.25-.16a3.36,3.36,0,0,1-.61-.63,5.85,5.85,0,0,1-1.13-3,11.75,11.75,0,0,1,.53-4.73,41.33,41.33,0,0,0,1.52-5.52,8.12,8.12,0,0,0-1-5.39A7.81,7.81,0,0,0,257,68.26a8.56,8.56,0,0,0-3-.84,8.45,8.45,0,0,1-1.15-.08,3.22,3.22,0,0,1,1.17-.12,7.84,7.84,0,0,1,3.13.71,8,8,0,0,1,3.58,3.14,8.44,8.44,0,0,1,1.14,5.71,36.53,36.53,0,0,1-1.57,5.59,12.08,12.08,0,0,0-.63,4.55,6,6,0,0,0,.93,2.93C261,90.46,261.34,90.73,261.3,90.76Z" style="fill:#455a64"></path><path d="M218.81,78.71c-5-11.54,1.85-18.57,6.31-21.09,2.65-1.5,5.8-1.81,8.85-1.89a32.84,32.84,0,0,1,9,.82,16.1,16.1,0,0,1,7.76,4.38c3.65,3.91,4.48,9.69,4.14,15a41.82,41.82,0,0,1-5.31,18A4.43,4.43,0,0,1,248,95.71a1.64,1.64,0,0,1-2.16-.39" style="fill:#263238"></path><path d="M245.72,65.24a3.25,3.25,0,0,1,2.91,3.3h0l-1.85,44c-.07,5.2-9.49,11.34-15.05,11.22h0c-5.61-.12-4.43-6.09-4-11a73.74,73.74,0,0,0-.14-11.3S220.45,100.23,219,91c-.73-4.6-.5-12.15-.11-18.32a9.78,9.78,0,0,1,10.79-9.11Z" style="fill:#b78876"></path><path d="M221.28,78.64a1.18,1.18,0,0,0,1.14,1.2,1.14,1.14,0,0,0,1.23-1.07,1.19,1.19,0,0,0-1.15-1.2A1.14,1.14,0,0,0,221.28,78.64Z" style="fill:#263238"></path><path d="M220.51,76.58c.15.15,1.05-.51,2.33-.51s2.21.64,2.35.49-.08-.35-.49-.65a3.26,3.26,0,0,0-1.89-.58,3.12,3.12,0,0,0-1.85.6C220.57,76.23,220.44,76.51,220.51,76.58Z" style="fill:#263238"></path><path d="M233.77,78.64a1.18,1.18,0,0,0,1.14,1.2,1.14,1.14,0,0,0,1.23-1.07,1.19,1.19,0,0,0-1.15-1.2A1.14,1.14,0,0,0,233.77,78.64Z" style="fill:#263238"></path><path d="M233.07,76.82c.15.15,1.05-.51,2.32-.51s2.22.64,2.36.48-.08-.34-.49-.64a3.21,3.21,0,0,0-1.89-.58,3.12,3.12,0,0,0-1.85.6C233.13,76.47,233,76.75,233.07,76.82Z" style="fill:#263238"></path><path d="M228.43,86.29a8.45,8.45,0,0,0-2.07-.37c-.33,0-.64-.1-.69-.33a1.62,1.62,0,0,1,.22-1q.45-1.18,1-2.49A43.22,43.22,0,0,0,229,75.65a41.24,41.24,0,0,0-2.69,6.3c-.32.88-.63,1.71-.92,2.5a1.83,1.83,0,0,0-.17,1.28.83.83,0,0,0,.53.48,2.51,2.51,0,0,0,.56.08A8.31,8.31,0,0,0,228.43,86.29Z" style="fill:#263238"></path><path d="M227.55,101.41A23.56,23.56,0,0,0,240,98.1s-3,6.36-12.28,5.49Z" style="fill:#aa6550"></path><path d="M229,89.37a2.33,2.33,0,0,1,2.07-.86,2.12,2.12,0,0,1,1.45.78,1.37,1.37,0,0,1,.1,1.53,1.57,1.57,0,0,1-1.68.42,4.8,4.8,0,0,1-1.63-1,1.27,1.27,0,0,1-.36-.37.42.42,0,0,1,0-.48" style="fill:#aa6550"></path><path d="M232.19,87.17c-.21,0-.21,1.38-1.4,2.36s-2.66.83-2.67,1,.33.27.95.28a3.41,3.41,0,0,0,2.24-.77,3,3,0,0,0,1.08-2C232.44,87.51,232.29,87.17,232.19,87.17Z" style="fill:#263238"></path><path d="M232.49,74.58c.13.35,1.41.18,2.9.36s2.72.59,2.91.28c.09-.15-.12-.48-.61-.81a4.75,4.75,0,0,0-2.15-.76,4.85,4.85,0,0,0-2.27.27C232.72,74.14,232.44,74.41,232.49,74.58Z" style="fill:#263238"></path><path d="M221,72.88c.23.29,1.11,0,2.16,0s2,.19,2.16-.11-.05-.44-.44-.72a3,3,0,0,0-1.76-.47,3,3,0,0,0-1.72.58C221,72.44,220.88,72.74,221,72.88Z" style="fill:#263238"></path><path d="M218.87,72.65c1.62-7.89,3.82-4.77,6.31-8.54,3.6,3.65,11.89,7.85,16.95,8.68a3.27,3.27,0,0,1,1.48.47,3.2,3.2,0,0,1,.84,2.68,34.88,34.88,0,0,0,.67,8.17,13.37,13.37,0,0,0,4,7.06c3-6.43,3.36-13.92,2-20.91-.56-2.85-1.5-5.84-3.78-7.66a12.69,12.69,0,0,0-5.78-2.19c-5.06-.93-10.41-1.16-15.22.65s-8.56,4-9.21,9.13" style="fill:#263238"></path><path d="M253.86,67.11a5.29,5.29,0,0,1-1,.56,8.21,8.21,0,0,1-1.28.52l-.82.28-.94.24a24.33,24.33,0,0,1-4.74.65A30.69,30.69,0,0,1,239.2,69a30.24,30.24,0,0,1-5.64-1.54,22,22,0,0,1-2.33-1.07l-1-.54-.9-.58a14.26,14.26,0,0,1-1.48-1.09l-.58-.48-.45-.45a4.78,4.78,0,0,1-.78-.88,43.46,43.46,0,0,0,3.49,2.59l.9.54,1,.51a24.8,24.8,0,0,0,2.3,1,31.47,31.47,0,0,0,5.56,1.48,33.34,33.34,0,0,0,5.74.41,26.07,26.07,0,0,0,4.66-.53C252.32,67.8,253.81,67,253.86,67.11Z" style="fill:#455a64"></path><path d="M251.24,60.87a3.71,3.71,0,0,1-.8.65,6.42,6.42,0,0,1-1,.64l-.67.36-.78.34a24.34,24.34,0,0,1-9.09,1.62,40.81,40.81,0,0,1-9.19-1,25.66,25.66,0,0,1-2.7-.73,3.82,3.82,0,0,1-1-.37c0-.08,1.43.31,3.74.74a47.76,47.76,0,0,0,9.1.87,26.31,26.31,0,0,0,9-1.45A35.11,35.11,0,0,0,251.24,60.87Z" style="fill:#455a64"></path><path d="M222.79,58.86c0-.06.32-.12.81,0a3.27,3.27,0,0,1,1.65,1.08,3.35,3.35,0,0,1,.76,1.83c0,.51-.09.81-.16.8a6.38,6.38,0,0,0-1-2.29C224,59.18,222.76,59,222.79,58.86Z" style="fill:#455a64"></path><path d="M270.61,68.83a1.06,1.06,0,0,1,.28-.33A2,2,0,0,1,272,68a2.9,2.9,0,0,1,1.93.43,2.48,2.48,0,0,1,1.12,2.35,3.4,3.4,0,0,1-1.77,2.63,3.52,3.52,0,0,1-3.6-.38,4,4,0,0,1-1.33-1.54,5.45,5.45,0,0,1-.49-2,36.52,36.52,0,0,0-.11-4.19,7.79,7.79,0,0,0-4.94-5.71,7.1,7.1,0,0,0-6.2.77,8.07,8.07,0,0,0-2.93,3.21c-.46.95-.56,1.53-.61,1.52a1.28,1.28,0,0,1,.05-.43,5.26,5.26,0,0,1,.38-1.17,8,8,0,0,1,5.84-4.63,7.12,7.12,0,0,1,3.63.28,8.2,8.2,0,0,1,5.29,6.07,34.37,34.37,0,0,1,.11,4.25,4.92,4.92,0,0,0,.43,1.85A3.71,3.71,0,0,0,270,72.64a3.1,3.1,0,0,0,3.13.38,3,3,0,0,0,1.61-2.28,2.14,2.14,0,0,0-.92-2.06,2.73,2.73,0,0,0-1.75-.48A2.6,2.6,0,0,0,270.61,68.83Z" style="fill:#263238"></path><path d="M246.3,73a3.67,3.67,0,0,1-1,.07c-.62,0-1.52,0-2.63,0a28.23,28.23,0,0,1-8.57-1.48,14.85,14.85,0,0,1-7-5.12,9.93,9.93,0,0,1-1.25-2.34,2.89,2.89,0,0,1-.23-.94,19.56,19.56,0,0,0,1.77,3.06,15.42,15.42,0,0,0,6.88,4.85,31.75,31.75,0,0,0,8.41,1.6A31.65,31.65,0,0,1,246.3,73Z" style="fill:#263238"></path><path d="M259.44,95.62a1.61,1.61,0,0,1-.44.88,3.41,3.41,0,0,1-2.4,1.17,5.24,5.24,0,0,1-3.71-1.4,3.33,3.33,0,0,1-1.13-2.15A2.35,2.35,0,0,1,253,91.8a1.87,1.87,0,0,1,2.46.87,1.56,1.56,0,0,1-.1,1.34,2,2,0,0,1-.91.88,2.94,2.94,0,0,1-2.2,0,4,4,0,0,1-1.59-1,4.14,4.14,0,0,1-1.17-2.4,2,2,0,0,1,.05-1c.05,0,0,.35.15.94a4.24,4.24,0,0,0,1.23,2.17,3.64,3.64,0,0,0,1.47.87,2.52,2.52,0,0,0,1.85-.05,1.36,1.36,0,0,0,.75-1.6,1.37,1.37,0,0,0-1.76-.59,1.88,1.88,0,0,0-.92,1.82,2.92,2.92,0,0,0,.95,1.83,5,5,0,0,0,3.37,1.38,3.31,3.31,0,0,0,2.26-.94C259.27,95.93,259.4,95.6,259.44,95.62Z" style="fill:#263238"></path><path d="M216.87,144c0,.06-.08.2-.06.42s.19.42.46.31.25-.36.09-.54-.32-.19-.34-.26.21-.23.57,0a.76.76,0,0,1,.37.59.77.77,0,0,1-.49.73.76.76,0,0,1-.86-.17.72.72,0,0,1-.16-.67C216.56,144,216.86,143.94,216.87,144Z" style="fill:#455a64"></path><path d="M232.87,143.69c0,.08-.21.14-.34.41a.48.48,0,1,0,.86.1c-.07-.29-.27-.4-.25-.48s.36-.08.59.34a.93.93,0,0,1,0,.82.91.91,0,0,1-.92.46.87.87,0,0,1-.6-1.45C232.55,143.53,232.89,143.63,232.87,143.69Z" style="fill:#455a64"></path><path d="M217.9,152.59s0,.53,0,1.48a14.14,14.14,0,0,0,.65,3.92,7,7,0,0,0,1.35,2.31,4.61,4.61,0,0,0,2.66,1.36,4.87,4.87,0,0,0,3.27-.45,6.27,6.27,0,0,0,2.48-2.59,16,16,0,0,0,1.7-6l.25.26c-3.58,0-6.64-.07-8.84-.12l-2.59-.07a6.8,6.8,0,0,1-1-.06,4.34,4.34,0,0,1,.86-.06l2.54-.07c2.19-.05,5.32-.1,9-.11h.26l0,.26a15.75,15.75,0,0,1-1.74,6.26,6.71,6.71,0,0,1-2.69,2.79,5.41,5.41,0,0,1-3.59.48,5,5,0,0,1-2.89-1.55,7.24,7.24,0,0,1-1.39-2.49,13,13,0,0,1-.5-4A4.73,4.73,0,0,1,217.9,152.59Z" style="fill:#455a64"></path><path d="M256.84,203a2.21,2.21,0,0,1-.77.39,8.18,8.18,0,0,1-2.31.47,9,9,0,0,1-9.63-9.88,8,8,0,0,1,.53-2.29c.21-.52.37-.78.4-.76a15.72,15.72,0,0,0-.56,3.07,8.9,8.9,0,0,0,9.25,9.49A16.28,16.28,0,0,0,256.84,203Z" style="fill:#455a64"></path><path d="M162.5,224.24c0-.14,21.7-.26,48.45-.26s48.45.12,48.45.26-21.69.26-48.45.26S162.5,224.39,162.5,224.24Z" style="fill:#455a64"></path></g><g id="freepik--Cloud--inject-54"><path d="M492,179.55s-.3,0-.91,0l-2.75,0-10.69.07-40.11.14-138.41.21h-.38l-.1-.36a34.39,34.39,0,0,1,33.93-44l-.51.66A29.25,29.25,0,0,1,331,127c.43-10.69,6.51-21,15.85-25.81a31.34,31.34,0,0,1,29.33.15l-.72.26c5-12.14,15.47-20.94,26.86-25s24.1-3.61,34.06,1.6a46.48,46.48,0,0,1,21.08,23A44,44,0,0,1,460,128.86l-.39-.44a33,33,0,0,1,16,2.29,33.66,33.66,0,0,1,11.88,8.15,21.35,21.35,0,0,1,3.75,5.37,30.74,30.74,0,0,1,2,5.7,50.74,50.74,0,0,1,1.36,10.41,59.21,59.21,0,0,1-1.24,14.4,34.07,34.07,0,0,1-1,3.63c-.28.8-.43,1.18-.43,1.18" style="fill:#0086FF"></path><g style="opacity:0.30000000000000004"><path d="M492,179.55s-.3,0-.91,0l-2.75,0-10.69.07-40.11.14-138.41.21h-.38l-.1-.36a34.39,34.39,0,0,1,33.93-44l-.51.66A29.25,29.25,0,0,1,331,127c.43-10.69,6.51-21,15.85-25.81a31.34,31.34,0,0,1,29.33.15l-.72.26c5-12.14,15.47-20.94,26.86-25s24.1-3.61,34.06,1.6a46.48,46.48,0,0,1,21.08,23A44,44,0,0,1,460,128.86l-.39-.44a33,33,0,0,1,16,2.29,33.66,33.66,0,0,1,11.88,8.15,21.35,21.35,0,0,1,3.75,5.37,30.74,30.74,0,0,1,2,5.7,50.74,50.74,0,0,1,1.36,10.41,59.21,59.21,0,0,1-1.24,14.4,34.07,34.07,0,0,1-1,3.63c-.28.8-.43,1.18-.43,1.18"></path></g><path d="M476.7,179.55s-.3,0-.92,0l-2.74,0-10.7.07-40.1.14-138.42.21h-.37l-.11-.36a34.39,34.39,0,0,1,33.94-44l-.51.66a29,29,0,0,1-1.07-9.3c.42-10.69,6.51-21,15.85-25.81a31.32,31.32,0,0,1,29.32.15l-.71.26c5-12.14,15.47-20.94,26.86-25s24.09-3.61,34.05,1.6a46.43,46.43,0,0,1,21.08,23,44,44,0,0,1,2.6,27.61l-.39-.44a32.9,32.9,0,0,1,16,2.29,33.61,33.61,0,0,1,11.89,8.15,21.31,21.31,0,0,1,3.74,5.37,30.08,30.08,0,0,1,2,5.7,50.74,50.74,0,0,1,1.36,10.41,59.12,59.12,0,0,1-1.25,14.4,32.22,32.22,0,0,1-1,3.63c-.28.8-.43,1.18-.43,1.18" style="fill:#0086FF"></path><path d="M416.82,134.89a10,10,0,0,1-.45-2.84c-.19-.9-.35-2-.67-3.27l-.57-2c-.22-.7-.54-1.41-.82-2.17a29.68,29.68,0,0,0-6.29-9.4,28.41,28.41,0,0,0-25.5-7.79,28.83,28.83,0,0,0-10.46,4.27,32.07,32.07,0,0,0-5.85,5c-.63.67-1.09,1.22-1.41,1.59s-.52.54-.56.51.06-.27.31-.69a13.47,13.47,0,0,1,1.19-1.8,26.83,26.83,0,0,1,5.69-5.54A28.65,28.65,0,0,1,382.24,106a29,29,0,0,1,26.81,8.2,29.18,29.18,0,0,1,6.28,10c.26.8.57,1.55.75,2.28s.32,1.44.47,2.09c.25,1.32.32,2.47.42,3.4A10.47,10.47,0,0,1,416.82,134.89Z" style="fill:#fafafa"></path><path d="M403.1,124.7c.26-.35,6.52,4,14,9.65l.42.31-1.21.37c3-8.62,5.76-15.41,6.16-15.27s-1.69,7.15-4.69,15.78l-.35,1-.86-.65-.41-.32C408.67,129.92,402.84,125,403.1,124.7Z" style="fill:#fafafa"></path><path d="M362.67,130.13a10,10,0,0,1,.1,2.79c.05.89.12,2,.24,3.23a29.85,29.85,0,0,0,.83,4.18,29.14,29.14,0,0,0,4.79,9.88,28.16,28.16,0,0,0,10.27,8.52l.79.4.83.33,1.63.64c.55.18,1.11.32,1.66.49a14.2,14.2,0,0,0,1.65.41,29.14,29.14,0,0,0,6.46.65,28.72,28.72,0,0,0,10.74-2.26,31.64,31.64,0,0,0,6.51-3.72c.72-.52,1.27-.95,1.64-1.25s.59-.41.63-.38-.1.25-.42.61a13.1,13.1,0,0,1-1.47,1.49,26.26,26.26,0,0,1-6.43,4.25A28.06,28.06,0,0,1,392,163.08a29.18,29.18,0,0,1-6.81-.58,13.35,13.35,0,0,1-1.74-.42c-.58-.17-1.18-.32-1.76-.51l-1.73-.67-.87-.34-.84-.43-1.67-.86c-.54-.32-1.05-.67-1.57-1a30,30,0,0,1-2.9-2.17c-.46-.37-.86-.81-1.29-1.2s-.85-.79-1.21-1.23l-1.1-1.3-.53-.64-.47-.67a28.3,28.3,0,0,1-5.33-14.83c0-1.3,0-2.42,0-3.33A9.54,9.54,0,0,1,362.67,130.13Z" style="fill:#fafafa"></path><path d="M375,141.92c-.3.31-6-4.74-12.69-11.28l-.38-.37,1.25-.21c-4.06,8.18-7.6,14.59-8,14.4s2.54-6.89,6.58-15.09l.47-1,.77.75.38.37C370.14,136.06,375.34,141.61,375,141.92Z" style="fill:#fafafa"></path><path d="M562.26,230s0-.17,0-.51l0-1.5c0-1.35,0-3.3-.05-5.81,0-5.08,0-12.44-.08-21.61l.18.17-81.39.09-90.34-.11h-.15v-.15c0-6.47.05-11.58.07-15.1,0-1.74,0-3.08,0-4,0-.44,0-.78,0-1a1.35,1.35,0,0,1,0-.35s0,.12,0,.35,0,.59,0,1c0,.93,0,2.27,0,4,0,3.52,0,8.63.07,15.1l-.15-.15,90.34-.11,81.39.08h.18v.18c0,9.17-.07,16.53-.08,21.61,0,2.51,0,4.46-.05,5.81,0,.65,0,1.14,0,1.5A4.9,4.9,0,0,1,562.26,230Z" style="fill:#0086FF"></path><path d="M310.45,224.24c-.14,0-.26-9.92-.26-22.16s.12-22.16.26-22.16.26,9.92.26,22.16S310.59,224.24,310.45,224.24Z" style="fill:#0086FF"></path></g></svg>