<?xml version="1.0" standalone="no"?>
<!DOCTYPE svg PUBLIC "-//W3C//DTD SVG 20010904//EN"
 "http://www.w3.org/TR/2001/REC-SVG-20010904/DTD/svg10.dtd">
<svg version="1.0" xmlns="http://www.w3.org/2000/svg"
 width="2000.000000pt" height="2000.000000pt" viewBox="0 0 2000.000000 2000.000000"
 preserveAspectRatio="xMidYMid meet">
<metadata>
Created by potrace 1.16, written by Peter Selinger 2001-2019
</metadata>
<g transform="translate(0.000000,2000.000000) scale(0.100000,-0.100000)"
fill="#000000" stroke="none">
<path d="M2725 14574 c-524 -99 -923 -505 -1000 -1019 -59 -394 62 -772 337
-1047 143 -144 299 -241 482 -302 119 -39 115 -30 -6 13 -118 42 -211 90 -306
158 -73 52 -179 149 -222 203 l-29 37 238 191 239 190 38 -42 c22 -23 56 -55
77 -71 l38 -30 -12 -55 c-15 -72 -25 -90 -51 -90 -20 0 -21 -1 -3 -20 20 -22
91 -47 102 -36 4 3 2 11 -5 18 -8 8 -5 23 13 57 44 83 41 81 120 60 39 -10 91
-18 117 -18 l46 -1 21 -62 c33 -103 37 -139 16 -154 -10 -8 -16 -16 -13 -19
12 -13 75 -16 102 -5 27 10 28 12 11 24 -14 10 -17 26 -16 87 1 41 3 81 5 89
2 8 7 27 10 43 4 15 13 27 20 27 21 0 147 67 173 92 27 25 49 18 107 -32 26
-23 35 -38 31 -51 -9 -28 10 -23 50 12 36 32 48 66 19 55 -16 -6 -52 30 -87
87 -17 28 -17 29 5 65 13 20 34 59 48 87 l25 50 65 3 c86 4 150 -5 150 -23 0
-27 19 -25 35 4 16 33 20 91 6 91 -5 0 -11 -5 -13 -11 -5 -14 -72 3 -154 41
l-61 27 -7 83 c-4 45 -5 84 -3 87 3 2 31 15 64 28 50 21 59 22 69 10 6 -8 14
-15 18 -15 10 0 7 54 -5 89 -11 31 -29 42 -29 17 0 -15 -70 -36 -123 -36 -29
0 -37 5 -47 30 -7 16 -27 51 -46 77 -18 26 -30 50 -26 54 4 3 121 97 259 208
l253 201 50 -67 c286 -391 294 -969 19 -1374 l-38 -56 114 -202 c62 -110 108
-201 101 -201 -6 0 -124 27 -263 61 l-251 62 -54 -33 c-29 -18 -91 -50 -138
-71 -47 -21 -78 -39 -70 -39 9 0 73 29 144 64 l129 65 265 -65 c145 -36 266
-63 268 -61 3 2 -48 97 -112 211 l-116 207 41 62 c149 230 218 506 192 779
-28 297 -147 554 -350 756 -172 170 -348 269 -585 328 -130 33 -368 41 -491
18z m400 -15 c247 -41 491 -167 662 -341 l52 -53 -181 -145 c-100 -80 -204
-163 -231 -184 -55 -44 -54 -35 5 52 25 36 32 41 49 32 33 -18 23 15 -16 55
-41 40 -58 44 -53 13 2 -16 -13 -35 -63 -77 -105 -89 -106 -89 -186 -54 l-68
31 -3 48 c-5 75 5 112 31 116 20 3 19 5 -10 21 -34 18 -93 23 -93 8 0 -5 5
-11 10 -13 15 -5 -16 -103 -43 -133 -20 -22 -30 -25 -107 -26 l-85 -2 -48 79
c-52 86 -67 126 -49 132 7 2 12 8 12 14 0 16 -89 3 -108 -16 -15 -15 -15 -16
4 -16 18 0 23 -12 37 -87 26 -132 24 -155 -15 -177 -18 -11 -43 -28 -56 -39
-21 -19 -24 -20 -55 -5 -18 9 -47 28 -65 43 -26 22 -32 33 -28 51 5 19 3 22
-11 17 -23 -8 -62 -43 -75 -67 -9 -16 -7 -18 11 -13 23 6 71 -42 98 -98 16
-33 15 -35 -15 -82 -18 -27 -37 -64 -43 -81 l-11 -32 -103 0 c-111 0 -135 5
-135 25 0 30 -21 24 -35 -9 -25 -59 -18 -105 12 -75 11 11 131 -26 187 -59 29
-17 31 -23 42 -107 7 -50 15 -104 19 -121 6 -28 2 -34 -57 -85 -99 -87 -108
-92 -130 -72 -17 15 -18 14 -18 -13 0 -31 33 -94 50 -94 5 0 10 8 10 18 0 11
16 24 43 36 64 28 127 49 133 43 5 -5 -431 -357 -444 -357 -14 0 -100 152
-137 242 -137 336 -120 698 48 1023 101 195 280 378 480 492 237 135 517 185
782 142z m-197 -724 c43 -18 82 -53 82 -72 0 -17 -30 -29 -100 -38 -30 -4 -79
-16 -109 -27 -44 -17 -51 -22 -37 -30 25 -14 37 -53 26 -83 -18 -47 -99 -46
-123 2 l-14 26 -36 -49 c-20 -27 -48 -83 -62 -124 -48 -138 -62 -151 -101 -92
-61 89 -29 263 67 367 54 59 88 83 158 111 69 29 191 33 249 9z"/>
<path d="M5770 13476 c-72 -16 -136 -49 -185 -97 l-40 -38 -45 15 c-54 19
-122 13 -177 -15 -68 -34 -124 -107 -211 -273 -44 -86 -117 -214 -160 -285
-160 -261 -208 -370 -267 -608 -26 -101 -27 -120 -22 -250 11 -275 97 -541
291 -904 89 -167 140 -287 161 -374 19 -80 19 -201 0 -263 -8 -27 -12 -57 -9
-66 8 -27 72 -23 262 15 l162 32 0 -32 0 -33 124 0 c201 0 336 38 483 136 49
33 104 80 133 115 80 96 78 99 -18 53 -181 -86 -339 -127 -554 -145 -130 -10
-141 -10 -202 11 -167 55 -321 192 -406 361 -69 135 -95 257 -112 524 -12 189
-4 446 28 865 l15 195 58 120 c72 145 135 226 221 282 131 86 168 116 186 148
l18 33 28 -39 c69 -95 177 -133 432 -154 100 -8 208 -22 241 -30 121 -32 203
-103 264 -229 95 -196 116 -312 86 -476 -35 -194 -33 -241 16 -289 24 -24 161
-107 163 -98 17 60 90 118 154 125 110 10 182 -69 190 -208 9 -152 -36 -249
-137 -296 -58 -28 -60 -31 -60 -67 -1 -55 -25 -104 -63 -127 -46 -28 -74 -25
-110 10 -17 17 -31 30 -32 28 -2 -2 -13 -32 -26 -68 -12 -36 -48 -121 -79
-190 -56 -125 -56 -125 -56 -225 0 -84 4 -107 23 -146 l22 -46 143 29 c78 16
310 65 514 108 205 44 375 80 377 80 14 0 34 145 61 427 8 88 18 175 21 192 6
27 4 30 -11 25 -14 -6 -16 -3 -10 15 6 19 -8 36 -83 109 -80 78 -92 94 -111
152 -11 36 -25 108 -31 160 -10 95 -14 480 -5 480 2 0 20 -9 39 -19 46 -27
132 -51 176 -51 105 0 221 76 257 168 52 136 -8 297 -133 357 -49 24 -161 31
-220 15 -80 -23 -154 -107 -189 -214 -4 -15 -18 2 -59 74 -101 177 -323 451
-491 608 -152 142 -382 249 -617 287 -111 18 -340 18 -418 1z m538 -107 c185
-40 330 -129 429 -266 97 -134 152 -256 237 -531 48 -156 115 -259 195 -303
25 -13 28 -18 11 -13 -34 9 -81 49 -123 104 -32 42 -107 211 -107 241 0 8 -20
71 -44 141 -104 298 -227 456 -431 556 -116 57 -212 77 -370 76 -72 -1 -119 2
-105 6 52 16 209 10 308 -11z m-112 -190 c227 -50 430 -201 523 -390 48 -99
63 -157 91 -345 35 -248 77 -324 239 -437 156 -110 219 -205 222 -337 3 -101
-17 -154 -102 -275 -117 -165 -117 -215 0 -394 77 -119 85 -217 23 -273 l-25
-23 22 31 c53 73 43 147 -36 270 -113 177 -112 234 11 407 78 111 89 141 90
242 1 72 -3 99 -21 137 -29 63 -90 127 -188 198 -178 129 -215 196 -255 475
-24 166 -40 226 -85 320 -65 135 -173 238 -330 316 -153 76 -235 93 -425 87
-151 -5 -192 -13 -356 -63 -11 -4 -8 0 6 9 35 20 139 46 240 60 112 15 244 10
356 -15z m-445 -237 c25 -6 119 -19 210 -27 280 -27 378 -64 505 -190 172
-170 246 -378 242 -673 l-1 -117 -8 155 c-15 299 -93 492 -263 647 -111 101
-227 142 -481 167 -83 8 -172 20 -197 25 -50 11 -155 58 -164 72 -2 5 21 -4
53 -20 32 -15 79 -33 104 -39z"/>
<path d="M10030 13474 c-19 -3 -68 -12 -109 -21 -65 -15 -75 -20 -85 -45 -7
-19 -17 -28 -32 -28 -32 0 -208 -63 -294 -106 -192 -94 -393 -269 -488 -424
-86 -140 -136 -286 -167 -495 -12 -81 -27 -133 -55 -196 -82 -184 -88 -248
-33 -369 41 -89 34 -117 -67 -278 -24 -37 -35 -68 -38 -105 l-4 -53 146 -23
c80 -13 146 -28 146 -32 0 -13 -26 -11 -132 6 -51 9 -107 18 -125 20 l-31 6
24 -76 c40 -125 30 -174 -62 -302 -27 -38 -42 -68 -38 -76 4 -6 25 -35 46 -63
l37 -50 -42 -107 c-45 -115 -57 -125 -97 -82 -18 19 -24 39 -28 95 -2 39 -8
68 -13 63 -4 -4 -15 -35 -23 -67 -16 -60 -16 -64 10 -210 l7 -38 49 6 c61 8
390 74 412 82 10 4 16 1 16 -8 0 -10 -50 -24 -182 -50 -101 -20 -203 -40 -228
-43 -75 -11 -82 -14 -74 -38 3 -12 18 -34 32 -49 l25 -27 -5 -158 c-7 -212 -5
-221 40 -225 l35 -3 -114 -125 c-219 -242 -351 -400 -469 -568 -35 -50 -66
-90 -68 -87 -2 2 16 148 39 324 24 176 40 323 37 327 -4 3 -40 10 -80 14 -70
8 -548 96 -554 103 -2 1 5 35 15 74 l19 72 -301 178 -302 179 -170 -125 c-508
-370 -841 -542 -974 -503 -79 24 -119 98 -130 241 -6 68 -7 72 -22 55 -9 -11
-143 -222 -297 -470 -155 -249 -290 -462 -300 -475 l-19 -22 -258 204 c-142
112 -263 207 -269 211 -7 5 -6 13 5 24 17 16 -24 74 -404 566 l-59 77 -35 218
c-18 120 -37 241 -40 269 l-6 51 67 13 c36 8 71 17 77 20 7 5 -9 81 -51 241
-33 129 -65 243 -69 255 -11 26 -585 354 -621 354 -5 0 -30 -28 -55 -62 l-45
-62 27 -28 27 -28 -25 0 c-61 -1 -159 -75 -159 -121 0 -15 -7 -19 -32 -19 -19
0 -44 -9 -60 -23 -26 -21 -58 -98 -58 -137 0 -16 -7 -20 -34 -20 -69 0 -85
-66 -36 -143 29 -46 30 -49 14 -79 -22 -42 -12 -83 38 -159 23 -35 57 -98 75
-139 l33 -74 -173 -173 -173 -173 -109 187 c-81 140 -130 211 -190 278 -121
135 -175 202 -175 216 0 7 -23 -13 -51 -44 -28 -32 -59 -62 -70 -67 -41 -22
-236 64 -544 241 -135 77 -173 90 -198 64 -40 -39 -2 -112 114 -219 69 -65 71
-67 29 -44 -138 79 -185 101 -256 122 -89 27 -116 21 -122 -27 -4 -33 59 -103
176 -195 46 -35 81 -66 80 -68 -2 -2 -49 15 -103 37 -201 80 -255 86 -255 26
1 -55 12 -64 394 -327 190 -130 256 -183 244 -196 -14 -14 -89 -24 -181 -24
l-99 0 58 68 58 67 -70 -67 -70 -68 -65 0 c-69 0 -89 -10 -89 -45 0 -23 28
-55 48 -55 15 0 16 -17 1 -26 -17 -10 -69 -96 -69 -113 0 -9 9 2 20 24 10 22
32 56 48 75 l30 34 218 -44 c185 -36 276 -60 292 -75 9 -8 -69 -127 -113 -170
-105 -106 -217 -128 -331 -67 -155 84 -382 279 -460 397 -72 108 -87 156 -90
283 -2 62 0 111 4 108 4 -2 8 15 8 38 1 26 15 70 35 112 28 57 58 93 180 214
80 80 155 163 166 185 11 22 37 94 58 160 34 107 44 126 87 171 85 90 211 126
364 104 57 -8 87 -17 91 -27 3 -9 8 -11 12 -5 9 15 81 -9 81 -27 0 -11 3 -11
14 -2 20 17 177 -53 308 -136 54 -34 98 -59 98 -55 0 22 -247 167 -325 192
-22 7 -45 19 -52 27 -6 8 -16 12 -21 9 -15 -9 -42 4 -42 21 0 12 -3 13 -15 3
-20 -17 -36 -3 -29 25 3 12 1 25 -4 29 -5 3 -12 -8 -16 -25 -4 -23 -10 -29
-23 -25 -10 3 -49 10 -88 15 -181 26 -351 -48 -422 -183 -8 -16 -26 -68 -40
-115 -35 -123 -74 -189 -156 -268 -185 -177 -205 -200 -254 -301 -26 -53 -46
-106 -44 -116 2 -15 -2 -18 -18 -13 -28 7 -27 -8 1 -27 l22 -16 -24 0 c-22 -1
-23 -2 -9 -13 10 -8 20 -42 27 -99 19 -144 101 -291 230 -409 79 -73 265 -210
337 -250 52 -29 70 -33 130 -34 59 0 78 5 123 30 62 34 149 123 188 194 l28
49 46 -23 c25 -12 73 -35 108 -49 34 -15 110 -49 168 -77 l106 -50 -34 -37
c-184 -205 -261 -295 -319 -374 -80 -108 -87 -144 -45 -226 70 -137 332 -354
591 -488 128 -67 209 -94 283 -94 75 0 85 10 167 174 l62 127 79 -98 c367
-459 829 -945 1037 -1091 99 -69 332 -180 409 -194 l68 -13 0 -150 c0 -156 12
-389 31 -633 l12 -143 -94 -973 -94 -973 -629 -6 c-346 -4 -1089 -8 -1650 -9
-906 -2 -831 -3 664 -9 927 -3 4203 -6 7280 -6 3077 0 6353 3 7280 6 1582 7
1620 7 630 9 -580 2 -1219 5 -1420 8 -201 3 -656 5 -1011 4 l-645 0 -245 503
c-232 476 -244 504 -227 517 18 15 18 22 -7 244 -14 125 -25 238 -25 251 l0
22 103 -18 c283 -49 1094 -105 1647 -114 146 -2 290 -9 320 -14 30 -5 150 -12
265 -16 l210 -7 105 -60 c432 -249 426 -246 477 -210 37 26 121 54 136 45 7
-4 50 -10 97 -13 47 -4 124 -15 171 -25 101 -21 128 -13 166 45 12 19 26 40
31 45 5 6 11 20 14 32 5 18 1 23 -23 28 -78 17 -116 107 -64 155 20 19 32 22
74 18 47 -5 50 -3 61 23 12 29 63 59 100 59 28 0 76 -25 83 -44 5 -14 10 -14
41 -1 48 20 60 19 95 -11 21 -18 31 -35 31 -54 0 -29 -33 -70 -56 -70 -6 0
-22 -8 -35 -19 l-22 -18 22 -32 c17 -24 22 -42 19 -69 -4 -30 0 -42 19 -60 17
-15 22 -28 18 -42 -6 -19 -2 -20 72 -20 61 0 85 -5 111 -20 18 -11 92 -46 165
-76 165 -70 247 -82 299 -42 29 22 41 24 93 20 55 -4 62 -2 84 22 25 26 30 64
17 116 -5 21 -1 29 26 46 29 18 33 25 31 60 -4 70 -12 82 -100 156 -109 92
-351 278 -423 325 -30 20 -72 48 -94 62 -54 35 -106 116 -106 163 0 29 6 41
26 55 25 16 31 16 108 0 44 -9 105 -17 134 -17 86 0 228 58 269 110 18 22 16
48 -7 85 -29 48 -81 65 -194 65 -100 0 -207 23 -381 81 -141 47 -383 53 -337
7 6 -6 12 -20 12 -31 0 -18 1 -18 25 2 35 27 78 35 119 21 46 -15 63 -35 46
-55 -16 -20 -114 -65 -139 -65 -16 0 -21 -6 -21 -27 -1 -107 -130 -199 -229
-165 -30 10 -31 10 -31 -16 -1 -15 -6 -39 -13 -53 l-12 -27 -179 57 c-99 31
-181 61 -183 68 -8 23 30 84 66 109 19 13 49 24 66 24 30 0 30 0 27 48 l-4 49
-716 397 c-395 219 -722 403 -729 410 -6 6 -14 30 -18 54 -6 35 -4 42 9 42 9
0 16 8 16 18 0 19 -79 364 -301 1305 -135 575 -154 644 -186 700 -93 159 -262
338 -505 536 -6 5 17 251 24 256 2 1 37 8 78 15 161 27 275 86 380 196 139
146 166 251 210 809 53 670 61 939 35 1067 -24 114 -62 220 -107 294 -29 47
-42 81 -43 110 -2 53 -45 121 -126 200 -34 32 -69 68 -78 78 -107 129 -178
180 -318 229 -85 30 -94 32 -253 32 -196 0 -257 -14 -436 -101 -146 -71 -216
-117 -304 -200 -86 -81 -213 -267 -260 -380 -52 -125 -90 -304 -90 -424 0 -79
-5 -83 -57 -50 -77 49 -133 63 -237 58 -111 -5 -186 -37 -259 -110 -55 -55
-77 -100 -77 -158 0 -52 17 -84 75 -140 75 -73 93 -125 57 -170 -14 -17 -34
-24 -91 -30 -87 -9 -125 -32 -129 -78 -5 -49 31 -66 148 -70 l97 -4 -23 -25
c-69 -74 -22 -207 83 -239 93 -28 183 -10 277 56 54 38 60 40 94 30 20 -5 58
-10 84 -10 l47 0 -5 -32 c-2 -18 -16 -175 -29 -348 -14 -173 -29 -317 -33
-321 -4 -3 -79 -18 -167 -33 -387 -68 -568 -144 -820 -344 -92 -73 -348 -325
-436 -428 -82 -97 -64 -91 -442 -160 l-248 -45 -75 80 c-41 44 -91 90 -110
102 l-35 21 50 24 c28 13 51 28 51 33 0 6 -21 61 -46 123 -67 162 -94 246 -94
290 0 38 0 38 -40 38 l-40 0 0 -59 c0 -76 -12 -107 -44 -115 -42 -10 -63 9
-81 71 -9 32 -18 65 -21 74 -4 13 -23 19 -87 24 -149 13 -415 71 -441 96 -21
19 6 20 61 1 106 -37 237 -63 346 -70 l109 -7 -6 35 c-4 19 -13 86 -22 147
l-16 113 73 118 72 119 106 6 c126 8 171 16 171 31 0 6 -18 38 -41 71 -62 92
-81 133 -99 215 l-16 75 -83 5 c-78 6 -85 8 -112 38 l-29 32 -117 -25 c-130
-28 -323 -77 -395 -99 -40 -12 -48 -13 -48 -2 0 8 6 16 14 19 17 7 356 88 469
112 48 11 77 22 77 30 0 12 152 47 207 47 27 1 31 14 39 163 12 217 -19 300
-156 425 -229 208 -249 240 -331 525 -77 271 -129 364 -286 516 -209 201 -460
308 -753 322 -52 2 -111 3 -130 1z m-210 -361 c31 -124 147 -268 266 -330 33
-18 83 -56 111 -86 52 -54 115 -165 127 -224 l7 -31 -51 15 c-41 12 -63 13
-112 4 -74 -13 -132 -40 -136 -63 -3 -16 8 -18 125 -18 70 0 145 -3 165 -6 34
-6 39 -11 54 -58 9 -28 36 -87 59 -132 79 -152 80 -232 6 -462 -40 -123 -68
-266 -58 -302 5 -19 0 -20 -75 -20 -81 0 -140 12 -281 56 -104 32 -172 31
-310 -6 -149 -39 -248 -50 -454 -50 l-173 0 0 185 c0 228 17 659 31 780 21
191 113 383 253 532 109 116 232 199 366 249 59 21 67 18 80 -33z m-6446
-2369 c47 -25 86 -47 86 -48 0 -1 -23 -69 -50 -151 -70 -207 -93 -328 -85
-430 6 -78 5 -84 -40 -204 -25 -69 -49 -130 -53 -137 -5 -8 -103 47 -315 176
l-307 188 321 326 c183 186 329 326 339 326 10 0 57 -21 104 -46z m6860 -451
c4 -60 9 -138 12 -175 l6 -68 77 0 c110 0 409 -45 514 -76 24 -7 22 -48 -8
-141 -87 -274 -309 -447 -575 -447 -176 0 -310 53 -426 169 -85 85 -144 195
-168 317 -19 94 -20 151 -1 338 8 80 15 155 15 168 l0 22 274 0 274 0 6 -107z
m-6849 -477 c19 -85 35 -157 35 -160 0 -4 -155 88 -169 100 -2 2 15 58 39 124
31 84 47 116 52 106 5 -9 24 -85 43 -170z m-1190 -144 c6 -4 39 -59 74 -122
165 -296 363 -611 415 -660 24 -22 29 -23 49 -11 20 13 25 10 66 -35 25 -27
38 -40 31 -29 -8 11 -25 32 -39 47 -13 15 -22 30 -20 33 3 2 21 -17 41 -42
l36 -47 -19 -48 c-23 -59 -112 -236 -132 -262 -48 -65 -286 21 -552 199 -150
101 -352 294 -384 369 -26 60 -26 67 -1 117 35 68 397 499 419 499 3 0 11 -4
16 -8z m8099 -1062 c115 -46 218 -92 229 -103 10 -10 31 -23 46 -27 l26 -8
-25 -1 -25 -1 -4 -156 c-3 -140 -1 -157 15 -177 l19 -22 -22 19 c-23 19 -23
19 -23 -6 0 -78 -67 -262 -130 -355 -17 -25 -30 -47 -28 -48 2 -2 42 3 89 10
257 38 466 110 584 200 66 51 93 84 106 129 5 21 12 36 14 34 10 -10 -16 -71
-45 -108 -94 -119 -354 -222 -678 -270 l-82 -13 -68 -67 c-106 -106 -236 -180
-276 -158 -13 7 -23 5 -39 -9 -12 -10 -31 -25 -42 -32 -11 -8 -3 1 18 20 l39
34 -70 48 c-38 26 -94 74 -123 106 -54 58 -54 58 -124 64 -96 8 -303 51 -400
82 -179 59 -330 157 -369 239 -85 180 144 356 578 445 73 15 97 24 124 49 26
24 70 43 194 82 144 46 158 53 142 65 -17 13 -16 13 12 3 24 -9 40 -8 75 4 24
8 46 14 49 13 3 -1 99 -40 214 -85z m-1654 -930 c39 -162 74 -315 77 -340 3
-26 -17 -220 -46 -462 l-52 -417 -60 -142 c-256 -606 -399 -1178 -425 -1696
l-6 -133 -34 0 -33 0 16 38 c25 57 29 255 9 396 -54 368 -256 915 -558 1506
l-99 196 0 109 c1 61 6 137 11 170 5 33 10 61 10 63 0 1 13 2 28 2 55 0 184
40 265 82 140 73 323 273 613 669 71 96 145 198 164 226 21 30 38 46 41 40 4
-7 39 -145 79 -307z m6406 -168 c13 -93 21 -122 31 -120 9 2 21 -18 34 -57 34
-99 104 -240 163 -325 30 -44 53 -80 50 -80 -7 0 -568 141 -571 144 -1 1 28
62 66 136 37 74 99 201 136 282 38 81 70 146 71 145 1 -1 10 -57 20 -125z
m3409 -1147 c14 -13 25 -36 25 -50 0 -19 5 -25 21 -25 28 0 79 -53 79 -82 0
-17 8 -27 31 -35 23 -9 30 -17 27 -34 -5 -33 -46 -58 -119 -72 -49 -9 -65 -16
-61 -26 13 -38 -91 -56 -149 -25 -16 8 -39 12 -50 9 -25 -8 -99 4 -99 16 0 5
7 9 15 9 53 0 76 111 33 157 -12 13 -16 23 -10 23 7 0 12 15 12 35 0 22 8 43
20 55 21 21 67 37 77 26 3 -3 19 6 35 19 38 32 82 32 113 0z m350 -342 c57
-27 61 -91 5 -79 -20 3 -36 -1 -53 -14 -53 -42 -133 -9 -109 45 14 29 68 65
99 65 12 0 38 -8 58 -17z"/>
<path d="M9337 12516 c-50 -14 -87 -40 -87 -63 0 -10 29 -13 140 -13 111 0
140 3 140 13 0 20 -33 47 -77 63 -46 16 -55 16 -116 0z"/>
<path d="M9694 12044 c-123 -257 -188 -418 -180 -447 8 -32 51 -47 130 -46
l61 1 -60 14 c-33 8 -70 16 -82 19 -13 3 -23 12 -23 20 0 8 29 79 64 157 86
194 178 426 174 439 -2 6 -40 -65 -84 -157z"/>
<path d="M9347 12060 c-50 -40 -31 -109 35 -125 37 -10 93 43 83 77 -17 58
-76 81 -118 48z"/>
<path d="M10189 12048 c-58 -20 -60 -107 -3 -128 38 -15 53 -12 79 15 31 30
32 65 3 92 -31 27 -48 32 -79 21z"/>
<path d="M9440 8459 c-173 -40 -343 -109 -438 -178 -83 -61 -120 -152 -92
-225 16 -44 91 -116 164 -159 132 -76 395 -153 600 -173 l70 -7 -21 29 c-55
78 -112 224 -132 338 -6 33 -11 135 -11 228 l0 168 -27 -1 c-16 0 -66 -10
-113 -20z"/>
<path d="M10000 8330 l0 -110 -115 0 -115 0 0 -65 0 -65 115 0 115 0 0 -110 0
-110 60 0 60 0 0 110 0 110 115 0 115 0 0 65 0 65 -115 0 -115 0 0 110 0 110
-60 0 -60 0 0 -110z"/>
<path d="M5212 12395 c-48 -15 -82 -41 -82 -62 0 -7 6 -13 13 -14 79 -3 308 1
317 6 20 12 -30 54 -84 70 -60 18 -107 18 -164 0z"/>
<path d="M6059 12370 c-67 -12 -136 -51 -123 -71 3 -5 41 -9 84 -9 44 0 125
-5 181 -11 112 -12 137 -5 105 30 -42 46 -161 76 -247 61z"/>
<path d="M5609 12015 c-89 -189 -199 -470 -199 -509 0 -52 27 -66 125 -65 91
1 89 4 -15 22 -57 9 -76 16 -78 30 -2 9 33 106 77 215 101 249 152 392 149
411 -2 8 -28 -39 -59 -104z"/>
<path d="M5152 11944 c-33 -23 -31 -86 4 -113 15 -12 37 -21 49 -21 37 0 75
37 75 74 0 63 -74 98 -128 60z"/>
<path d="M5926 11889 c-55 -43 -21 -129 50 -129 78 0 103 100 33 135 -37 20
-51 19 -83 -6z"/>
<path d="M17230 11770 c-242 -47 -438 -154 -606 -332 -161 -170 -249 -352
-289 -598 -19 -120 -19 -186 1 -317 18 -123 61 -261 109 -352 33 -62 34 -66
19 -89 -9 -14 -66 -95 -126 -180 -60 -85 -108 -156 -106 -157 2 -1 19 0 38 3
29 5 31 7 13 11 -20 6 -12 20 97 175 l118 169 -38 77 c-89 174 -127 351 -117
552 5 121 43 308 67 332 8 8 327 -104 538 -190 l32 -13 -14 -38 c-8 -21 -17
-55 -21 -76 -7 -41 -22 -51 -102 -66 -37 -7 -42 -6 -48 13 -7 20 -7 20 -15 -4
-7 -23 -5 -55 7 -90 4 -13 6 -12 14 3 7 12 22 17 52 17 65 0 87 -9 93 -39 3
-14 12 -45 19 -68 l14 -42 -56 -51 c-64 -59 -105 -82 -128 -74 -13 5 -14 2 -4
-22 18 -50 59 -83 59 -49 0 18 28 33 115 61 l70 22 62 -63 c35 -34 63 -71 63
-81 -1 -32 -38 -104 -55 -104 -40 0 4 -42 59 -56 25 -6 28 -5 22 14 -8 24 6
56 41 93 l24 26 61 -18 c33 -11 82 -19 109 -19 l50 0 37 -77 c22 -47 37 -93
37 -115 0 -43 7 -46 60 -24 35 15 47 36 21 36 -19 0 -26 32 -26 120 l0 76 38
13 c20 7 63 29 95 48 63 38 60 39 123 -20 23 -21 30 -35 26 -50 -6 -22 -5 -22
24 -3 45 29 76 76 39 63 -15 -6 -39 22 -69 81 -16 32 -16 32 24 99 22 37 40
73 40 80 0 7 6 13 14 13 15 0 497 -179 508 -189 12 -10 -84 -198 -138 -271
-132 -180 -298 -305 -514 -387 -47 -18 -79 -32 -73 -33 19 0 131 44 203 80
214 107 411 315 511 536 58 130 81 243 87 411 2 92 0 180 -7 220 -106 619
-691 1030 -1301 913z m420 -15 c213 -45 406 -149 555 -299 173 -174 275 -372
316 -610 24 -142 -10 -506 -47 -499 -5 1 -117 42 -249 92 l-240 90 93 1 c75 0
92 -3 92 -15 0 -8 4 -15 9 -15 13 0 21 27 21 73 -1 38 -2 40 -15 23 -13 -17
-16 -17 -62 -2 -26 9 -70 29 -98 44 -50 27 -50 27 -56 87 -3 33 -12 79 -19
103 -13 41 -12 43 15 72 15 16 54 47 85 69 43 30 60 37 68 29 26 -26 11 31
-15 63 l-28 32 -5 -24 c-5 -20 -21 -29 -99 -56 l-94 -31 -64 56 c-61 54 -63
59 -58 94 7 54 35 107 51 101 8 -3 14 -1 14 4 0 18 -36 43 -71 50 -30 6 -33 5
-21 -10 15 -18 2 -48 -42 -101 -24 -29 -25 -29 -73 -16 -26 6 -55 14 -65 16
-18 5 -33 57 -46 161 -7 52 -6 63 7 69 26 10 -23 25 -59 17 -35 -7 -46 -18
-25 -27 19 -7 18 -51 -3 -141 l-17 -70 -60 -16 c-33 -10 -69 -20 -81 -24 -17
-5 -30 4 -68 46 -33 36 -45 57 -41 70 9 28 -17 24 -54 -7 -33 -27 -42 -50 -16
-40 17 6 38 -21 59 -80 l14 -40 -53 -52 -52 -52 -49 15 c-101 30 -160 59 -156
78 6 28 -17 19 -38 -15 -27 -44 -27 -71 0 -63 15 5 35 -4 70 -31 27 -21 48
-39 46 -41 -3 -3 -485 175 -494 182 -9 7 74 152 127 222 169 225 438 387 699
423 43 5 91 12 107 14 49 7 215 -5 285 -19z m14 -644 c112 -55 188 -164 189
-272 1 -104 -22 -105 -98 -5 -31 41 -77 89 -103 106 l-47 31 -3 -23 c-9 -55
-64 -76 -102 -38 -22 22 -25 42 -10 71 10 18 7 19 -57 19 -37 -1 -87 -5 -110
-9 -30 -6 -48 -5 -60 4 -16 12 -16 14 0 38 75 114 256 150 401 78z"/>
<path d="M5877 11319 c-5 -17 -10 -19 -29 -12 -75 26 -147 -7 -162 -75 -8 -36
-14 -42 -35 -43 -24 -1 -24 -2 9 -17 20 -9 49 -27 64 -39 90 -71 246 35 182
122 -9 12 -12 32 -9 52 6 36 -11 46 -20 12z"/>
<path d="M6715 11269 c-29 -81 -32 -97 -23 -115 23 -43 75 -57 120 -33 25 13
48 68 48 114 0 33 -2 35 -32 35 -18 0 -50 3 -70 6 -27 5 -39 3 -43 -7z"/>
</g>
</svg>
