<?xml version="1.0" standalone="no"?>
<!DOCTYPE svg PUBLIC "-//W3C//DTD SVG 20010904//EN"
 "http://www.w3.org/TR/2001/REC-SVG-20010904/DTD/svg10.dtd">
<svg version="1.0" xmlns="http://www.w3.org/2000/svg"
 width="2000.000000pt" height="2000.000000pt" viewBox="0 0 2000.000000 2000.000000"
 preserveAspectRatio="xMidYMid meet">
<metadata>
Created by potrace 1.16, written by Peter Selinger 2001-2019
</metadata>
<g transform="translate(0.000000,2000.000000) scale(0.100000,-0.100000)"
fill="#000000" stroke="none">
<path d="M6636 16003 c-167 -35 -357 -145 -487 -279 -85 -89 -133 -185 -153
-306 l-7 -37 -37 16 c-51 21 -178 13 -255 -17 -141 -54 -317 -204 -418 -357
-42 -62 -88 -172 -114 -268 -22 -82 -31 -338 -16 -446 36 -248 142 -619 248
-866 l35 -82 31 7 c18 4 74 7 125 7 72 0 92 3 92 14 0 7 10 1 22 -15 112 -150
237 -185 303 -86 37 56 111 441 136 702 20 215 -6 467 -64 621 l-25 65 35 50
c55 77 191 210 275 270 264 187 540 191 782 10 29 -23 125 -108 213 -189 87
-81 188 -167 224 -191 211 -142 463 -215 696 -203 l101 6 7 -37 c3 -20 12 -83
19 -140 7 -56 16 -105 19 -108 3 -3 45 2 94 11 168 30 314 128 384 257 33 60
34 67 34 168 0 93 -3 112 -27 162 -31 66 -105 150 -148 168 -17 7 -30 16 -30
19 0 4 23 13 50 20 51 13 142 73 192 127 37 40 77 130 89 203 23 128 -25 263
-127 361 -70 67 -118 92 -212 111 -117 22 -192 10 -527 -86 -163 -47 -319 -58
-406 -30 -79 25 -183 83 -306 170 -140 99 -263 159 -388 190 -84 21 -123 25
-245 24 -88 0 -172 -6 -214 -16z"/>
<path d="M12655 14553 c-169 -21 -355 -93 -490 -189 -79 -56 -231 -213 -280
-289 -103 -161 -175 -389 -175 -557 0 -54 -3 -62 -64 -147 -99 -141 -180 -312
-215 -454 -6 -26 -11 -89 -11 -140 0 -103 19 -175 72 -282 44 -86 68 -161 68
-212 0 -51 -32 -177 -62 -242 -33 -72 -69 -180 -84 -251 -39 -184 8 -411 119
-575 82 -121 255 -258 404 -320 35 -15 35 -15 29 8 -91 321 -156 721 -221
1376 -29 294 -30 359 -10 513 27 206 87 385 181 535 62 99 181 219 257 258
l59 30 16 -25 c44 -67 118 -132 186 -164 75 -35 131 -50 343 -90 153 -30 242
-61 318 -112 100 -66 142 -137 176 -300 12 -55 33 -137 47 -184 24 -79 31 -90
96 -155 52 -51 102 -87 186 -134 238 -132 291 -170 348 -249 71 -101 82 -191
60 -489 -10 -140 -10 -174 4 -250 36 -205 134 -361 312 -496 44 -34 105 -81
134 -104 29 -24 70 -52 91 -63 l39 -19 12 -116 c9 -86 16 -115 26 -115 29 0
202 94 294 160 95 68 178 149 323 315 83 96 129 167 165 254 32 79 25 97 -9
22 -27 -59 -88 -161 -96 -161 -2 0 5 17 16 38 10 20 32 75 48 122 27 76 37
121 58 252 6 36 7 37 38 30 18 -4 88 -7 157 -7 l125 1 89 44 c49 24 119 69
155 101 115 99 233 286 280 445 26 89 61 288 61 352 0 62 -34 236 -60 306 -90
239 -349 416 -607 416 -159 0 -343 -77 -442 -184 l-24 -26 -39 81 c-39 81 -99
149 -249 286 -48 44 -57 58 -61 95 -8 66 -48 122 -115 159 -45 25 -63 42 -81
78 -29 60 -69 103 -136 146 -87 56 -145 73 -365 111 -321 56 -382 82 -581 249
-230 193 -373 268 -593 310 -72 14 -244 18 -322 8z"/>
<path d="M7861 14311 c-35 -22 21 -101 100 -142 89 -45 215 -44 274 3 53 42
29 60 -106 82 -52 8 -119 24 -149 34 -81 28 -104 32 -119 23z"/>
<path d="M6830 14259 c-63 -22 -163 -49 -223 -61 -59 -11 -115 -26 -124 -33
-27 -20 -8 -43 48 -59 134 -40 317 1 424 95 38 34 68 82 58 93 -14 14 -74 2
-183 -35z"/>
<path d="M7940 13995 c-78 -22 -169 -89 -148 -111 4 -3 35 4 70 16 109 39 251
37 363 -6 28 -11 16 24 -18 50 -75 57 -174 76 -267 51z"/>
<path d="M7450 13835 c49 -140 132 -349 239 -598 45 -104 81 -202 81 -218 0
-36 -9 -40 -145 -64 -96 -16 -147 -35 -94 -35 64 1 219 21 242 31 33 15 51 58
42 100 -21 97 -375 899 -396 899 -5 0 10 -52 31 -115z"/>
<path d="M6714 13927 c-68 -23 -159 -96 -141 -113 3 -3 37 6 76 20 107 38 179
43 285 16 48 -12 90 -19 93 -16 11 10 -31 48 -82 74 -60 30 -168 39 -231 19z"/>
<path d="M8053 13835 c-37 -16 -63 -60 -63 -106 0 -47 56 -99 107 -99 88 0
145 81 110 156 -11 23 -30 40 -52 50 -42 17 -61 17 -102 -1z"/>
<path d="M6852 13774 c-26 -18 -52 -65 -52 -94 0 -63 70 -118 136 -105 46 8
94 65 94 111 0 55 -53 104 -112 104 -24 0 -54 -7 -66 -16z"/>
<path d="M7225 12687 c-52 -18 -85 -35 -112 -60 -44 -40 -27 -46 55 -20 62 20
91 24 152 21 85 -5 137 -27 213 -90 52 -43 63 -44 53 -3 -10 41 -81 111 -139
135 -63 28 -166 35 -222 17z"/>
<path d="M13221 12465 c-57 -19 -151 -44 -209 -56 -152 -30 -175 -44 -129 -73
72 -48 231 -41 346 15 106 52 176 140 116 146 -11 1 -67 -14 -124 -32z"/>
<path d="M12632 12268 c-31 -105 -104 -414 -147 -621 -47 -226 -43 -258 34
-273 37 -8 221 15 221 27 0 5 -53 10 -117 11 l-118 3 -3 35 c-2 20 15 117 37
215 80 362 136 675 121 675 -4 0 -17 -33 -28 -72z"/>
<path d="M11965 12322 c-13 -14 -2 -43 26 -66 74 -63 224 -73 299 -21 42 29
69 69 57 82 -8 7 -375 12 -382 5z"/>
<path d="M13380 12154 c-70 -49 -135 -66 -247 -63 -58 2 -104 -1 -105 -7 -2
-5 20 -20 47 -34 60 -30 167 -33 227 -7 48 20 128 94 128 118 0 24 -7 23 -50
-7z"/>
<path d="M12271 12042 c-64 -31 -84 -36 -150 -36 -42 -1 -97 3 -123 7 -62 11
-65 -10 -8 -42 112 -63 272 -35 352 63 18 22 24 47 11 45 -5 0 -41 -17 -82
-37z"/>
<path d="M10400 11361 c0 -22 1006 -448 1034 -438 16 7 -119 68 -524 239 -394
166 -510 212 -510 199z"/>
<path d="M7818 10808 c-4 -181 -8 -225 -27 -292 -59 -209 -189 -403 -355 -528
-248 -187 -553 -249 -852 -173 -169 43 -306 120 -442 249 -181 172 -277 382
-301 663 -6 65 -11 121 -11 125 0 4 -73 -37 -163 -92 -136 -83 -280 -154 -847
-415 -375 -173 -715 -333 -755 -355 -248 -142 -472 -381 -600 -637 -42 -85
-415 -986 -415 -1003 0 -5 -102 -257 -226 -560 -124 -304 -224 -554 -221 -556
8 -8 272 -85 307 -89 39 -4 1662 -489 1696 -506 26 -13 30 -60 44 -478 5 -150
11 -275 13 -277 3 -3 119 19 258 48 l253 52 -49 14 c-103 27 -255 76 -251 80
3 2 40 -7 83 -22 43 -14 114 -34 158 -46 l80 -20 948 197 948 198 48 90 c87
165 125 288 137 447 l7 95 -339 6 c-187 4 -386 11 -444 17 -361 34 -914 72
-1142 79 -147 4 -271 10 -275 14 -18 18 571 -12 1137 -58 428 -35 660 -47 875
-43 l190 3 -3 117 c-2 91 0 124 12 147 35 68 111 82 165 32 68 -64 126 -240
143 -436 9 -108 8 -147 -5 -233 -20 -137 -5 -191 66 -229 29 -17 87 -18 722
-24 570 -5 699 -9 740 -21 66 -20 111 -44 118 -63 16 -41 -24 -64 -187 -106
-61 -15 -104 -29 -96 -30 8 -1 179 -2 380 -2 342 0 350 -1 125 -6 -151 -4
-227 -9 -204 -14 50 -10 72 -37 60 -70 -11 -29 -78 -78 -142 -104 -104 -41
-102 -44 21 -37 128 7 190 -7 190 -44 0 -43 -84 -87 -295 -153 -66 -21 -115
-38 -109 -39 6 0 66 11 134 25 147 30 172 31 193 7 41 -45 8 -91 -103 -147
-36 -18 -180 -75 -320 -128 -140 -52 -502 -189 -805 -304 -368 -140 -683 -252
-952 -338 -221 -71 -401 -130 -400 -132 13 -12 667 41 957 77 161 21 186 23
179 16 -17 -17 -659 -81 -959 -96 l-225 -12 -1045 -335 c-575 -185 -1048 -338
-1052 -342 -4 -3 -77 -307 -162 -676 -170 -738 -184 -799 -195 -835 l-6 -25
-1385 -5 c-1081 -4 -1302 -7 -1006 -12 468 -10 16030 -8 16426 1 230 6 154 8
-396 9 l-681 2 -10 473 c-6 259 -7 477 -3 482 19 28 103 253 130 349 81 295
100 472 107 989 l5 428 100 57 c287 166 705 440 938 617 204 155 447 394 423
415 -4 4 -53 21 -108 39 -413 134 -688 335 -827 607 -101 196 -136 387 -153
824 -21 540 -87 804 -285 1133 -33 53 -80 124 -105 157 l-47 61 -38 -60 c-64
-99 -159 -156 -316 -191 -111 -25 -254 -37 -254 -22 0 5 33 13 73 17 115 11
279 51 346 85 68 34 140 99 166 150 l16 32 -46 49 c-198 212 -457 366 -727
433 -61 15 -73 15 -125 2 -32 -9 -86 -26 -120 -40 -35 -13 -65 -21 -68 -16 -6
10 81 47 152 64 l58 13 -40 6 c-22 4 -92 11 -155 17 -179 17 -293 62 -371 146
-51 55 -70 85 -129 204 -171 341 -300 424 -656 419 -148 -2 -153 -1 -185 23
-92 69 -203 102 -313 93 -275 -21 -417 -73 -831 -306 -266 -149 -378 -195
-520 -213 l-90 -12 -7 -69 c-5 -46 -49 -202 -129 -455 l-121 -385 17 -95 c10
-52 26 -124 36 -159 10 -36 15 -60 10 -55 -9 9 -51 141 -69 214 -8 33 -9 30
-21 -45 -7 -44 -42 -239 -78 -434 l-66 -355 39 -30 c22 -17 83 -73 137 -125
53 -52 97 -91 97 -87 0 4 -24 37 -53 74 -123 156 -142 205 -94 249 59 55 95
55 175 4 127 -83 518 -459 867 -836 72 -77 152 -162 178 -190 47 -48 48 -49
31 -15 -9 19 -46 87 -82 150 -126 223 -155 287 -156 351 -1 67 21 99 89 130
75 35 126 17 195 -69 25 -31 95 -117 155 -192 569 -704 604 -752 645 -885 32
-105 69 -313 70 -394 0 -20 18 -70 45 -122 25 -48 41 -90 37 -93 -5 -3 -240
-93 -522 -201 l-514 -196 -103 103 c-57 57 -195 194 -306 306 -290 292 -478
455 -882 767 -237 183 -226 169 -207 258 8 40 19 78 24 85 14 16 64 15 121 -2
25 -7 48 -12 51 -9 2 3 -27 47 -65 99 -38 52 -69 102 -69 111 0 28 57 303 64
310 4 4 36 -22 73 -58 69 -67 66 -59 -23 63 l-42 58 14 62 c8 35 19 76 24 92
11 33 1 51 -33 62 -18 6 -752 394 -973 515 l-71 39 104 335 104 335 -59 87
c-85 128 -195 310 -238 394 -28 57 -38 90 -42 142 -2 37 -8 67 -12 67 -32 0
-262 -113 -347 -171 l-43 -29 -68 48 c-469 334 -1147 791 -1225 826 -113 49
-350 104 -697 161 -129 21 -1248 259 -1322 281 -15 4 -17 -15 -20 -208z m7004
-875 c-4 -92 11 -153 78 -307 79 -180 94 -248 95 -411 0 -107 -5 -157 -19
-210 -20 -73 -93 -242 -101 -233 -3 2 10 40 29 84 81 193 95 397 39 593 -8 29
-37 106 -63 170 -64 155 -83 231 -77 307 4 52 12 84 20 84 1 0 0 -34 -1 -77z
m-6233 -107 c-11 -12 -221 -89 -349 -129 -386 -121 -631 -173 -935 -201 -216
-20 -392 -22 -970 -12 -522 9 -646 4 -877 -35 -197 -34 -415 -102 -558 -174
-27 -14 -53 -25 -57 -25 -12 1 104 60 182 92 79 33 234 78 345 102 257 54 563
71 1009 57 804 -27 1114 0 1635 140 133 36 417 128 501 163 56 23 84 32 74 22z
m5705 -566 c-51 -243 36 -496 228 -657 54 -46 55 -55 2 -22 -59 36 -163 158
-199 234 -54 112 -68 182 -62 310 3 67 11 129 22 158 9 26 19 47 20 45 2 -2
-3 -32 -11 -68z m-705 -112 c-72 -214 -49 -449 62 -657 22 -40 38 -75 36 -77
-7 -7 -90 130 -112 185 -40 102 -50 161 -50 291 0 103 4 138 24 200 23 73 59
155 66 148 2 -1 -10 -42 -26 -90z m-5739 -719 c-254 -46 -587 -86 -945 -116
-169 -14 -321 -17 -775 -17 -342 1 -601 5 -655 12 l-90 11 95 -5 c52 -2 277
-7 500 -11 411 -6 675 2 1040 33 252 21 639 68 800 98 41 8 89 14 105 14 17 0
-17 -9 -75 -19z m9839 -189 c-39 -48 -77 -78 -139 -110 -78 -41 -145 -51 -357
-57 -181 -5 -203 -4 -203 10 0 14 22 16 188 15 278 -1 375 26 484 135 29 29
55 52 57 50 1 -1 -12 -20 -30 -43z m-7534 -736 c121 -26 224 -51 228 -55 5 -4
-23 -193 -62 -420 -175 -1022 -232 -1489 -233 -1909 -1 -356 26 -443 183 -595
123 -119 214 -190 326 -258 180 -107 303 -147 480 -154 150 -7 238 11 356 69
114 57 276 219 365 364 128 212 258 531 386 952 l52 172 83 -151 c45 -83 102
-182 126 -219 24 -38 61 -102 81 -142 l38 -73 -1 -135 c0 -146 -16 -234 -75
-425 -93 -301 -212 -573 -628 -1440 -151 -314 -230 -513 -230 -576 l0 -29
-715 0 -715 0 -4 22 c-5 25 -307 4984 -306 5032 0 24 3 27 23 23 12 -3 121
-27 242 -53z m8060 -1003 c-108 -31 -168 -70 -335 -216 -165 -144 -224 -190
-295 -230 -70 -39 -224 -99 -233 -90 -9 8 9 20 53 34 128 42 260 126 419 265
55 48 118 102 140 120 101 80 217 136 281 135 22 0 15 -5 -30 -18z m-8510
-3187 c-278 -47 -1145 -152 -1640 -198 -533 -50 -1107 -91 -1161 -83 -19 2
-11 5 21 6 94 2 734 51 1012 76 492 45 1466 159 1733 204 30 5 69 9 85 9 17 0
-6 -7 -50 -14z"/>
<path d="M10015 10769 c45 -12 902 -40 1200 -38 352 2 226 13 -390 34 -507 16
-860 19 -810 4z"/>
<path d="M11344 10476 c-186 -91 -487 -266 -458 -266 32 0 342 162 490 256 70
44 69 43 62 49 -2 3 -45 -15 -94 -39z"/>
</g>
</svg>
