<?xml version="1.0" standalone="no"?>
<!DOCTYPE svg PUBLIC "-//W3C//DTD SVG 20010904//EN"
 "http://www.w3.org/TR/2001/REC-SVG-20010904/DTD/svg10.dtd">
<svg version="1.0" xmlns="http://www.w3.org/2000/svg"
 width="150.000000pt" height="150.000000pt" viewBox="0 0 150.000000 150.000000"
 preserveAspectRatio="xMidYMid meet">
<metadata>
Created by potrace 1.16, written by Peter Selinger 2001-2019
</metadata>
<g transform="translate(0.000000,150.000000) scale(0.100000,-0.100000)"
fill="#000000" stroke="none">
<path d="M830 999 c-34 -14 -70 -49 -70 -68 0 -9 30 -49 65 -90 62 -71 85
-109 48 -80 -59 46 -198 175 -198 184 0 5 20 13 45 16 38 5 40 6 12 7 -18 1
-56 -5 -84 -15 -47 -15 -52 -15 -78 0 -45 27 -68 21 -116 -30 -88 -96 -96
-188 -23 -265 21 -23 39 -45 39 -49 0 -4 9 -5 20 -2 17 4 20 0 20 -24 0 -16
-9 -36 -20 -46 -11 -9 -20 -23 -20 -30 0 -23 37 -49 58 -43 13 4 33 -2 57 -19
21 -14 50 -25 64 -26 24 0 23 -1 -9 -12 -23 -8 -38 -21 -44 -39 -5 -15 -8 -30
-5 -32 2 -2 31 -7 64 -9 l60 -6 -57 11 c-36 6 -58 15 -58 23 0 26 31 45 73 45
31 0 38 3 27 10 -10 6 2 7 38 3 43 -5 52 -3 52 10 0 20 -71 78 -205 167 -60
40 -116 79 -122 88 -8 9 -13 11 -13 4 0 -6 17 -23 37 -37 45 -30 23 -34 -25
-5 -43 27 -76 98 -69 151 3 21 15 55 28 75 21 34 23 35 30 17 4 -12 12 -24 18
-28 6 -3 11 -15 11 -26 0 -11 26 -40 64 -71 35 -29 62 -56 60 -60 -9 -14 -38
-9 -73 13 -35 21 -73 22 -77 1 -1 -7 0 -8 3 -2 10 21 45 8 147 -56 95 -59 136
-73 136 -47 0 5 -56 52 -125 106 -69 54 -125 104 -125 111 0 8 7 19 15 26 18
15 21 13 172 -96 56 -41 106 -74 112 -74 34 0 13 33 -79 125 -72 72 -101 108
-97 119 12 31 44 14 152 -84 61 -54 116 -99 123 -99 26 -2 10 30 -53 103 -60
72 -74 106 -41 106 19 0 281 -285 331 -360 43 -64 53 -73 158 -131 62 -34 115
-64 120 -66 4 -2 7 -2 7 1 0 3 -33 23 -72 45 -55 31 -73 45 -73 62 0 32 -29
47 -57 30 -19 -12 -23 -11 -39 10 -29 37 -32 59 -14 79 16 17 20 18 38 5 33
-23 73 -19 96 11 12 15 21 34 21 44 0 25 -38 70 -60 70 -13 0 -17 6 -14 23 2
12 1 15 -2 7 -4 -8 -19 -27 -35 -42 -21 -20 -29 -36 -29 -62 0 -25 -6 -39 -22
-51 -21 -14 -24 -14 -35 2 -26 39 -289 321 -308 331 -18 9 -17 11 18 26 31 14
45 15 73 6 18 -6 36 -15 39 -20 3 -5 36 -6 73 -3 57 5 75 2 109 -16 48 -24 87
-71 101 -121 7 -24 10 -28 11 -13 1 16 8 23 29 25 22 2 28 8 30 35 3 28 -1 33
-23 39 -17 4 -32 1 -44 -10 -16 -15 -19 -14 -42 10 -45 48 -96 67 -166 61 -50
-4 -71 -1 -100 14 -42 21 -48 22 -83 8z m-202 -448 c48 -32 95 -68 105 -79 18
-20 18 -21 -2 -31 -32 -18 -103 -13 -138 9 -26 15 -33 27 -33 50 0 19 -7 34
-20 42 -25 16 -27 68 -3 68 2 0 43 -26 91 -59z"/>
</g>
</svg>
