<?xml version="1.0" standalone="no"?>
<!DOCTYPE svg PUBLIC "-//W3C//DTD SVG 20010904//EN"
 "http://www.w3.org/TR/2001/REC-SVG-20010904/DTD/svg10.dtd">
<svg version="1.0" xmlns="http://www.w3.org/2000/svg"
 width="2000.000000pt" height="2000.000000pt" viewBox="0 0 2000.000000 2000.000000"
 preserveAspectRatio="xMidYMid meet">
<metadata>
Created by potrace 1.16, written by Peter Selinger 2001-2019
</metadata>
<g transform="translate(0.000000,2000.000000) scale(0.100000,-0.100000)"
fill="#000000" stroke="none">
<path d="M15755 19382 c-4 -130 -5 -370 -2 -533 l6 -296 -40 -6 c-72 -10 -141
-80 -154 -158 -13 -74 36 -166 109 -206 18 -10 14 -34 -104 -549 -108 -474
-140 -598 -140 -543 0 7 -13 34 -29 58 l-29 43 -17 -58 c-13 -46 -18 -113 -21
-299 l-5 -240 -92 -407 c-50 -225 -94 -408 -97 -408 -3 0 -21 28 -39 63 -201
368 -361 604 -428 627 -41 14 -50 9 -56 -37 -13 -103 99 -453 318 -987 72
-176 84 -215 79 -245 -12 -66 -14 -65 -114 5 -240 166 -495 314 -543 314 -22
0 -27 -5 -27 -25 0 -59 173 -293 542 -733 70 -83 128 -154 128 -157 0 -3 -20
-5 -46 -5 l-45 0 3 -402 3 -403 31 -88 c45 -125 87 -190 189 -292 138 -138
289 -207 486 -222 l86 -6 -10 -28 c-8 -19 -8 -37 -1 -56 8 -22 6 -36 -9 -66
-17 -33 -19 -53 -15 -138 4 -73 9 -105 21 -116 20 -20 47 -10 47 17 0 26 7 25
29 -2 25 -30 51 -18 51 24 l1 33 14 -27 c24 -43 77 -48 88 -8 7 28 -10 104
-39 173 -15 35 -27 84 -28 112 -1 28 -6 57 -10 66 -6 14 5 17 77 22 303 21
552 200 664 477 48 120 53 168 53 562 0 322 -2 367 -15 370 -10 2 47 70 166
198 405 436 597 660 640 751 11 21 19 41 19 44 0 15 -63 2 -106 -22 -97 -53
-466 -327 -627 -465 -32 -28 -60 -49 -61 -47 -2 2 21 60 51 129 266 606 393
982 367 1087 -7 32 -14 39 -37 41 -25 3 -40 -8 -107 -76 -42 -44 -105 -118
-140 -164 -61 -82 -253 -366 -340 -503 l-44 -70 -9 45 c-7 37 1 102 37 320
103 621 139 1032 100 1130 -9 22 -19 40 -23 40 -4 0 -25 -19 -48 -42 -48 -51
-107 -165 -193 -378 -35 -85 -66 -158 -69 -162 -5 -6 -356 1530 -389 1700 -3
15 0 22 11 22 26 0 88 61 108 105 10 22 19 56 19 75 0 75 -71 170 -139 185
l-31 7 0 528 c0 298 -4 531 -9 534 -5 3 -12 -98 -16 -232z m223 -2100 l203
-887 -49 -135 c-27 -74 -104 -301 -171 -505 -67 -203 -125 -377 -128 -385 -3
-8 -12 17 -20 55 -133 667 -273 1307 -330 1505 l-26 93 133 573 134 574 26 0
25 0 203 -888z m-613 -1857 c4 -49 5 -88 2 -85 -2 3 -42 77 -87 165 -46 88
-92 175 -103 194 l-20 33 84 362 84 361 16 -470 c9 -258 20 -510 24 -560z
m1170 -1251 c-127 -26 -457 -63 -660 -75 -289 -17 -716 6 -871 47 -62 16 -89
30 -39 20 144 -28 546 -50 790 -42 181 6 548 35 700 55 33 5 80 9 105 9 41 0
39 -1 -25 -14z m70 -179 c-32 -12 -182 -37 -330 -54 -449 -53 -908 -51 -1229
4 -89 16 -129 37 -44 24 379 -58 849 -55 1393 11 141 16 232 23 210 15z"/>
<path d="M10414 15713 c-42 -99 -80 -327 -67 -398 l6 -29 -28 22 c-16 13 -41
44 -56 70 -79 138 -272 225 -504 225 -121 0 -198 -24 -339 -111 -201 -123
-340 -193 -411 -209 -85 -18 -179 -12 -232 16 -48 25 -112 86 -124 120 -20 50
-13 119 16 164 l26 42 -25 -28 c-67 -73 -46 -224 40 -295 64 -53 135 -74 231
-70 81 3 82 3 60 -15 -162 -127 -299 -164 -467 -128 -109 24 -197 27 -243 8
-18 -8 -49 -32 -69 -55 -46 -51 -63 -109 -50 -174 8 -43 8 -46 -9 -38 -10 6
-42 10 -72 10 -65 0 -106 -24 -152 -89 -28 -40 -30 -49 -30 -129 0 -77 3 -93
29 -139 16 -29 51 -77 78 -107 41 -47 47 -58 39 -75 -19 -34 -13 -132 9 -168
72 -119 196 -178 400 -190 93 -5 122 -2 257 26 274 56 426 126 633 288 148
116 244 182 335 233 69 38 61 28 -50 -61 -44 -35 -134 -115 -200 -178 -173
-165 -278 -246 -380 -296 -108 -54 -185 -75 -280 -76 -57 -1 -64 -3 -37 -9 48
-11 172 7 250 36 142 53 254 133 471 339 306 288 452 373 618 362 56 -4 86
-13 135 -39 61 -32 64 -35 90 -103 14 -38 42 -119 62 -179 46 -141 92 -221
166 -290 47 -43 75 -60 120 -73 57 -17 59 -19 65 -58 26 -164 92 -324 157
-379 76 -65 160 -71 172 -13 45 218 59 579 31 753 -8 51 -17 159 -20 240 -7
217 -14 288 -36 372 -26 101 -59 170 -105 222 -50 55 -168 133 -228 150 -25 7
-46 17 -46 21 0 16 107 9 174 -11 97 -30 172 -92 238 -195 40 -63 37 -59 43
-54 2 3 -8 32 -24 65 -44 92 -125 166 -221 203 -73 29 -163 37 -230 21 -30 -7
-84 -18 -120 -25 -36 -7 -75 -16 -87 -20 -40 -13 -26 17 46 99 75 83 125 125
218 181 77 46 49 45 -34 -2 -90 -50 -202 -142 -238 -196 -16 -25 -33 -43 -37
-40 -5 2 -8 51 -8 107 0 101 21 231 54 339 17 56 12 61 -10 10z m-506 -138
c154 -32 261 -82 317 -148 50 -59 43 -74 -20 -41 -94 49 -221 88 -380 115 -83
14 -256 6 -335 -15 -30 -9 -55 -14 -57 -13 -6 7 145 82 196 98 69 22 186 24
279 4z"/>
<path d="M10054 13821 c-44 -21 -131 -55 -192 -75 -71 -24 -112 -43 -112 -51
0 -26 40 -37 124 -33 67 2 93 9 147 35 72 36 149 110 149 143 0 29 -23 25
-116 -19z"/>
<path d="M8845 13670 c-12 -20 24 -58 82 -87 51 -25 69 -28 153 -28 99 0 154
17 167 52 9 23 -13 31 -106 38 -47 4 -124 13 -171 21 -102 17 -117 17 -125 4z"/>
<path d="M9512 13475 c-26 -155 -72 -546 -72 -612 0 -32 3 -41 14 -37 17 7 20
24 45 249 30 266 43 434 39 490 -3 43 -6 29 -26 -90z"/>
<path d="M10180 13469 c-57 -48 -121 -71 -214 -78 l-91 -6 29 -20 c64 -43 196
-28 267 32 26 22 59 71 59 88 0 12 -26 3 -50 -16z"/>
<path d="M9220 13363 c-45 -22 -70 -27 -135 -27 -44 -1 -100 3 -125 7 l-45 9
32 -30 c72 -69 213 -65 294 7 58 51 49 68 -21 34z"/>
<path d="M11382 13190 c-26 -72 -139 -157 -235 -175 -25 -5 -36 -12 -33 -20 2
-7 8 -34 11 -61 4 -27 41 -209 82 -404 241 -1157 227 -1083 209 -1121 -10 -20
-63 -72 -132 -127 -73 -60 -114 -100 -114 -112 0 -43 -45 -135 -99 -203 l-57
-72 12 -60 c15 -73 37 -167 59 -260 33 -133 45 -116 -160 -211 -99 -45 -207
-95 -240 -110 -33 -14 -82 -37 -110 -50 -27 -12 -75 -34 -105 -47 -63 -28
-160 -72 -208 -93 -18 -8 -37 -12 -43 -8 -6 3 -28 43 -49 88 -20 44 -56 122
-80 171 -38 81 -64 137 -128 275 -11 25 -32 71 -46 103 -14 31 -29 57 -33 57
-20 -1 -185 -69 -168 -70 17 0 27 -18 57 -107 20 -60 64 -186 97 -282 71 -202
85 -187 -114 -118 -217 76 -567 198 -615 214 -25 8 -50 20 -56 26 -7 7 -35
106 -63 221 -28 115 -57 219 -65 230 -7 12 -23 48 -35 81 -13 33 -44 98 -70
145 -26 47 -60 111 -74 144 -15 32 -42 76 -61 96 -43 48 -53 66 -66 123 -13
58 -11 68 66 343 15 54 98 179 168 253 22 24 61 52 85 62 36 16 42 23 38 42
-3 12 -21 84 -41 160 -32 121 -105 452 -141 635 -6 34 -15 65 -18 68 -3 3 -44
-32 -90 -77 -76 -75 -91 -96 -140 -199 -69 -145 -149 -356 -149 -392 1 -37 49
-107 89 -130 17 -10 54 -21 82 -25 61 -7 58 -23 -5 -23 -73 0 -150 51 -169
111 -10 30 -19 23 -39 -33 -16 -48 -47 -82 -300 -334 -184 -183 -302 -308
-338 -360 -136 -196 -316 -583 -941 -2024 -268 -618 -366 -832 -522 -1135
-151 -293 -175 -353 -231 -572 -33 -130 -94 -468 -94 -524 0 -4 28 5 63 19 53
22 77 26 164 27 56 0 106 -4 112 -10 7 -7 -21 -10 -82 -11 -86 -2 -206 -27
-245 -52 -23 -15 -33 -164 -39 -589 -3 -227 -7 -413 -8 -413 -22 0 -293 -78
-360 -104 -189 -72 -519 -237 -563 -281 -14 -14 -32 -25 -41 -25 -43 0 -368
-274 -416 -350 -13 -20 -39 -52 -59 -71 -20 -18 -66 -78 -102 -131 -72 -107
-204 -357 -204 -386 0 -10 -20 -79 -44 -153 -77 -234 -90 -320 -91 -579 l0
-224 40 -23 c22 -13 70 -33 108 -45 37 -12 64 -25 60 -29 -11 -11 -96 7 -149
30 -38 17 -44 18 -44 4 0 -49 115 -339 183 -463 88 -158 255 -388 364 -501
l54 -56 -323 -6 c-401 -9 -988 -9 -988 -1 0 3 41 55 91 116 50 60 89 111 87
113 -2 2 -45 -45 -96 -106 -52 -61 -100 -109 -110 -109 -9 0 -83 22 -163 49
l-146 48 -128 -54 -127 -53 -124 67 c-142 77 -428 296 -437 335 -3 13 -9 68
-12 123 l-7 101 120 64 121 65 92 168 c50 92 95 170 100 173 5 3 9 13 9 22 0
12 60 44 220 117 121 55 224 101 229 103 5 2 43 -45 84 -103 56 -79 114 -141
222 -241 80 -75 145 -138 145 -141 0 -2 -17 -34 -37 -71 -20 -36 -32 -63 -27
-59 5 3 25 35 44 71 l34 65 -124 118 c-176 165 -187 178 -260 286 -36 53 -69
97 -74 97 -5 0 -109 -46 -232 -102 l-223 -103 -108 -193 -107 -192 -119 -65
c-65 -36 -123 -65 -129 -65 -7 0 -8 -12 -4 -32 4 -18 11 -77 16 -131 4 -54 13
-104 19 -111 39 -47 331 -261 424 -310 59 -32 107 -60 107 -62 0 -3 -226 -3
-502 1 -277 3 -568 2 -648 -3 -99 -6 246 -9 1085 -11 677 0 2266 -4 3532 -8
2039 -6 2300 -8 2280 -21 -44 -30 -109 -98 -130 -137 -45 -86 -47 -78 247
-921 l269 -771 31 17 c48 28 134 50 194 50 66 0 154 -24 184 -51 21 -19 21
-20 3 -14 -116 41 -228 46 -329 15 -36 -11 -68 -25 -71 -29 -5 -9 217 -656
229 -669 14 -14 63 38 93 98 34 68 63 194 83 360 7 52 14 278 17 501 l5 406
272 88 c149 48 274 90 279 94 4 4 -18 54 -50 112 -159 291 -507 1058 -489
1077 3 2 16 -20 29 -49 202 -448 529 -1129 542 -1129 6 0 58 16 115 35 87 29
105 32 114 21 9 -12 93 11 516 144 l504 159 475 -216 c474 -214 567 -251 752
-298 117 -30 182 -31 249 -6 113 43 174 127 186 257 18 197 -75 381 -297 587
l-81 76 129 40 c70 22 224 69 341 105 l213 66 3052 7 c1679 5 2998 11 2932 14
-66 4 -555 7 -1087 8 -923 1 -968 2 -968 19 0 27 -28 132 -47 177 -49 115
-157 230 -247 264 -158 59 -317 48 -424 -28 l-27 -19 -1 222 c-1 437 -56 917
-169 1506 -105 539 -222 878 -440 1276 -48 88 -88 164 -89 170 -5 33 -222 366
-379 583 -128 176 -373 480 -593 735 -504 585 -532 621 -596 773 -131 315
-287 1087 -458 2268 -81 558 -84 575 -115 677 -93 297 -293 552 -565 718 -111
68 -482 249 -687 336 -160 68 -161 69 -183 114 -74 154 -249 363 -376 447 -59
40 -153 84 -206 97 -22 5 -28 2 -36 -24z m1213 -1616 c337 -30 383 -35 490
-55 179 -33 297 -105 359 -219 37 -67 28 -74 -13 -10 -63 98 -172 165 -311
194 -41 8 -219 31 -395 51 -176 20 -363 42 -415 50 l-95 14 110 -5 c61 -3 182
-12 270 -20z m-5226 -1051 c0 -167 15 -267 62 -401 127 -362 418 -625 812
-733 64 -18 115 -34 113 -36 -7 -7 -128 18 -215 44 -47 14 -128 47 -180 74
-321 164 -537 461 -601 826 -17 100 -13 373 5 373 2 0 4 -66 4 -147z m5322
-432 c215 -39 424 -127 583 -244 191 -141 357 -359 404 -531 15 -52 8 -43 -39
54 -142 295 -391 512 -724 630 -100 35 -223 63 -360 81 -94 12 -427 6 -535
-10 -30 -5 -57 -7 -59 -5 -13 11 23 21 137 36 167 23 441 18 593 -11z m-5876
-1925 c117 -31 225 -109 274 -197 l25 -44 -52 57 c-121 130 -299 195 -463 168
-84 -14 -100 -7 -33 14 62 19 184 20 249 2z m6459 -466 c29 -143 87 -453 116
-615 50 -280 101 -909 72 -891 -7 4 -12 32 -12 65 0 78 -17 298 -30 391 -6 41
-20 143 -30 225 -21 155 -42 289 -105 650 -50 283 -65 376 -64 400 1 21 11
-21 53 -225z m1405 -72 c63 -200 77 -447 36 -655 -71 -368 -306 -689 -638
-872 -99 -54 -112 -52 -18 3 317 189 556 531 625 894 38 201 26 454 -30 645
-3 9 -1 17 5 17 5 0 14 -15 20 -32z m-8688 -1509 c134 -99 275 -270 339 -414
39 -85 77 -210 85 -280 10 -80 -2 -66 -25 32 -67 280 -250 542 -484 693 -47
30 -85 58 -85 63 -1 13 102 -44 170 -94z m8449 -205 c112 -73 226 -207 279
-329 33 -74 61 -192 60 -249 0 -48 -2 -44 -29 60 -51 203 -150 363 -300 485
-91 74 -85 69 -74 69 5 0 34 -16 64 -36z m-11275 -2994 l150 -49 -264 0 c-145
-1 -262 1 -259 4 5 5 209 93 218 94 3 0 73 -22 155 -49z m5562 -52 c72 -49
105 -186 86 -358 -14 -127 -50 -209 -126 -284 -62 -62 -98 -83 -158 -91 l-44
-6 56 24 c76 32 123 71 169 141 55 80 71 140 77 282 7 153 -10 221 -68 277
-45 42 -41 48 8 15z"/>
<path d="M13080 12260 c-12 -7 -8 -10 15 -10 44 0 70 -22 115 -100 34 -59 48
-73 105 -105 73 -40 90 -63 82 -111 -9 -57 9 -99 65 -145 76 -64 80 -79 89
-344 4 -126 9 -252 10 -280 l2 -50 8 45 c11 66 11 425 -2 499 -12 78 -32 113
-82 148 -51 35 -67 69 -65 137 2 67 -7 78 -96 128 -47 26 -67 45 -96 93 -51
84 -110 121 -150 95z"/>
<path d="M13534 11917 c50 -30 106 -92 125 -137 18 -41 21 -65 19 -152 l-3
-103 40 -59 c35 -52 40 -65 38 -115 0 -31 -15 -100 -32 -156 -39 -121 -44
-255 -11 -255 5 0 4 14 -2 31 -14 39 -5 90 38 224 47 145 46 215 -6 290 -34
49 -35 52 -36 155 -1 144 -22 191 -118 261 -21 16 -46 29 -55 28 -13 0 -12 -2
3 -12z"/>
<path d="M7238 11323 c-9 -10 -84 -120 -167 -246 -153 -230 -171 -267 -186
-381 -6 -44 -15 -58 -84 -130 -82 -87 -129 -167 -195 -332 -44 -112 -84 -288
-58 -259 5 6 14 35 21 67 17 79 62 192 128 322 46 89 71 125 130 183 71 72 92
111 93 173 1 54 41 133 166 330 165 259 177 280 172 286 -3 2 -12 -4 -20 -13z"/>
<path d="M14197 8944 c-4 -4 8 -14 25 -23 56 -29 69 -57 77 -175 8 -114 18
-138 74 -180 21 -16 50 -21 146 -27 128 -8 182 -25 204 -63 6 -11 14 -65 17
-118 5 -90 8 -99 34 -127 16 -17 56 -41 89 -53 96 -37 149 -102 176 -218 l10
-45 -3 61 c-6 107 -55 172 -166 222 -98 45 -104 55 -110 177 -5 97 -7 106 -33
133 -37 38 -86 52 -202 57 -165 7 -201 38 -214 185 -5 52 -13 106 -19 120 -18
44 -86 92 -105 74z"/>
<path d="M5834 7941 c-16 -10 -42 -33 -57 -51 -71 -84 -92 -177 -70 -321 16
-111 11 -134 -51 -224 -56 -83 -71 -129 -70 -223 2 -76 0 -73 91 -243 20 -38
22 -50 13 -73 -6 -15 -19 -30 -30 -33 -11 -3 -20 -9 -20 -13 0 -13 38 1 56 21
29 32 21 89 -20 156 -88 143 -86 258 6 389 63 90 71 120 56 218 -21 135 -17
193 20 268 18 36 51 82 73 103 46 41 48 53 3 26z"/>
<path d="M2621 3911 c-2 -41 21 -154 39 -196 26 -58 74 -121 120 -154 45 -32
125 -55 254 -71 88 -11 132 -26 154 -52 6 -8 18 -46 26 -85 16 -79 47 -135 98
-178 36 -31 104 -65 128 -64 8 0 -4 7 -27 16 -56 19 -136 92 -161 147 -12 24
-24 66 -28 94 -13 104 -41 123 -204 143 -47 6 -108 17 -137 25 -134 38 -215
144 -247 319 -8 44 -15 69 -15 56z"/>
</g>
</svg>
