<?xml version="1.0" standalone="no"?>
<!DOCTYPE svg PUBLIC "-//W3C//DTD SVG 20010904//EN"
 "http://www.w3.org/TR/2001/REC-SVG-20010904/DTD/svg10.dtd">
<svg version="1.0"
    xmlns="http://www.w3.org/2000/svg" width="1170.000000pt" height="537.000000pt" viewBox="0 0 1170.000000 537.000000" preserveAspectRatio="xMidYMid meet">

    <g transform="translate(0.000000,537.000000) scale(0.100000,-0.100000)" fill="#ff4f5b" stroke="none">
        <path d="M256 5345 c-3 -9 -16 -20 -28 -25 -16 -6 -18 -9 -6 -9 9 -1 19 -7 21
-13 4 -8 6 -7 6 3 1 9 8 19 16 23 8 3 15 12 15 21 0 19 -16 20 -24 0z"/>
        <path d="M359 5321 c-23 -5 -25 -8 -13 -19 8 -7 14 -8 14 -2 0 5 6 10 14 10 8
0 18 5 21 10 7 11 4 11 -36 1z"/>
        <path d="M495 5285 c4 -11 8 -25 8 -31 0 -13 67 -17 67 -4 0 6 -11 10 -24 10
-14 0 -32 10 -42 23 -14 19 -15 19 -9 2z"/>
        <path d="M160 5279 c0 -7 -7 -20 -16 -30 -15 -17 -15 -18 5 -16 11 0 18 3 16
5 -2 3 0 13 5 23 7 12 7 20 0 24 -5 3 -10 1 -10 -6z"/>
        <path d="M438 5283 c7 -3 16 -2 19 1 4 3 -2 6 -13 5 -11 0 -14 -3 -6 -6z"/>
        <path d="M305 5244 c-15 -15 -15 -18 2 -36 22 -24 81 -21 97 5 23 38 -64 65
-99 31z"/>
        <path d="M96 5183 c-6 -14 -5 -15 5 -6 7 7 10 15 7 18 -3 3 -9 -2 -12 -12z"/>
        <path d="M168 5173 c-47 -51 -63 -114 -36 -141 51 -51 175 79 139 147 -17 32
-70 29 -103 -6z"/>
        <path d="M11216 5185 c-3 -8 -20 -24 -38 -36 -23 -14 -27 -19 -13 -17 11 1 26
-1 33 -5 7 -5 12 -3 12 6 0 8 7 20 15 27 16 14 20 40 6 40 -5 0 -11 -7 -15
-15z"/>
        <path d="M465 5170 c-11 -17 3 -57 22 -64 27 -11 40 11 23 41 -17 30 -35 39
-45 23z"/>
        <path d="M550 5176 c0 -2 7 -7 16 -10 8 -3 12 -2 9 4 -6 10 -25 14 -25 6z"/>
        <path d="M11295 5160 c-16 -7 -17 -9 -3 -9 9 -1 20 4 23 9 7 11 7 11 -20 0z"/>
        <path d="M11398 5163 c-18 -3 -25 -9 -22 -18 4 -10 12 -11 35 -3 16 5 29 14
29 19 0 5 -3 8 -7 8 -5 -1 -20 -4 -35 -6z"/>
        <path d="M29 5152 c9 -6 12 -22 9 -45 -4 -34 -3 -34 18 -18 12 9 18 18 14 21
-4 3 -9 14 -11 25 -3 11 -13 21 -24 23 -15 2 -17 1 -6 -6z"/>
        <path d="M322 5144 c-63 -44 15 -185 112 -201 29 -4 37 -1 51 21 23 35 14 81
-27 130 -27 33 -80 66 -105 66 -5 0 -19 -7 -31 -16z"/>
        <path d="M11480 5141 c0 -5 4 -12 10 -16 5 -3 6 -13 3 -22 -5 -12 -3 -14 8 -8
8 5 26 8 41 6 19 -2 28 2 28 12 0 10 -7 13 -20 10 -11 -3 -31 2 -45 11 -14 9
-25 12 -25 7z"/>
        <path d="M578 5109 c-5 -16 29 -56 39 -45 4 4 3 10 -3 14 -6 4 -15 16 -21 26
-8 14 -12 15 -15 5z"/>
        <path d="M11126 5085 c-3 -8 -1 -15 4 -15 6 0 10 7 10 15 0 8 -2 15 -4 15 -2
0 -6 -7 -10 -15z"/>
        <path d="M11273 5084 c-19 -8 -16 -32 5 -43 22 -12 67 8 67 29 0 15 -48 24
-72 14z"/>
        <path d="M56 5037 c3 -10 9 -15 12 -12 3 3 0 11 -7 18 -10 9 -11 8 -5 -6z"/>
        <path d="M11066 5037 c3 -9 0 -26 -6 -39 -10 -18 -10 -21 0 -11 7 6 20 9 29 5
13 -5 14 -3 3 10 -7 9 -11 21 -10 28 2 7 -3 15 -10 17 -7 3 -10 -1 -6 -10z"/>
        <path d="M11567 5019 c-3 -10 -2 -18 2 -17 3 1 14 -2 24 -7 27 -12 28 -2 2 21
-22 20 -24 20 -28 3z"/>
        <path d="M614 5015 c-4 -8 -13 -15 -22 -15 -12 0 -13 -3 -4 -12 7 -7 12 -20
12 -29 0 -19 26 -33 35 -19 4 6 1 10 -5 10 -8 0 -11 14 -8 40 4 42 1 50 -8 25z"/>
        <path d="M206 4989 c-32 -38 -34 -75 -5 -84 41 -13 102 57 86 99 -10 27 -53
19 -81 -15z"/>
        <path d="M11130 4988 c-24 -39 -25 -61 -5 -78 32 -26 94 45 80 91 -10 32 -52
24 -75 -13z"/>
        <path d="M11298 5000 c-41 -22 -78 -64 -78 -90 0 -24 41 -59 78 -66 79 -16
192 52 192 114 0 21 -7 36 -22 46 -32 23 -124 20 -170 -4z"/>
        <path d="M66 4951 c10 -10 22 -16 27 -14 10 6 -18 33 -34 33 -8 0 -5 -7 7 -19z"/>
        <path d="M10987 4944 c-3 -4 1 -17 9 -29 9 -14 13 -34 9 -51 -5 -27 -5 -28 6
-6 7 12 16 22 20 22 8 0 -18 57 -30 65 -5 2 -11 2 -14 -1z"/>
        <path d="M11610 4935 c0 -5 5 -17 10 -25 5 -8 10 -10 10 -5 0 6 -5 17 -10 25
-5 8 -10 11 -10 5z"/>
        <path d="M300 4905 c-18 -22 5 -45 45 -45 40 0 63 23 45 45 -7 8 -27 15 -45
15 -18 0 -38 -7 -45 -15z"/>
        <path d="M555 4910 c-4 -6 -9 -8 -13 -6 -4 2 -8 -9 -9 -25 -1 -16 2 -29 7 -29
6 0 10 10 10 23 0 13 5 28 12 35 7 7 9 12 6 12 -4 0 -10 -5 -13 -10z"/>
        <path d="M11643 4860 c-3 -11 -13 -20 -22 -20 -14 -1 -14 -2 2 -11 9 -5 17
-18 17 -28 0 -11 6 -21 14 -24 22 -8 27 4 9 21 -10 10 -13 26 -10 49 6 36 -2
46 -10 13z"/>
        <path d="M11480 4850 c-21 -21 -28 -84 -10 -95 34 -21 86 68 60 100 -16 20
-26 19 -50 -5z"/>
        <path d="M86 4853 c-13 -13 -5 -21 14 -16 12 3 29 -2 39 -11 18 -16 19 -16 17
6 -1 18 -7 23 -33 25 -17 1 -34 -1 -37 -4z"/>
        <path d="M11136 4844 c-34 -33 -10 -122 46 -169 77 -65 138 8 88 105 -34 67
-100 99 -134 64z"/>
        <path d="M475 4829 c-11 -16 -1 -19 13 -3 7 8 8 14 3 14 -5 0 -13 -5 -16 -11z"/>
        <path d="M223 4807 c-32 -14 -28 -22 11 -22 29 0 32 2 23 15 -6 8 -11 16 -12
16 0 1 -10 -3 -22 -9z"/>
        <path d="M11015 4800 c-3 -5 -2 -10 4 -10 6 0 17 -12 24 -26 13 -24 14 -25 19
-8 6 22 -36 61 -47 44z"/>
        <path d="M404 4792 c3 -5 -4 -16 -15 -25 -11 -10 -17 -22 -14 -27 3 -5 16 2
30 16 13 13 30 24 37 25 7 0 4 4 -7 9 -26 11 -37 12 -31 2z"/>
        <path d="M11332 4788 c-16 -16 -15 -53 3 -87 24 -47 80 -57 91 -17 16 65 -55
143 -94 104z"/>
        <path d="M5130 4760 c-465 -40 -914 -134 -1370 -287 -300 -100 -723 -282 -969
-416 -57 -31 -105 -57 -107 -57 -1 0 -19 28 -40 63 -21 34 -46 75 -57 90 l-20
29 -42 -79 c-23 -43 -79 -145 -123 -226 l-81 -149 257 8 c141 3 258 8 260 9 1
1 -23 43 -54 94 -31 51 -55 93 -53 95 17 15 326 169 453 226 509 230 1011 384
1507 464 338 55 419 61 829 61 405 0 514 -8 795 -56 547 -95 1077 -288 1526
-556 75 -44 108 -69 96 -71 -15 -3 -18 -11 -15 -40 3 -35 2 -37 -24 -34 -31 3
-36 -12 -14 -44 19 -27 10 -78 -13 -69 -129 50 -500 142 -701 174 -301 49
-717 68 -977 47 -75 -7 -94 -5 -97 5 -2 8 -9 53 -16 101 l-12 86 -188 -146
c-103 -81 -185 -150 -181 -154 8 -9 434 -178 438 -174 2 2 -3 45 -11 97 -7 52
-13 95 -12 96 1 1 67 8 147 14 183 14 656 6 839 -15 233 -27 455 -69 677 -127
59 -16 80 -25 76 -35 -3 -8 -14 -14 -24 -14 -11 0 -22 -7 -26 -16 -4 -11 -13
-14 -30 -9 -14 3 -31 1 -39 -6 -19 -16 -18 -49 2 -49 20 0 43 -28 44 -52 0 -9
9 -20 20 -23 11 -3 20 -11 20 -16 0 -6 15 -16 33 -24 28 -12 34 -11 49 2 16
14 20 14 43 -1 29 -19 32 -42 9 -68 -14 -14 -14 -21 -4 -32 6 -9 9 -27 6 -43
-5 -25 -2 -30 37 -48 23 -11 49 -19 56 -18 8 1 28 -9 44 -23 16 -13 33 -24 39
-24 5 0 23 -11 39 -25 28 -23 35 -24 121 -20 55 2 97 0 105 -6 9 -8 23 -2 50
19 52 41 98 50 115 23 7 -12 20 -21 29 -21 21 0 56 -39 64 -72 5 -18 1 -37
-11 -58 -15 -25 -16 -32 -5 -39 28 -18 -98 -610 -209 -976 -190 -630 -444
-1091 -789 -1435 -330 -329 -686 -506 -1186 -589 -460 -77 -912 -43 -1284 96
-420 157 -787 436 -1121 855 -75 93 -200 264 -200 273 0 2 36 25 80 52 44 26
80 50 80 53 0 3 -73 46 -162 95 -90 49 -180 99 -200 112 -21 13 -41 23 -45 23
-7 0 -5 -471 2 -478 1 -2 31 14 66 36 117 71 93 80 212 -81 367 -498 749 -812
1212 -995 394 -156 842 -199 1330 -126 446 66 804 218 1117 475 123 101 280
266 386 407 384 511 655 1257 736 2026 14 140 20 164 32 130 4 -10 14 -27 22
-36 18 -21 54 -24 46 -4 -5 14 23 26 65 26 14 0 32 7 42 16 15 14 20 14 47 0
16 -8 36 -26 46 -40 13 -20 22 -24 44 -20 32 5 43 -2 59 -36 10 -22 12 -23 12
-4 1 28 20 44 53 44 15 0 31 7 36 16 7 12 19 4 67 -48 281 -303 492 -706 605
-1153 21 -82 41 -166 44 -186 l6 -36 -104 -12 -105 -13 127 -167 c70 -91 138
-181 152 -199 l26 -32 96 230 c78 187 92 230 78 230 -9 0 -54 -5 -99 -11 -45
-6 -85 -9 -87 -6 -3 3 -21 67 -39 144 -115 474 -328 862 -656 1198 -38 39 -69
74 -69 78 0 4 11 7 25 7 32 0 115 85 115 118 0 13 8 40 18 61 25 51 19 111
-12 111 -20 1 -20 1 -2 15 16 12 17 17 6 30 -7 8 -21 15 -31 15 -10 0 -21 5
-24 10 -4 7 3 8 21 4 l29 -7 -30 32 c-17 18 -43 46 -59 62 -36 37 -30 71 17
96 l32 16 -35 10 c-24 6 -41 5 -53 -3 -16 -9 -22 -8 -34 9 -8 12 -22 21 -32
21 -41 0 -39 21 5 66 40 40 73 56 75 37 3 -32 9 -66 12 -69 6 -6 97 84 97 96
0 10 13 14 37 11 6 -1 21 12 33 29 12 17 26 28 31 25 18 -11 9 22 -11 40 -15
14 -17 22 -9 37 7 13 18 18 30 15 13 -4 19 0 19 12 0 15 -18 80 -25 89 -1 1
-21 -4 -44 -13 -41 -14 -71 -12 -71 6 0 15 -63 49 -90 49 -18 0 -49 21 -98 66
-75 68 -109 84 -179 84 -44 0 -66 -14 -35 -22 14 -4 18 -14 16 -52 -2 -53 -19
-79 -45 -71 -16 5 -19 1 -19 -23 0 -26 3 -29 29 -28 16 1 33 5 37 8 8 9 84
-31 84 -44 0 -4 0 -11 0 -15 0 -5 -8 -8 -18 -9 -9 -1 -27 -2 -39 -3 -13 0 -23
-8 -23 -16 0 -9 -8 -18 -17 -22 -10 -3 -26 -13 -36 -21 -14 -12 -22 -13 -42
-4 -24 11 -36 0 -15 -13 36 -22 -20 -85 -77 -85 -19 0 -48 -7 -64 -16 -17 -8
-35 -14 -41 -12 -6 2 -21 42 -35 88 -66 231 -150 377 -307 534 l-109 109 32
65 c18 35 30 66 28 68 -2 2 -90 1 -196 -3 -166 -5 -191 -8 -186 -21 9 -23 199
-322 205 -322 3 0 21 28 39 63 19 34 36 64 37 66 2 2 25 -14 51 -35 129 -105
255 -256 326 -391 44 -84 90 -203 82 -211 -3 -3 -27 2 -53 11 -28 10 -76 17
-119 17 -69 0 -73 1 -117 40 -29 24 -60 41 -84 45 -79 12 -97 20 -100 43 -5
30 -59 82 -86 82 -13 0 -31 9 -41 20 -22 24 -35 26 -35 5 0 -8 -4 -15 -9 -15
-4 0 -6 -12 -3 -26 3 -15 1 -25 -4 -23 -5 2 -68 40 -139 85 -581 363 -1187
577 -1870 660 -144 18 -693 27 -845 14z"/>
        <path d="M11593 4745 c-3 -9 -3 -18 -1 -21 3 -3 8 4 11 16 6 23 -1 27 -10 5z"/>
        <path d="M11070 4696 c0 -2 7 -7 16 -10 8 -3 12 -2 9 4 -6 10 -25 14 -25 6z"/>
        <path d="M11525 4647 c0 -17 6 -32 13 -35 8 -2 10 2 6 13 -4 8 1 24 10 34 16
17 16 19 -6 19 -19 0 -23 -6 -23 -31z"/>
        <path d="M11086 4623 c-13 -13 -5 -20 24 -20 16 0 39 -8 49 -17 20 -18 20 -18
9 10 -8 23 -17 29 -43 31 -18 1 -36 -1 -39 -4z"/>
        <path d="M11443 4593 c4 -6 0 -16 -8 -23 -16 -13 -21 -50 -6 -50 5 0 11 9 14
20 3 11 20 27 39 35 26 11 28 14 11 15 -12 0 -29 3 -39 7 -11 4 -15 3 -11 -4z"/>
        <path d="M11210 4586 c0 -2 9 -6 20 -9 11 -3 18 -1 14 4 -5 9 -34 13 -34 5z"/>
        <path d="M11308 4570 c-10 -9 -18 -21 -18 -25 0 -5 5 -4 12 3 7 7 23 12 38 13
15 0 19 3 10 6 -8 3 -17 9 -20 13 -3 4 -13 -1 -22 -10z"/>
        <path d="M4486 4161 c-11 -4 -15 -10 -9 -14 5 -3 19 0 29 8 20 15 11 18 -20 6z"/>
        <path d="M4376 4123 c-6 -14 -5 -15 5 -6 7 7 10 15 7 18 -3 3 -9 -2 -12 -12z"/>
        <path d="M4310 4094 c0 -11 -5 -25 -11 -31 -9 -9 -7 -11 8 -7 12 3 19 13 18
25 -2 26 -15 37 -15 13z"/>
        <path d="M4390 4080 c-23 -23 -19 -40 9 -40 22 0 55 35 46 49 -10 17 -33 13
-55 -9z"/>
        <path d="M4495 4090 c-9 -15 4 -30 26 -30 23 0 26 25 3 34 -21 8 -22 8 -29 -4z"/>
        <path d="M4588 4093 c7 -3 16 -2 19 1 4 3 -2 6 -13 5 -11 0 -14 -3 -6 -6z"/>
        <path d="M4630 4056 c0 -16 28 -42 36 -33 3 3 -4 15 -15 26 -14 14 -21 17 -21
7z"/>
        <path d="M4440 4032 l-25 -20 21 -29 c26 -35 83 -51 119 -35 38 17 42 40 13
69 -35 34 -95 41 -128 15z"/>
        <path d="M4291 4004 c0 -11 3 -14 6 -6 3 7 2 16 -1 19 -3 4 -6 -2 -5 -13z"/>
        <path d="M4346 3998 c-30 -43 -11 -118 29 -118 44 0 57 86 19 124 -21 21 -30
20 -48 -6z"/>
        <path d="M4640 3971 c0 -6 4 -13 10 -16 6 -3 7 1 4 9 -7 18 -14 21 -14 7z"/>
        <path d="M4430 3905 c-12 -32 4 -68 28 -63 25 5 24 81 0 86 -12 2 -21 -6 -28
-23z"/>
        <path d="M4526 3904 c-20 -19 -20 -33 -1 -40 20 -8 45 13 45 37 0 23 -23 25
-44 3z"/>
        <path d="M4287 3886 c10 -13 20 -20 21 -15 5 12 -17 39 -30 39 -5 0 -1 -11 9
-24z"/>
        <path d="M4630 3872 c-18 -8 -25 -38 -10 -47 5 -3 10 2 10 12 0 11 5 24 12 31
13 13 11 14 -12 4z"/>
        <path d="M4368 3813 c7 -3 16 -2 19 1 4 3 -2 6 -13 5 -11 0 -14 -3 -6 -6z"/>
        <path d="M4450 3790 c0 -5 -7 -10 -15 -10 -8 0 -15 -4 -15 -9 0 -4 11 -6 24
-4 16 3 23 10 19 19 -6 16 -13 18 -13 4z"/>
        <path d="M4505 3790 c-3 -5 -2 -10 4 -10 5 0 13 5 16 10 3 6 2 10 -4 10 -5 0
-13 -4 -16 -10z"/>
        <path d="M8470 3010 c-6 -11 -8 -20 -6 -20 3 0 10 9 16 20 6 11 8 20 6 20 -3
0 -10 -9 -16 -20z"/>
        <path d="M8380 2878 c-88 -120 -281 -323 -395 -415 -175 -141 -374 -259 -570
-336 -96 -39 -303 -100 -372 -112 l-43 -7 0 40 c0 21 -3 66 -6 100 l-7 60
-196 -130 c-108 -72 -198 -132 -200 -134 -3 -3 414 -214 425 -214 4 0 4 44 1
99 l-6 98 108 26 c426 101 851 381 1151 757 85 108 199 270 188 270 -2 0 -37
-46 -78 -102z"/>
        <path d="M1347 2574 c-38 -20 -34 -58 6 -62 15 -2 32 -12 37 -22 9 -17 5 -23
-27 -43 -38 -25 -114 -103 -107 -110 2 -2 -1 -18 -7 -36 -14 -40 -47 -39 -67
2 -25 51 -65 24 -60 -40 2 -30 7 -39 25 -41 15 -2 23 3 28 18 5 15 13 20 28
18 19 -3 23 -12 29 -60 4 -32 12 -67 18 -78 9 -16 8 -22 -5 -26 -8 -4 -22 -1
-30 6 -22 18 -45 6 -38 -22 8 -32 22 -48 44 -48 13 0 19 7 19 24 0 14 4 27 9
30 8 5 71 -65 71 -79 0 -16 -28 -31 -59 -30 -45 0 -49 -18 -13 -55 48 -48 100
-33 72 20 -10 18 -9 25 4 38 14 14 19 14 56 -3 22 -10 40 -21 40 -24 0 -9 -20
-37 -20 -28 0 4 -9 3 -21 -3 -20 -11 -20 -12 -3 -31 24 -26 74 -26 74 1 0 11
-4 20 -10 20 -5 0 -10 8 -10 18 0 15 11 17 85 18 76 1 85 -1 91 -19 4 -13 1
-23 -10 -29 -9 -5 -16 -20 -16 -33 0 -20 5 -25 25 -25 35 0 74 20 81 43 7 21
-9 37 -38 37 -14 0 -38 27 -38 43 0 3 13 10 29 16 15 7 43 27 61 46 36 37 63
37 54 0 -9 -36 16 -42 43 -11 37 43 26 79 -18 56 -33 -18 -41 1 -22 48 14 37
20 43 42 40 18 -2 27 -10 29 -26 2 -13 11 -26 19 -29 23 -9 43 24 43 69 0 50
-22 59 -55 24 -29 -31 -55 -25 -55 13 0 14 -3 36 -6 49 -5 17 -2 22 14 22 11
0 22 -7 26 -15 3 -8 12 -15 21 -15 20 0 21 63 0 80 -18 15 -35 5 -35 -21 0
-37 -36 -22 -50 21 -7 21 -26 51 -41 66 -27 25 -28 29 -13 45 11 13 25 16 50
12 30 -5 34 -3 34 16 0 28 -43 71 -70 71 -25 0 -35 -22 -21 -48 7 -14 7 -24
-3 -37 -12 -16 -17 -17 -45 -6 -17 8 -31 16 -31 20 0 4 -10 8 -22 8 -47 4 -67
13 -62 28 3 8 14 17 25 20 41 13 15 45 -37 45 -30 0 -44 -29 -21 -42 31 -17
18 -35 -33 -45 -48 -10 -51 -9 -56 14 -4 15 0 31 11 43 38 42 -10 65 -68 34z"/>
        <path d="M1604 2514 c3 -9 6 -17 6 -19 0 -2 9 -1 20 2 24 6 26 19 4 27 -26 10
-36 7 -30 -10z"/>
        <path d="M1253 2464 c-29 -30 -21 -47 25 -48 26 -1 28 2 29 37 2 45 -16 49
-54 11z"/>
        <path d="M10631 2453 c-7 -8 -11 -16 -8 -19 2 -2 10 2 17 11 17 20 9 27 -9 8z"/>
        <path d="M10550 2449 c0 -7 -7 -20 -15 -29 -13 -14 -12 -16 5 -16 10 0 17 2
15 4 -2 3 0 13 5 23 7 12 7 20 0 24 -5 3 -10 1 -10 -6z"/>
        <path d="M10742 2443 c12 -15 44 -17 52 -4 3 5 -10 11 -29 13 -27 3 -32 1 -23
-9z"/>
        <path d="M1757 2391 c-3 -13 1 -21 14 -24 24 -6 30 2 18 24 -13 24 -25 24 -32
0z"/>
        <path d="M10620 2392 c-42 -34 11 -60 55 -28 16 12 17 16 6 30 -17 21 -34 20
-61 -2z"/>
        <path d="M1212 2378 c-18 -18 -15 -41 4 -34 9 3 18 6 20 6 8 0 4 29 -4 34 -5
3 -14 0 -20 -6z"/>
        <path d="M10492 2375 c4 -4 3 -16 -3 -26 -7 -15 -6 -17 6 -13 18 7 20 30 3 40
-7 4 -10 4 -6 -1z"/>
        <path d="M10730 2361 c0 -6 10 -17 22 -25 27 -19 48 -5 28 19 -14 16 -50 21
-50 6z"/>
        <path d="M10836 2341 c-3 -5 3 -11 15 -14 16 -4 18 -3 8 9 -13 16 -16 17 -23
5z"/>
        <path d="M10552 2333 c-18 -7 -42 -57 -42 -87 0 -39 11 -56 35 -56 33 0 65 45
65 89 0 50 -20 69 -58 54z"/>
        <path d="M10640 2315 c-37 -45 78 -143 136 -116 62 28 -5 131 -85 131 -23 0
-44 -6 -51 -15z"/>
        <path d="M10874 2283 c-12 -20 3 -43 28 -43 9 0 10 2 2 8 -7 4 -14 17 -15 30
-4 21 -5 21 -15 5z"/>
        <path d="M10438 2248 c7 -7 12 -20 12 -30 0 -15 3 -16 13 -6 11 10 11 15 -2
30 -8 10 -20 18 -25 18 -6 0 -5 -5 2 -12z"/>
        <path d="M10601 2191 c-14 -26 -14 -68 1 -77 16 -10 60 44 56 70 -4 29 -43 34
-57 7z"/>
        <path d="M1170 2181 c0 -26 17 -35 34 -18 12 11 11 15 -5 25 -25 16 -29 15
-29 -7z"/>
        <path d="M10854 2189 c-3 -6 -1 -16 4 -21 8 -8 11 -5 9 11 -1 24 -3 25 -13 10z"/>
        <path d="M10703 2160 c-42 -17 -23 -57 21 -46 28 7 42 36 24 48 -16 9 -17 9
-45 -2z"/>
        <path d="M10506 2116 c10 -8 21 -12 24 -10 5 6 -21 24 -34 24 -6 0 -1 -6 10
-14z"/>
        <path d="M10786 2078 c2 -4 0 -9 -6 -13 -13 -8 -13 -25 0 -25 6 0 10 6 10 13
0 8 10 19 23 24 21 10 21 11 -5 9 -14 0 -24 -4 -22 -8z"/>
        <path d="M10563 2062 c-13 -2 -23 -7 -23 -12 0 -5 6 -7 14 -4 8 3 25 0 38 -7
22 -12 22 -11 8 7 -8 10 -14 19 -15 19 0 1 -10 -1 -22 -3z"/>
        <path d="M10651 2053 c-16 -17 -12 -23 11 -14 10 3 14 11 10 17 -5 9 -11 8
-21 -3z"/>
        <path d="M1687 1966 c-3 -8 -3 -17 0 -20 8 -7 43 12 43 24 0 15 -37 12 -43 -4z"/>
        <path d="M1503 1904 c-19 -19 -16 -24 12 -24 27 0 32 12 13 28 -9 7 -17 6 -25
-4z"/>
        <path d="M4953 1505 c-3 -9 2 -24 11 -34 30 -33 11 -49 -57 -47 -50 1 -71 -4
-110 -26 -43 -24 -48 -25 -56 -10 -5 10 -7 30 -4 45 4 22 2 27 -16 27 -27 0
-63 -36 -59 -58 3 -13 12 -16 36 -14 41 4 53 -20 25 -51 -11 -12 -25 -36 -32
-54 -14 -35 -36 -35 -45 -1 -4 18 -7 19 -20 8 -20 -16 -21 -70 -2 -70 8 0 18
5 21 10 3 6 12 10 20 10 9 0 12 -12 11 -42 -2 -36 -6 -44 -24 -46 -13 -2 -25
3 -28 12 -3 9 -15 16 -25 16 -15 0 -19 -7 -19 -34 0 -29 20 -66 35 -66 3 0 11
14 20 30 21 40 41 38 60 -7 9 -21 28 -50 42 -65 26 -27 24 -48 -4 -48 -13 0
-13 -3 -3 -15 17 -21 30 -19 30 5 0 23 9 25 44 9 20 -9 23 -16 16 -29 -5 -10
-21 -21 -35 -24 -14 -4 -25 -13 -25 -22 0 -18 56 -43 81 -37 23 6 24 21 3 44
-30 33 -11 48 61 48 53 0 75 5 110 26 41 24 45 24 54 8 5 -10 7 -31 4 -46 -4
-22 -2 -27 14 -27 27 0 67 45 59 66 -4 11 -13 14 -30 10 -39 -10 -52 17 -26
54 12 16 25 30 29 30 4 0 8 8 8 18 -1 111 3 132 25 132 12 0 29 -7 39 -16 10
-9 23 -13 28 -9 15 9 14 58 -3 80 -16 22 -46 14 -46 -14 0 -16 -18 -31 -36
-31 -2 0 -10 15 -18 33 -19 46 -70 102 -106 117 -16 7 -30 16 -30 19 0 10 29
48 30 38 0 -4 9 -3 20 3 24 13 17 34 -16 49 -34 15 -54 14 -61 -4z"/>
        <path d="M4853 1493 c-19 -7 -16 -26 5 -40 15 -9 23 -7 43 8 20 16 22 20 9 29
-16 10 -37 12 -57 3z"/>
        <path d="M4787 1453 c-11 -10 -8 -20 7 -26 8 -3 16 2 19 14 5 18 -12 27 -26
12z"/>
        <path d="M5068 1433 c-8 -44 -3 -58 23 -58 35 0 45 11 29 30 -17 21 -50 38
-52 28z"/>
        <path d="M4663 1345 c-3 -9 -3 -18 0 -21 9 -9 27 6 27 22 0 19 -19 18 -27 -1z"/>
        <path d="M5127 1337 c-3 -9 1 -18 10 -21 22 -9 25 -3 10 19 -12 15 -15 16 -20
2z"/>
        <path d="M5156 1171 c-3 -5 0 -14 8 -20 11 -9 15 -8 20 5 3 8 6 18 6 20 0 8
-29 4 -34 -5z"/>
        <path d="M5142 1098 c-15 -15 -16 -45 -2 -53 16 -10 40 15 40 41 0 26 -19 31
-38 12z"/>
        <path d="M4646 1062 c-8 -13 18 -57 36 -60 11 -2 17 6 20 27 3 24 0 31 -16 35
-28 8 -34 7 -40 -2z"/>
        <path d="M4980 954 c0 -8 -4 -14 -10 -14 -5 0 -10 -7 -10 -16 0 -11 8 -14 32
-12 41 4 48 29 13 45 -20 9 -25 8 -25 -3z"/>
        <path d="M4890 930 c-12 -8 -12 -10 3 -16 21 -8 35 2 21 16 -5 5 -15 6 -24 0z"/>
        <path d="M8451 753 c-7 -8 -11 -16 -8 -19 2 -2 10 2 17 11 17 20 9 27 -9 8z"/>
        <path d="M8563 748 c7 -11 17 -14 31 -9 32 13 29 26 -8 26 -28 0 -32 -2 -23
-17z"/>
        <path d="M8360 738 c0 -6 -8 -20 -17 -30 -16 -18 -16 -18 3 -12 30 12 49 54
24 54 -5 0 -10 -5 -10 -12z"/>
        <path d="M8451 697 c-33 -16 -37 -33 -11 -47 17 -9 26 -8 46 5 27 18 31 40 8
49 -19 7 -14 8 -43 -7z"/>
        <path d="M8562 664 c5 -25 35 -41 49 -27 9 9 9 16 -1 28 -17 21 -52 20 -48 -1z"/>
        <path d="M8308 642 c-3 -20 0 -28 7 -26 6 3 11 14 10 24 -2 32 -12 33 -17 2z"/>
        <path d="M8673 660 c2 -8 12 -16 23 -17 13 -2 15 -1 4 4 -8 3 -19 11 -23 17
-6 7 -7 6 -4 -4z"/>
        <path d="M8361 604 c-24 -30 -29 -102 -9 -122 33 -33 78 4 85 71 4 32 1 48
-12 60 -23 24 -40 21 -64 -9z"/>
        <path d="M8472 618 c-49 -49 74 -151 143 -120 48 22 26 86 -42 121 -29 15 -86
14 -101 -1z"/>
        <path d="M8712 587 c-8 -10 -6 -16 9 -26 26 -16 29 -12 14 17 -10 18 -14 20
-23 9z"/>
        <path d="M8291 574 c0 -11 3 -14 6 -6 3 7 2 16 -1 19 -3 4 -6 -2 -5 -13z"/>
        <path d="M8256 531 c-3 -5 1 -11 9 -15 8 -3 15 -16 16 -28 0 -15 3 -18 6 -8 3
8 9 17 13 20 4 3 -3 13 -15 23 -13 9 -26 13 -29 8z"/>
        <path d="M8443 488 c-29 -36 -25 -88 7 -88 25 0 42 24 43 62 2 26 -2 34 -19
36 -11 2 -25 -3 -31 -10z"/>
        <path d="M8700 480 c6 -11 12 -20 14 -20 2 0 2 9 -1 20 -3 11 -9 20 -15 20 -5
0 -4 -9 2 -20z"/>
        <path d="M8536 444 c-20 -19 -20 -30 -1 -38 25 -9 65 11 65 34 0 25 -41 28
-64 4z"/>
        <path d="M8330 401 c0 -5 9 -11 20 -14 24 -6 27 8 4 17 -21 8 -24 8 -24 -3z"/>
        <path d="M8632 355 c-1 -27 0 -28 8 -8 5 12 17 26 26 31 16 9 15 10 -7 9 -21
-2 -25 -7 -27 -32z"/>
        <path d="M8413 343 c-32 -6 -28 -18 6 -19 21 -1 28 3 24 12 -3 8 -6 13 -7 13
0 -1 -11 -4 -23 -6z"/>
        <path d="M8500 335 c-14 -16 -3 -20 19 -6 8 5 9 11 3 15 -5 3 -15 -1 -22 -9z"/>
    </g>
</svg>
