<?xml version="1.0" standalone="no"?>
<!DOCTYPE svg PUBLIC "-//W3C//DTD SVG 20010904//EN"
 "http://www.w3.org/TR/2001/REC-SVG-20010904/DTD/svg10.dtd">
<link rel="stylesheet" href="../css/style.css"/>
<svg version="1.0"
    xmlns="http://www.w3.org/2000/svg" width="1170.000000pt" height="537.000000pt" viewBox="0 0 1170.000000 537.000000" preserveAspectRatio="xMidYMid meet">
    <metadata>
Created by potrace 1.16, written by Peter Selinger 2001-2019
    </metadata>
    <g transform="translate(0.000000,537.000000) scale(0.100000,-0.100000)" fill="#ff4f5b" stroke="none">
        <path d="M168 5173 c-47 -51 -63 -114 -36 -141 51 -51 175 79 139 147 -17 32
-70 29 -103 -6z"/>
        <path d="M322 5144 c-63 -44 15 -185 112 -201 29 -4 37 -1 51 21 23 35 14 81
-27 130 -27 33 -80 66 -105 66 -5 0 -19 -7 -31 -16z"/>
        <path d="M11298 5000 c-41 -22 -78 -64 -78 -90 0 -24 41 -59 78 -66 79 -16
192 52 192 114 0 21 -7 36 -22 46 -32 23 -124 20 -170 -4z"/>
        <path d="M11136 4844 c-34 -33 -10 -122 46 -169 77 -65 138 8 88 105 -34 67
-100 99 -134 64z"/>
        <path d="M5235 4773 c-128 -7 -313 -26 -445 -44 -165 -23 -435 -74 -465 -89
-29 -13 -250 -70 -274 -70 -25 0 -386 -117 -421 -136 -14 -8 -105 -46 -204
-85 -98 -39 -225 -92 -283 -119 -57 -27 -106 -49 -108 -49 -8 -1 -154 -75
-254 -130 -52 -28 -95 -51 -97 -51 -1 0 -19 28 -40 63 -21 34 -46 75 -57 90
l-20 29 -42 -79 c-23 -43 -79 -145 -123 -226 l-81 -149 257 8 c141 3 258 8
260 9 1 1 -23 43 -54 94 -31 51 -55 93 -53 95 2 2 69 37 149 79 358 187 744
339 1155 456 61 18 119 36 130 42 11 5 34 11 50 13 17 2 102 20 190 40 88 19
216 45 285 56 69 12 150 25 180 31 173 30 825 49 1020 29 47 -5 135 -14 195
-20 184 -17 500 -79 680 -131 216 -63 450 -146 598 -210 239 -105 610 -310
574 -317 -15 -3 -18 -11 -15 -40 3 -35 2 -37 -24 -34 -31 3 -36 -12 -14 -44
19 -27 10 -78 -13 -69 -129 50 -500 142 -701 174 -301 49 -717 68 -977 47 -75
-7 -94 -5 -97 5 -2 8 -9 53 -16 101 l-12 86 -188 -146 c-103 -81 -184 -151
-180 -155 10 -11 172 -80 262 -111 62 -21 135 -51 181 -74 4 -2 4 3 1 11 -7
19 -33 191 -29 195 1 2 76 7 166 12 218 12 501 12 624 0 55 -5 153 -14 217
-20 183 -16 426 -61 655 -121 59 -16 80 -25 76 -35 -3 -8 -14 -14 -24 -14 -11
0 -22 -7 -26 -16 -4 -11 -13 -14 -30 -9 -14 3 -31 1 -39 -6 -19 -16 -18 -49 2
-49 20 0 43 -28 44 -52 0 -9 9 -20 20 -23 11 -3 20 -11 20 -16 0 -6 15 -16 33
-24 28 -12 34 -11 49 2 16 14 20 14 43 -1 29 -19 32 -42 9 -68 -14 -14 -14
-21 -4 -32 6 -9 9 -27 6 -43 -5 -25 -2 -30 37 -48 23 -11 49 -19 56 -18 8 1
28 -9 44 -23 16 -13 33 -24 39 -24 5 0 23 -11 39 -25 28 -23 35 -24 121 -20
55 2 97 0 105 -6 9 -8 23 -2 50 19 52 41 98 50 115 23 7 -12 20 -21 29 -21 21
0 56 -39 64 -72 5 -18 1 -37 -11 -58 -15 -25 -16 -32 -6 -39 32 -20 -119 -684
-245 -1076 -309 -959 -839 -1584 -1544 -1819 -155 -52 -377 -99 -575 -122
-193 -22 -531 -15 -699 15 -384 68 -711 215 -1025 460 -171 133 -397 368 -549
571 -35 47 -71 92 -80 100 -9 8 -29 33 -45 54 l-29 39 24 18 c13 10 54 33 91
51 38 18 68 36 68 40 0 4 -12 11 -26 14 -25 6 -360 188 -378 205 -28 26 -31 4
-28 -228 2 -131 5 -239 7 -241 1 -1 40 20 85 47 46 28 87 48 92 45 4 -3 16
-20 25 -37 9 -18 53 -81 98 -142 491 -656 1053 -1009 1755 -1101 173 -22 580
-15 760 15 480 78 795 210 1115 468 539 435 938 1217 1095 2147 16 94 27 173
25 176 -5 8 22 260 29 267 3 3 9 -3 12 -13 4 -10 14 -27 22 -36 18 -21 54 -24
46 -4 -5 14 23 26 65 26 14 0 32 7 42 16 15 14 20 14 47 0 16 -8 36 -26 46
-40 13 -20 22 -24 44 -20 32 5 43 -2 59 -36 10 -22 12 -23 12 -4 1 28 20 44
51 44 14 0 31 5 37 11 7 7 29 -10 73 -58 82 -89 229 -283 257 -339 13 -24 27
-44 32 -44 5 0 11 -8 15 -17 3 -10 10 -26 16 -35 5 -10 15 -26 20 -35 22 -39
60 -122 95 -208 20 -49 45 -106 55 -125 9 -20 21 -51 25 -70 4 -19 11 -41 16
-50 4 -8 24 -78 44 -155 20 -77 46 -171 57 -208 11 -38 18 -70 16 -73 -3 -2
-38 -6 -79 -8 -146 -9 -146 6 -1 -185 70 -91 138 -181 153 -199 l25 -33 34 83
c18 46 52 124 75 173 60 129 89 204 83 210 -3 3 -49 -1 -104 -9 -107 -16 -113
-14 -114 34 -1 86 -151 556 -182 568 -4 2 -8 10 -8 18 0 17 -56 131 -75 154
-7 8 -31 51 -55 95 -23 44 -63 108 -89 142 -130 173 -166 216 -251 306 -83 88
-90 97 -66 97 33 0 116 84 116 118 0 12 5 31 10 42 6 11 14 28 18 38 5 9 7 34
4 55 -3 30 -8 37 -26 37 -20 1 -20 1 -2 15 16 12 17 17 6 30 -7 8 -21 15 -31
15 -10 0 -21 5 -24 10 -4 7 3 8 21 4 l29 -7 -30 32 c-17 18 -43 46 -59 62 -36
37 -30 71 17 96 l32 16 -35 10 c-24 6 -41 5 -53 -3 -16 -9 -22 -8 -34 9 -8 12
-22 21 -32 21 -41 0 -39 21 5 66 40 40 73 56 75 37 3 -35 9 -66 13 -70 6 -6
96 85 96 98 0 9 14 13 37 10 6 -1 21 12 33 29 12 17 26 28 31 25 18 -11 9 22
-11 40 -15 14 -17 22 -9 37 7 13 18 18 30 15 13 -4 19 0 19 12 0 15 -18 80
-25 89 -1 1 -21 -4 -44 -13 -41 -14 -71 -12 -71 6 0 15 -63 49 -90 49 -18 0
-49 21 -98 66 -75 68 -109 84 -179 84 -44 0 -66 -14 -35 -22 14 -4 18 -14 16
-52 -2 -53 -19 -79 -45 -71 -16 5 -19 1 -19 -23 0 -26 3 -29 29 -28 16 1 33 5
37 8 8 9 84 -31 84 -44 0 -4 0 -11 0 -15 0 -5 -8 -8 -18 -9 -9 -1 -27 -2 -39
-3 -13 0 -23 -8 -23 -16 0 -9 -8 -18 -17 -22 -10 -3 -26 -13 -36 -21 -14 -12
-22 -13 -42 -4 -24 11 -36 0 -15 -13 36 -22 -20 -85 -77 -85 -19 0 -48 -7 -64
-16 -17 -8 -35 -14 -41 -12 -6 2 -21 42 -35 88 -66 231 -150 377 -307 534
l-109 109 32 65 c18 35 30 66 28 68 -2 2 -90 1 -196 -3 -166 -5 -191 -8 -186
-21 9 -23 199 -322 205 -322 3 0 21 28 39 63 19 34 36 64 37 66 2 2 25 -14 51
-35 129 -105 255 -256 326 -391 44 -84 90 -203 82 -211 -3 -3 -27 2 -53 11
-28 10 -76 17 -119 17 -69 0 -73 1 -117 40 -29 24 -60 41 -84 45 -79 12 -97
20 -100 43 -5 30 -59 82 -86 82 -13 0 -31 9 -41 20 -22 24 -35 26 -35 5 0 -8
-4 -15 -9 -15 -4 0 -6 -12 -3 -26 3 -15 1 -25 -4 -23 -5 2 -68 40 -139 85
-393 245 -826 434 -1250 544 -66 17 -127 34 -135 39 -28 15 -342 62 -615 91
-175 18 -431 24 -610 13z"/>
        <path d="M8404 2923 c-299 -406 -651 -672 -1084 -821 -119 -40 -298 -88 -305
-80 -2 2 -7 48 -11 101 -4 53 -9 97 -11 97 -2 0 -64 -42 -138 -92 -282 -193
-267 -182 -250 -194 19 -14 410 -214 419 -214 3 0 3 47 -1 105 -6 101 -5 105
14 105 41 0 221 52 333 96 405 160 764 456 1028 849 60 88 98 155 88 155 -1 0
-38 -48 -82 -107z"/>
        <path d="M1350 2582 c-26 -13 -35 -23 -35 -42 0 -20 6 -26 28 -28 15 -2 31
-12 37 -22 8 -15 4 -22 -26 -39 -45 -27 -47 -27 -39 8 7 34 -14 47 -48 29 -28
-14 -37 -27 -37 -56 0 -20 4 -23 30 -20 31 3 35 -5 16 -34 -13 -22 -36 -24
-36 -3 0 22 -28 18 -40 -5 -15 -27 -4 -41 26 -34 27 7 28 5 14 -30 -12 -32
-47 -35 -52 -5 -5 35 -33 47 -58 24 -17 -15 -20 -28 -18 -64 3 -41 6 -46 30
-49 19 -2 28 2 33 17 4 14 15 21 31 21 20 0 24 -5 24 -30 0 -31 -17 -39 -36
-20 -16 16 -37 -14 -29 -40 7 -23 30 -27 39 -5 9 25 22 17 33 -20 12 -37 0
-48 -24 -24 -19 19 -43 2 -43 -29 0 -31 26 -62 53 -62 11 0 17 8 17 24 0 38
13 38 43 1 35 -44 27 -65 -21 -62 -33 2 -37 -1 -40 -24 -4 -32 49 -82 82 -77
18 3 21 10 21 47 0 51 11 59 54 36 37 -18 40 -32 9 -37 -31 -4 -36 -43 -8 -58
34 -18 74 -9 78 18 2 13 -3 24 -12 28 -9 3 -13 10 -10 15 7 12 45 11 64 -1 13
-8 13 -11 1 -19 -19 -12 -6 -41 19 -41 23 0 41 31 22 38 -23 7 -12 30 18 34
36 5 51 -23 26 -48 -41 -41 4 -79 65 -54 57 24 64 80 10 80 -35 0 -48 31 -20
48 27 17 39 15 39 -8 0 -27 36 -27 50 0 9 17 7 22 -16 30 l-27 11 23 24 c31
33 40 31 40 -5 0 -23 5 -30 19 -30 41 0 74 61 48 87 -12 12 -19 13 -37 3 -30
-16 -32 -10 -14 37 12 31 20 39 34 36 11 -3 20 -14 22 -25 2 -12 11 -26 21
-32 15 -9 22 -7 38 13 22 26 26 93 7 109 -17 13 -58 -3 -58 -23 0 -16 -9 -19
-34 -9 -11 4 -16 19 -16 45 0 43 5 47 31 23 27 -24 49 -11 49 30 0 33 -21 66
-41 66 -5 0 -15 -11 -21 -25 -14 -32 -22 -31 -37 1 -14 31 -8 44 19 37 15 -4
20 0 20 15 0 23 -25 47 -40 37 -5 -3 -10 -13 -10 -21 0 -20 -13 -17 -39 9 -19
21 -20 26 -7 36 8 7 24 10 34 7 54 -18 69 29 23 75 -50 49 -109 32 -83 -25 15
-34 0 -53 -32 -38 -28 13 -35 32 -11 32 22 0 18 38 -5 45 -29 9 -41 -3 -34
-32 6 -22 4 -25 -10 -20 -10 4 -26 7 -37 7 -10 0 -19 7 -19 15 0 8 9 15 19 15
25 0 34 26 15 45 -16 15 -50 20 -78 9 -23 -9 -20 -45 4 -51 38 -10 22 -31 -26
-35 -56 -4 -76 18 -44 47 25 23 25 41 1 55 -26 13 -30 13 -71 -8z"/>
        <path d="M10640 2315 c-37 -45 78 -143 136 -116 62 28 -5 131 -85 131 -23 0
-44 -6 -51 -15z"/>
        <path d="M4943 1505 c-3 -9 2 -24 12 -35 23 -25 11 -40 -31 -40 -35 0 -46 13
-19 24 21 8 19 43 -2 48 -10 2 -29 2 -43 -2 -32 -8 -39 -39 -11 -47 27 -7 27
-19 -1 -27 -36 -9 -40 -7 -33 13 7 22 -6 34 -29 25 -21 -8 -20 -24 1 -39 15
-11 15 -13 -6 -24 -28 -15 -36 -8 -36 32 0 43 -34 49 -70 12 -34 -33 -29 -59
10 -63 40 -5 51 -17 35 -37 -13 -16 -15 -15 -26 0 -17 22 -44 12 -44 -16 0
-17 4 -20 21 -16 18 5 20 2 15 -16 -3 -12 -6 -25 -6 -29 0 -17 -18 -7 -23 12
-6 24 -42 27 -51 4 -19 -49 12 -98 39 -61 19 26 25 20 25 -23 0 -44 -18 -53
-47 -25 -8 9 -23 15 -32 13 -20 -4 -27 -58 -11 -88 15 -28 54 -23 58 8 5 33
35 28 49 -8 11 -29 11 -30 -15 -28 -22 3 -28 -1 -30 -23 -3 -29 29 -64 53 -56
8 4 15 18 15 33 0 26 0 27 20 9 24 -22 26 -35 5 -35 -20 0 -19 -36 1 -44 21
-8 37 2 30 20 -6 15 3 18 28 8 26 -10 20 -44 -8 -44 -13 0 -26 -7 -30 -15 -9
-24 29 -55 68 -55 39 0 51 19 31 47 -22 27 -18 43 10 43 27 0 32 -9 13 -28
-10 -10 -10 -15 2 -22 8 -5 21 -10 28 -10 17 0 29 33 14 38 -24 8 -11 22 20
22 25 0 29 -3 20 -12 -7 -7 -12 -20 -12 -30 0 -14 8 -18 34 -18 18 0 39 7 46
15 15 18 6 45 -15 45 -22 0 -18 15 8 27 37 17 42 14 42 -25 0 -31 4 -38 22
-40 14 -2 32 6 48 22 41 41 28 83 -23 69 -28 -7 -36 12 -16 42 20 31 32 32 36
3 7 -48 58 -20 58 33 0 31 -25 40 -48 17 -9 -9 -12 -8 -12 8 0 26 20 53 27 37
9 -24 33 -14 33 13 0 23 -3 25 -25 20 -22 -6 -25 -3 -25 18 0 36 18 42 45 16
20 -19 27 -21 40 -10 21 17 19 63 -3 91 -22 26 -52 20 -52 -10 0 -10 -7 -22
-16 -25 -20 -8 -19 -8 -29 22 -6 21 -4 23 15 17 19 -6 21 -4 18 22 -3 30 -38
47 -38 19 0 -22 -13 -20 -35 4 -18 20 -17 20 13 20 25 0 32 4 32 19 0 27 -27
51 -57 51 -22 0 -24 -3 -19 -25 7 -29 5 -30 -35 -9 -35 17 -34 36 2 44 30 7
37 39 13 57 -25 18 -83 17 -91 -2z"/>
        <path d="M8472 618 c-49 -49 74 -151 143 -120 48 22 26 86 -42 121 -29 15 -86
14 -101 -1z"/>
    </g>
</svg>
