<?xml version="1.0" standalone="no"?>
<!DOCTYPE svg PUBLIC "-//W3C//DTD SVG 20010904//EN"
 "http://www.w3.org/TR/2001/REC-SVG-20010904/DTD/svg10.dtd">
<svg version="1.0" xmlns="http://www.w3.org/2000/svg"
 width="200.000000pt" height="199.000000pt" viewBox="0 0 200.000000 199.000000"
 preserveAspectRatio="xMidYMid meet">
<metadata>
Created by potrace 1.16, written by Peter Selinger 2001-2019
</metadata>
<g transform="translate(0.000000,199.000000) scale(0.100000,-0.100000)"
fill="#000000" stroke="none">
<path d="M1026 1755 c-65 -18 -136 -63 -164 -105 -13 -19 -35 -39 -50 -45 -51
-19 -69 -34 -87 -72 -17 -35 -17 -40 0 -107 10 -39 26 -88 36 -108 l19 -37
-25 -25 c-34 -34 -35 -94 -2 -124 13 -12 28 -22 35 -22 22 0 41 -98 43 -225 2
-120 1 -126 -22 -151 -13 -14 -100 -64 -192 -111 -147 -74 -173 -91 -207 -134
-57 -73 -114 -239 -81 -239 7 0 47 -26 89 -58 133 -99 189 -124 392 -169 101
-22 338 -19 437 6 133 34 214 73 320 152 35 26 69 49 74 51 6 2 -11 55 -36
117 -98 245 -169 317 -347 351 -35 7 -71 22 -93 40 -20 16 -40 30 -44 32 -4 2
-10 22 -14 46 -5 40 -4 42 21 42 48 0 102 20 136 51 53 46 67 94 76 266 5 84
14 161 20 172 5 11 12 46 13 78 2 32 9 68 15 80 42 77 -21 206 -120 247 -46
20 -173 20 -242 1z m9 -292 c46 -10 108 -14 184 -11 l114 3 -5 -163 c-3 -89
-8 -165 -11 -168 -3 -4 -27 1 -53 10 -64 22 -144 20 -234 -5 l-75 -20 -23 28
c-63 79 -70 94 -76 194 l-6 97 24 6 c14 3 33 17 43 31 11 15 24 22 33 19 8 -3
47 -12 85 -21z m-210 -211 c6 -4 38 -45 72 -92 60 -84 61 -88 65 -158 1 -40 0
-72 -4 -72 -3 0 -29 26 -57 58 -44 49 -51 63 -51 99 l0 42 -33 -6 c-29 -4 -37
-1 -56 23 -23 30 -23 72 0 101 12 14 48 17 64 5z m442 -139 l54 -18 -6 -45
c-9 -56 -38 -115 -69 -135 -34 -22 -135 -36 -197 -27 -51 7 -54 9 -65 47 -7
22 -13 67 -13 101 l-1 61 63 16 c84 21 169 21 234 0z m-334 -201 c-1 -17 47
-38 110 -47 l47 -7 0 -69 c0 -61 -3 -70 -24 -84 -63 -42 -138 -38 -190 10 -26
24 -26 25 -26 166 l0 142 43 -49 c23 -26 41 -54 40 -62z"/>
</g>
</svg>
