<?xml version="1.0" standalone="no"?>
<!DOCTYPE svg PUBLIC "-//W3C//DTD SVG 20010904//EN"
 "http://www.w3.org/TR/2001/REC-SVG-20010904/DTD/svg10.dtd">
<svg version="1.0" xmlns="http://www.w3.org/2000/svg"
 width="200.000000pt" height="200.000000pt" viewBox="0 0 200.000000 200.000000"
 preserveAspectRatio="xMidYMid meet">
<metadata>
Created by potrace 1.16, written by Peter Selinger 2001-2019
</metadata>
<g transform="translate(0.000000,200.000000) scale(0.100000,-0.100000)"
fill="#000000" stroke="none">
<path d="M265 1990 c-28 -12 -85 -75 -85 -94 0 -9 7 -33 15 -54 14 -33 14 -38
0 -48 -22 -16 -19 -61 4 -69 10 -3 22 -17 25 -30 3 -13 15 -29 26 -35 11 -6
20 -21 20 -34 0 -19 -12 -28 -60 -50 -93 -42 -98 -55 -112 -340 -12 -244 -9
-273 28 -259 10 3 14 -2 14 -19 0 -13 5 -29 12 -36 6 -6 9 -14 6 -17 -6 -6
-17 3 -43 40 l-15 20 6 -20 c9 -27 34 -55 49 -55 8 0 13 17 13 45 1 25 6 53
12 63 9 14 10 11 6 -13 -3 -16 -8 -129 -11 -250 -10 -378 -22 -502 -51 -561
-36 -72 -31 -88 30 -92 47 -3 86 15 86 40 0 5 9 21 19 36 14 20 21 50 24 112
11 192 41 482 48 464 4 -10 15 -109 24 -219 9 -110 19 -216 21 -235 l6 -35 54
3 c30 2 54 0 54 -5 0 -5 14 -31 32 -57 25 -39 29 -50 17 -57 -31 -20 -64 -9
-111 38 -57 56 -65 41 -9 -17 39 -40 65 -48 119 -34 30 8 28 25 -9 77 l-31 44
-9 304 c-4 167 -11 337 -13 377 -6 74 2 91 22 47 11 -25 42 -35 42 -14 0 5 -4
7 -10 4 -5 -3 -10 3 -10 14 0 14 11 23 36 31 34 11 36 14 30 44 -4 17 -20 124
-36 239 -36 252 -46 275 -133 312 -21 9 -40 22 -43 29 -6 15 32 77 68 114 l23
23 -20 17 c-20 15 -20 17 -4 51 11 25 15 53 12 89 -4 45 -9 54 -33 67 -31 16
-122 19 -155 5z m86 -110 l49 0 0 -50 c0 -43 3 -50 20 -50 13 0 20 -7 20 -20
0 -11 -7 -20 -16 -20 -8 0 -20 -14 -26 -31 -6 -17 -25 -39 -42 -50 -17 -10
-24 -19 -16 -19 8 0 20 -11 26 -25 16 -33 -2 -47 -53 -43 -37 3 -38 4 -35 38
2 19 8 37 14 39 5 2 -1 8 -14 15 -12 6 -29 26 -37 44 -8 17 -21 32 -28 32 -7
0 -13 9 -13 20 0 14 6 20 18 18 14 -3 17 4 14 44 -5 60 3 72 40 64 17 -3 52
-6 79 -6z m-46 -327 c25 -4 34 -14 52 -56 30 -69 40 -128 49 -279 6 -109 5
-128 -11 -151 -16 -25 -22 -27 -90 -27 -40 0 -80 3 -89 6 -14 5 -16 33 -16
208 0 124 -4 195 -10 186 -11 -20 -37 -206 -46 -337 -5 -82 -10 -103 -22 -103
-13 0 -14 25 -8 193 9 252 17 291 69 340 32 32 44 38 66 32 14 -3 40 -9 56
-12z"/>
<path d="M1554 1986 c-29 -21 -41 -124 -19 -166 13 -26 13 -28 -5 -33 -25 -6
-27 -47 -2 -54 22 -6 63 -70 65 -101 2 -20 -8 -30 -48 -52 -94 -50 -110 -99
-121 -356 -8 -194 0 -288 27 -315 21 -21 49 -26 49 -8 0 5 -4 8 -10 4 -13 -8
-50 31 -50 55 0 15 7 20 25 20 19 0 25 -5 25 -21 0 -15 -4 -19 -16 -15 -14 5
-15 4 -4 -9 16 -19 20 -15 31 27 5 19 6 -83 4 -247 -3 -154 -1 -296 4 -315 6
-25 9 -28 10 -12 1 18 7 22 31 22 22 0 30 -5 31 -17 0 -14 2 -15 6 -3 4 8 11
20 18 26 6 7 20 85 30 175 11 90 20 157 21 149 2 -8 8 -82 14 -164 7 -107 14
-152 25 -160 7 -6 16 -24 18 -41 l4 -30 2 33 c1 28 4 32 29 32 49 0 52 8 50
116 -5 193 2 464 12 464 6 0 10 -6 10 -14 0 -7 7 -19 15 -26 13 -11 18 -11 28
0 9 10 9 11 0 6 -9 -5 -13 0 -13 12 0 11 7 22 15 26 11 4 15 -2 16 -22 2 -27
2 -27 6 -2 2 14 11 30 18 36 10 8 12 20 5 50 -5 22 -21 126 -35 230 -14 104
-30 204 -36 222 -11 34 -53 71 -106 91 -17 7 -34 20 -37 28 -6 15 39 75 76
101 23 17 23 49 0 63 -16 10 -17 19 -10 63 9 62 6 75 -32 111 -26 24 -40 30
-93 33 -44 2 -68 -1 -83 -12z m47 -117 c15 -7 24 -7 35 2 10 8 17 9 28 0 7 -6
25 -12 40 -13 23 -2 26 -7 26 -39 0 -28 5 -38 20 -42 11 -3 20 -10 20 -17 0
-7 -9 -14 -20 -17 -11 -3 -20 -11 -20 -18 0 -7 -14 -29 -30 -50 l-30 -38 20
-22 c25 -27 11 -45 -36 -45 -45 0 -67 10 -55 24 19 23 15 54 -12 89 -15 19
-27 40 -27 45 0 5 -9 12 -21 15 -24 7 -20 33 5 31 13 -2 16 8 16 52 0 56 6 62
41 43z m19 -855 c37 -8 37 -3 1 -169 -36 -165 -39 -175 -63 -175 -20 0 -20 -1
-5 -18 18 -20 20 -50 10 -154 -5 -57 -9 -68 -24 -68 -18 0 -19 12 -19 188 0
104 3 237 7 295 l6 107 27 0 c15 0 42 -3 60 -6z m106 -260 c16 -78 16 -78 -5
-92 -18 -12 -19 -16 -7 -26 9 -7 15 -42 19 -108 5 -91 4 -98 -13 -98 -14 0
-20 10 -25 43 -7 52 -25 360 -24 407 l1 35 19 -42 c11 -23 26 -77 35 -119z"/>
<path d="M1782 338 c-1 -35 -6 -58 -13 -58 -8 0 -8 -4 -1 -12 5 -7 17 -30 25
-50 14 -32 14 -38 2 -38 -17 0 -57 74 -47 85 4 5 1 5 -5 1 -10 -5 -13 5 -14
36 -2 32 -3 36 -6 14 -3 -16 -11 -35 -19 -43 -8 -8 -14 -31 -14 -50 0 -30 8
-44 45 -80 46 -43 70 -51 123 -37 26 7 30 45 6 65 -29 24 -69 114 -75 169 l-6
55 -1 -57z"/>
<path d="M1566 309 c-6 -49 -10 -60 -22 -55 -9 3 -20 6 -25 6 -5 0 -10 24 -11
53 -1 40 -2 44 -5 17 -3 -19 -11 -39 -19 -43 -8 -4 -14 -18 -14 -30 0 -12 -14
-50 -30 -84 -38 -77 -33 -93 30 -93 44 0 80 20 80 44 0 4 8 18 18 31 16 20 18
33 11 72 -4 26 -5 69 -2 96 3 26 3 47 1 47 -3 0 -9 -27 -12 -61z"/>
</g>
</svg>
