<?xml version="1.0" standalone="no"?>
<!DOCTYPE svg PUBLIC "-//W3C//DTD SVG 20010904//EN"
 "http://www.w3.org/TR/2001/REC-SVG-20010904/DTD/svg10.dtd">
<svg version="1.0" xmlns="http://www.w3.org/2000/svg"
 width="512.000000pt" height="512.000000pt" viewBox="0 0 512.000000 512.000000"
 preserveAspectRatio="xMidYMid meet">
<metadata>
Created by potrace 1.16, written by Peter Selinger 2001-2019
</metadata>
<g transform="translate(0.000000,512.000000) scale(0.100000,-0.100000)"
fill="#000000" stroke="none">
<path d="M2514 4896 c-11 -6 -37 -30 -59 -54 -56 -60 -55 -59 -109 -132 -27
-36 -54 -70 -60 -75 -13 -12 -17 -19 -95 -150 -33 -55 -63 -104 -68 -110 -5
-5 -9 -14 -10 -18 0 -5 -15 -33 -33 -63 -18 -30 -30 -57 -26 -61 14 -14 202
-43 356 -54 124 -9 196 -9 290 -1 132 12 287 38 309 52 27 16 -175 360 -301
512 -80 96 -138 156 -157 161 -10 2 -27 -1 -37 -7z"/>
<path d="M2440 3995 c-110 -31 -199 -107 -248 -213 -23 -49 -27 -70 -27 -152
0 -81 4 -103 27 -152 88 -189 312 -273 504 -189 62 28 149 113 181 180 25 50
28 67 28 161 0 96 -3 110 -29 164 -79 162 -267 248 -436 201z"/>
<path d="M2275 1740 c-249 -11 -355 -21 -355 -34 0 -6 -15 -19 -33 -30 -17
-10 -140 -79 -272 -153 -132 -75 -243 -140 -246 -145 -4 -6 -3 -27 2 -48 5
-20 7 -46 5 -57 -3 -11 4 -34 15 -52 17 -29 21 -30 46 -19 16 7 40 20 56 31
15 10 27 15 27 10 0 -4 4 -3 8 3 4 6 34 25 67 43 33 18 66 38 73 43 6 6 12 7
12 2 0 -5 4 -4 8 2 4 6 34 25 67 43 33 18 65 37 71 42 6 5 14 6 17 2 4 -3 7
-1 7 5 0 6 10 14 23 17 12 4 47 21 77 38 37 21 69 31 97 32 l43 0 0 -72 c0
-93 16 -113 90 -113 l49 0 -34 -72 c-40 -83 -42 -98 -16 -122 17 -16 50 -17
350 -16 182 0 338 3 346 6 28 11 28 52 0 117 -15 34 -29 68 -32 75 -4 9 9 12
46 12 74 0 91 20 91 110 l0 70 29 0 c16 0 41 4 55 10 21 8 48 -4 202 -90 97
-55 179 -100 181 -100 2 0 20 -11 41 -23 20 -13 76 -45 124 -71 122 -66 124
-64 142 102 l4 42 -66 38 c-37 21 -170 97 -297 169 l-230 131 -143 11 c-190
15 -537 20 -747 11z"/>
</g>
</svg>
