<?xml version="1.0" standalone="no"?>
<!DOCTYPE svg PUBLIC "-//W3C//DTD SVG 20010904//EN"
 "http://www.w3.org/TR/2001/REC-SVG-20010904/DTD/svg10.dtd">
<svg version="1.0" xmlns="http://www.w3.org/2000/svg"
 width="570.000000pt" height="412.000000pt" viewBox="0 0 570.000000 412.000000"
 preserveAspectRatio="xMidYMid meet">
<metadata>
Created by potrace 1.16, written by Peter Selinger 2001-2019
</metadata>
<g transform="translate(0.000000,412.000000) scale(0.100000,-0.100000)"
fill="#000000" stroke="none">
<path d="M2821 4105 c-45 -16 -73 -56 -87 -124 -13 -66 -4 -114 27 -147 12
-13 21 -25 18 -26 -2 -2 -31 -16 -63 -32 -32 -17 -82 -51 -110 -78 -49 -46
-50 -47 -19 -39 80 22 356 53 396 45 62 -13 56 -37 -13 -47 -135 -20 -133 -18
-42 -38 45 -10 87 -21 93 -25 23 -14 -17 -24 -96 -25 l-80 0 50 -15 c90 -26
135 -46 129 -55 -3 -5 -47 -9 -97 -10 -77 -1 -86 -2 -57 -10 67 -18 120 -41
120 -51 0 -6 -7 -16 -16 -22 -14 -10 -13 -15 7 -40 30 -38 76 -56 146 -56 l58
-1 -33 -14 c-45 -20 -36 -40 19 -42 24 -1 56 -4 72 -7 39 -8 36 19 -5 44 l-33
20 52 0 c49 0 53 -2 59 -27 18 -83 26 -103 39 -103 8 0 17 5 20 10 11 17 51
11 71 -11 14 -15 19 -35 18 -73 -1 -86 -49 -156 -107 -156 -32 0 -35 -3 -60
-67 -15 -38 -45 -92 -67 -121 -41 -54 -44 -67 -33 -147 l6 -48 66 6 c91 8 195
42 235 78 26 22 37 42 44 82 6 28 18 76 26 105 16 56 13 94 -18 205 -19 68
-29 183 -29 327 l0 115 114 34 114 33 624 9 c620 9 624 9 643 -11 25 -27 54
-25 74 5 15 23 15 27 0 50 -20 30 -50 32 -73 5 -17 -20 -25 -20 -613 -14
l-595 7 -75 -25 c-41 -14 -102 -33 -135 -42 -33 -10 -67 -19 -76 -22 -11 -3
-22 11 -38 46 -29 65 -96 137 -162 177 -30 18 -97 44 -149 58 -52 15 -101 28
-108 30 -9 3 -6 16 10 46 14 28 21 58 20 93 -1 48 -4 54 -48 95 -27 24 -59 47
-72 52 -32 12 -120 9 -161 -6z"/>
<path d="M878 3759 c-21 -12 -24 -59 -6 -77 18 -18 49 -14 74 9 22 21 25 21
401 14 l379 -8 24 -45 c14 -25 29 -50 35 -56 6 -6 38 -57 70 -113 l59 -103
369 -2 369 -3 -50 -35 c-90 -63 -200 -164 -216 -200 -9 -19 -27 -66 -40 -105
-23 -70 -24 -70 -63 -73 l-39 -3 -1 49 c-1 79 -46 144 -154 227 -109 83 -173
103 -274 84 -79 -14 -209 -73 -275 -124 -139 -108 -288 -290 -360 -440 -57
-118 -73 -184 -68 -274 5 -71 19 -112 76 -223 2 -5 -180 -8 -405 -8 -396 0
-409 1 -426 20 -20 24 -50 26 -71 4 -23 -23 -20 -51 9 -70 23 -15 27 -15 50 0
21 14 75 16 447 16 407 0 424 -1 435 -19 23 -37 144 -171 155 -171 6 0 37 -25
70 -55 118 -109 335 -262 493 -346 44 -23 81 -43 82 -44 3 -2 -130 -299 -155
-347 -11 -21 -27 -56 -36 -78 l-16 -40 -434 0 c-373 0 -435 2 -446 15 -16 19
-54 19 -69 1 -19 -23 -9 -68 16 -77 15 -6 29 -2 46 12 24 18 45 19 469 19
l443 0 35 82 c19 46 35 85 35 88 0 11 129 300 132 296 2 -2 -4 -77 -12 -167
-35 -350 -55 -790 -55 -1176 l0 -213 1062 0 1061 0 -7 383 -6 383 79 32 c128
53 189 121 221 250 l11 42 300 0 c289 0 301 -1 328 -21 23 -17 33 -19 49 -10
30 16 37 49 16 72 -22 25 -60 24 -76 -1 -12 -19 -24 -20 -158 -20 -80 0 -215
3 -300 6 l-155 7 3 110 c2 61 -1 127 -6 147 -6 19 -18 84 -27 143 -32 207
-117 497 -193 661 l-39 82 591 -1 c560 0 592 -1 619 -19 25 -17 29 -17 52 -2
29 19 32 47 9 70 -21 22 -49 20 -71 -4 -18 -19 -32 -19 -628 -13 l-609 6 -45
41 c-26 23 -83 76 -129 118 l-83 78 -114 0 c-86 0 -125 4 -157 17 -55 23 -180
23 -264 0 -43 -12 -102 -17 -188 -17 -77 0 -126 -4 -126 -10 0 -6 33 -10 78
-11 95 0 69 -16 -45 -26 -58 -5 -77 -3 -91 9 -25 23 -80 49 -142 69 -54 18
-55 18 -17 18 l37 1 0 50 c0 48 -2 51 -73 122 -40 40 -85 97 -100 126 l-28 52
170 0 c107 0 171 4 171 10 0 6 -73 10 -198 10 -193 0 -199 1 -219 23 -52 56
-70 158 -37 205 25 35 70 30 95 -12 29 -49 45 -52 53 -8 3 20 6 52 6 70 0 29
3 32 30 32 27 0 29 -2 18 -20 -17 -27 -6 -33 39 -21 21 6 53 11 71 11 36 0 41
12 12 33 -19 13 -18 15 23 26 65 20 87 37 87 71 l0 30 -433 0 c-239 0 -467 3
-508 6 l-74 7 -55 95 c-30 53 -60 108 -66 122 -7 15 -24 46 -39 70 l-27 43
-388 -8 c-386 -7 -388 -7 -409 14 -23 23 -37 25 -63 10z m1438 -892 c1 -79 16
-124 59 -175 40 -48 40 -34 1 33 -36 59 -50 115 -44 174 2 19 9 36 16 39 9 3
12 -17 12 -77 0 -97 14 -135 65 -180 43 -38 87 -59 160 -76 39 -10 46 -14 30
-20 -38 -13 -190 -89 -218 -108 l-28 -19 -129 86 c-170 113 -186 137 -136 207
14 19 48 69 78 112 51 74 54 77 93 77 l40 0 1 -73z m1583 -413 c36 -36 57 -63
46 -59 -11 3 -47 12 -80 19 -39 8 -77 25 -106 47 -25 19 -55 39 -65 46 -16 10
-5 12 60 12 l78 1 67 -66z m-639 -939 c41 -8 112 -27 158 -41 l82 -25 -6 -42
c-24 -153 -74 -272 -121 -283 -17 -5 -69 8 -164 40 -132 44 -189 55 -189 38 0
-4 13 -41 29 -82 66 -174 129 -450 116 -517 -5 -27 -15 -38 -58 -60 -72 -37
-150 -38 -232 -2 -35 16 -90 30 -130 34 -78 7 -140 31 -169 63 -43 49 -10 230
88 480 31 79 56 146 56 147 0 2 -16 -3 -35 -11 -32 -13 -35 -13 -35 2 0 23 70
112 122 154 70 58 107 82 167 107 49 21 67 23 151 19 52 -2 129 -12 170 -21z"/>
<path d="M3115 2677 c-41 -15 -67 -18 -140 -14 -49 3 -102 9 -117 13 -24 5
-28 3 -28 -14 0 -29 52 -69 112 -87 62 -18 209 -20 226 -3 13 13 16 96 4 114
-5 7 -23 4 -57 -9z"/>
</g>
</svg>
